<?xml version="1.0" encoding="UTF-8"?>
<!-- Generator: Adobe Illustrator 27.5.0, SVG Export Plug-In . SVG Version: 6.00 Build 0)  -->
<svg width="812.05" height="466.05" version="1.1" viewBox="0 0 812.05 466.05" xml:space="preserve" xmlns="http://www.w3.org/2000/svg">


<g transform="translate(-93.974 -262.49)">
			
				<linearGradient id="SVGID_00000090285137311026075520000014516454861679078284_" x1="500" x2="500" y1="728.55" y2="715.11" gradientUnits="userSpaceOnUse">
				<stop style="stop-color:#575554" offset="0"/>
				<stop style="stop-color:#575554" offset=".464"/>
				<stop style="stop-color:#131313" offset="1"/>
			</linearGradient>
			<path d="m93.974 715.11c28.551 8.908 58.286 13.439 88.194 13.439h635.66c29.908 0 59.644-4.531 88.194-13.439h-406.02z" style="fill:url(#SVGID_00000090285137311026075520000014516454861679078284_)"/>
			
				
					<linearGradient id="SVGID_00000154397808199632626800000006488338151073896639_" x1="-5878.4" x2="-5540.4" y1="713.42" y2="713.42" gradientTransform="matrix(-1 0 0 1 -5446.4 0)" gradientUnits="userSpaceOnUse">
					<stop style="stop-color:#767676" offset="0"/>
					<stop style="stop-color:#6E6E6E" offset=".00082895"/>
					<stop style="stop-color:#585858" offset=".0039"/>
					<stop style="stop-color:#4A4A4A" offset=".0068"/>
					<stop style="stop-color:#454545" offset=".0093"/>
					<stop style="stop-color:#484848" offset=".0129"/>
					<stop style="stop-color:#525252" offset=".0159"/>
					<stop style="stop-color:#5D5D5D" offset=".0178"/>
					<stop style="stop-color:#7C7C7C" offset=".0253"/>
					<stop style="stop-color:#838383" offset=".4016"/>
					<stop style="stop-color:#838383" offset=".4064"/>
					<stop style="stop-color:#6A6A6A" offset=".9354"/>
					<stop style="stop-color:#484848" offset=".9589"/>
					<stop style="stop-color:#383838" offset=".9731"/>
					<stop style="stop-color:#3D3D3D" offset=".9791"/>
					<stop style="stop-color:#4B4B4B" offset=".9862"/>
					<stop style="stop-color:#636363" offset=".9939"/>
					<stop style="stop-color:#7C7C7C" offset="1"/>
				</linearGradient>
				<path d="m93.974 710.28v4.827h327.33c3.225 0 6.426 0.459 9.566 1.207 0.369 0.09 0.741 0.169 1.117 0.238v-6.271h-338.02z" style="fill:url(#SVGID_00000154397808199632626800000006488338151073896639_)"/>
				
					<linearGradient id="SVGID_00000117661765672445391080000016698248564653067171_" x1="567.97" x2="905.98" y1="713.42" y2="713.42" gradientUnits="userSpaceOnUse">
					<stop style="stop-color:#505050" offset="0"/>
					<stop style="stop-color:#484848" offset=".00082895"/>
					<stop style="stop-color:#323232" offset=".0039"/>
					<stop style="stop-color:#242424" offset=".0068"/>
					<stop style="stop-color:#1F1F1F" offset=".0093"/>
					<stop style="stop-color:#222" offset=".0129"/>
					<stop style="stop-color:#2C2C2C" offset=".0159"/>
					<stop style="stop-color:#373737" offset=".0178"/>
					<stop style="stop-color:#565656" offset=".0253"/>
					<stop style="stop-color:#5E5E5E" offset=".4016"/>
					<stop style="stop-color:#5E5E5E" offset=".4064"/>
					<stop style="stop-color:#444" offset=".9354"/>
					<stop style="stop-color:#222" offset=".9589"/>
					<stop style="stop-color:#121212" offset=".9731"/>
					<stop style="stop-color:#171717" offset=".9791"/>
					<stop style="stop-color:#252525" offset=".9862"/>
					<stop style="stop-color:#3D3D3D" offset=".9939"/>
					<stop style="stop-color:#565656" offset="1"/>
				</linearGradient>
				<path d="m905.98 710.28v4.827h-327.33c-3.225 0-6.426 0.459-9.566 1.207-0.369 0.09-0.741 0.169-1.117 0.238v-6.271h338.01z" style="fill:url(#SVGID_00000117661765672445391080000016698248564653067171_)"/>
				
					<linearGradient id="SVGID_00000004538953480785874210000001433305141811265715_" x1="431.99" x2="567.97" y1="713.61" y2="713.61" gradientUnits="userSpaceOnUse">
					<stop style="stop-color:#565656" offset="0"/>
					<stop style="stop-color:#444" offset=".0612"/>
					<stop style="stop-color:#565656" offset=".5076"/>
					<stop style="stop-color:#444" offset=".9402"/>
					<stop style="stop-color:#565656" offset="1"/>
				</linearGradient>
				<path d="m567.97 710.28v6.271c-1.394 0.259-2.812 0.393-4.237 0.393h-127.51c-1.425 0-2.843-0.135-4.237-0.393v-6.271z" style="fill:url(#SVGID_00000004538953480785874210000001433305141811265715_)"/>
			
			
				<linearGradient id="SVGID_00000145769796568174206500000012060106475571531455_" x1="-5878.4" x2="-5540.4" y1="712.72" y2="712.72" gradientTransform="matrix(-1 0 0 1 -5446.4 0)" gradientUnits="userSpaceOnUse">
				<stop style="stop-color:#A7A7A7" offset="0"/>
				<stop style="stop-color:#8E8E8E" offset=".0014"/>
				<stop style="stop-color:#6F6F6F" offset=".0035"/>
				<stop style="stop-color:#585858" offset=".0056"/>
				<stop style="stop-color:#4A4A4A" offset=".0076"/>
				<stop style="stop-color:#454545" offset=".0093"/>
				<stop style="stop-color:#484848" offset=".012"/>
				<stop style="stop-color:#525252" offset=".0142"/>
				<stop style="stop-color:#636363" offset=".0163"/>
				<stop style="stop-color:#757575" offset=".0178"/>
				<stop style="stop-color:#6B6968" offset=".0253"/>
				<stop style="stop-color:#6B6968" offset=".4016"/>
				<stop style="stop-color:#6B6968" offset=".4064"/>
				<stop style="stop-color:#8D8D8D" offset=".9354"/>
				<stop style="stop-color:#636363" offset=".9494"/>
				<stop style="stop-color:#3B3B3B" offset=".965"/>
				<stop style="stop-color:#2B2B2B" offset=".9731"/>
				<stop style="stop-color:#303030" offset=".9793"/>
				<stop style="stop-color:#3E3E3E" offset=".9867"/>
				<stop style="stop-color:#565554" offset=".9946"/>
				<stop style="stop-color:#6B6968" offset="1"/>
			</linearGradient>
			<path d="m93.974 709.58v4.827h327.33c3.225 0 6.426 0.458 9.566 1.207 0.369 0.09 0.741 0.169 1.117 0.238v-6.271h-338.02z" style="fill:url(#SVGID_00000145769796568174206500000012060106475571531455_)"/>
			
				<linearGradient id="SVGID_00000168831854424243935350000014597738881297520515_" x1="500.02" x2="500.02" y1="708.5" y2="265.38" gradientUnits="userSpaceOnUse">
				<stop style="stop-color:#504E4E" offset="0"/>
				<stop style="stop-color:#585656" offset=".0946"/>
				<stop style="stop-color:#6E6B6B" offset=".2407"/>
				<stop style="stop-color:#918E8E" offset=".4192"/>
				<stop style="stop-color:#979494" offset=".447"/>
				<stop style="stop-color:#7B7878" offset="1"/>
			</linearGradient>
			<path d="m811.82 265.38h-623.56c-11.174 0-20.234 9.06-20.234 20.234v422.88h2.893v-425.78c0-0.893 0.069-1.772 0.2-2.631 0.041-0.286 0.093-0.569 0.152-0.851 0.059-0.279 0.12-0.559 0.193-0.835 0.072-0.276 0.148-0.551 0.234-0.82 0.717-2.303 1.903-4.399 3.444-6.178 0.179-0.21 0.366-0.414 0.558-0.614 0.093-0.1 0.19-0.197 0.29-0.297 0.883-0.879 1.858-1.669 2.91-2.344 0.352-0.224 0.71-0.438 1.079-0.638 0.365-0.2 0.741-0.386 1.124-0.559 0 0 0-3e-3 3e-3 -3e-3 0.255-0.114 0.514-0.221 0.772-0.324 0 0 0-4e-3 4e-3 -4e-3 1.962-0.772 4.103-1.2 6.337-1.2h623.56c2.979 0 5.789 0.759 8.24 2.089 0.365 0.2 0.727 0.414 1.079 0.638 0.466 0.3 0.917 0.624 1.355 0.962l3e-3 3e-3c0.217 0.172 0.431 0.348 0.638 0.528 3e-3 0 3e-3 0 3e-3 3e-3 0.314 0.272 0.617 0.555 0.91 0.848 0.1 0.1 0.197 0.197 0.29 0.297 0.193 0.2 0.379 0.403 0.559 0.614 2.631 3.034 4.223 6.992 4.223 11.315v425.78h2.93v-424.15c-0.655-10.581-9.443-18.962-20.189-18.962z" style="fill:url(#SVGID_00000168831854424243935350000014597738881297520515_)"/>
			
				<linearGradient id="SVGID_00000113326354682061381610000007627909961975644313_" x1="500" x2="500" y1="285.62" y2="262.49" gradientUnits="userSpaceOnUse">
				<stop style="stop-color:#1A1A1A" offset="0"/>
				<stop style="stop-color:#1D1D1D" offset=".2805"/>
				<stop style="stop-color:#252525" offset=".4483"/>
				<stop style="stop-color:#333" offset=".5865"/>
				<stop style="stop-color:#474747" offset=".7086"/>
				<stop style="stop-color:#626262" offset=".8201"/>
				<stop style="stop-color:#818181" offset=".9223"/>
				<stop style="stop-color:#9F9F9F" offset="1"/>
			</linearGradient>
			<path d="m167.99 282.72c0-11.174 9.061-20.234 20.234-20.234h623.56c11.174 0 20.231 9.06 20.231 20.234v1.62c-0.655-10.581-9.443-18.962-20.19-18.962h-623.56c-11.174 0-20.234 9.06-20.234 20.234z" style="fill:url(#SVGID_00000113326354682061381610000007627909961975644313_)"/>
			<rect x="170.92" y="694.29" width="658.16" height="14.208"/>
			<path d="m188.22 265.42c-9.539 0-17.299 7.7588-17.299 17.299v411.57h658.15v-411.57c0-9.539-7.7588-17.299-17.299-17.299zm-3.6856 25.209h630.93v395.79h-630.93z"/>
			
				<linearGradient id="SVGID_00000053520305911380807250000012336449790574713520_" x1="567.97" x2="905.98" y1="712.72" y2="712.72" gradientUnits="userSpaceOnUse">
				<stop style="stop-color:#818181" offset="0"/>
				<stop style="stop-color:#696969" offset=".0013"/>
				<stop style="stop-color:#4A4A4A" offset=".0035"/>
				<stop style="stop-color:#333" offset=".0056"/>
				<stop style="stop-color:#252525" offset=".0075"/>
				<stop style="stop-color:#202020" offset=".0093"/>
				<stop style="stop-color:#232323" offset=".012"/>
				<stop style="stop-color:#2D2D2D" offset=".0143"/>
				<stop style="stop-color:#3E3E3E" offset=".0163"/>
				<stop style="stop-color:#4F4F4F" offset=".0178"/>
				<stop style="stop-color:#6B6968" offset=".0253"/>
				<stop style="stop-color:#6B6968" offset=".4016"/>
				<stop style="stop-color:#6B6968" offset=".4064"/>
				<stop style="stop-color:#686868" offset=".9354"/>
				<stop style="stop-color:#4B4B4B" offset=".9464"/>
				<stop style="stop-color:#232323" offset=".964"/>
				<stop style="stop-color:#131313" offset=".9731"/>
				<stop style="stop-color:#181818" offset=".9783"/>
				<stop style="stop-color:#262626" offset=".9844"/>
				<stop style="stop-color:#3E3D3D" offset=".991"/>
				<stop style="stop-color:#605E5D" offset=".9979"/>
				<stop style="stop-color:#6B6968" offset="1"/>
			</linearGradient>
			<path d="m905.98 709.58v4.827h-327.33c-3.225 0-6.426 0.458-9.566 1.207-0.369 0.09-0.741 0.169-1.117 0.238v-6.271h338.01z" style="fill:url(#SVGID_00000053520305911380807250000012336449790574713520_)"/>
			
				<linearGradient id="SVGID_00000161621181880544278030000005889936264450390663_" x1="431.99" x2="567.97" y1="712.91" y2="712.91" gradientUnits="userSpaceOnUse">
				<stop style="stop-color:#838180" offset="0"/>
				<stop style="stop-color:#6B6968" offset=".0612"/>
				<stop style="stop-color:#838180" offset=".5076"/>
				<stop style="stop-color:#6B6968" offset=".9402"/>
				<stop style="stop-color:#838180" offset="1"/>
			</linearGradient>
			<path d="m567.97 709.58v6.271c-1.394 0.259-2.812 0.393-4.237 0.393h-127.51c-1.425 0-2.843-0.134-4.237-0.393v-6.271z" style="fill:url(#SVGID_00000161621181880544278030000005889936264450390663_)"/>
			<polygon points="168.03 709.58 168.03 708.5 832.01 708.5 832.01 709.58 829.08 709.58 829.08 709.58 170.92 709.58 170.92 709.58" style="fill:#131313"/>
		</g><rect x="90.564" y="28.142" width="630.92" height="395.79" style="fill:none;stroke:#272727"/>
<path d="m76.95 431.8h658.15" style="fill:#333;stroke:#272727"/></svg>
