<?xml version="1.0" encoding="UTF-8" standalone="no"?>
<svg
   width="95"
   height="74"
   viewBox="0 0 95 74"
   fill="none"
   version="1.1"
   id="svg8"
   sodipodi:docname="Quassel Icon.svg"
   inkscape:version="1.4 (e7c3feb1, 2024-10-09)"
   xmlns:inkscape="http://www.inkscape.org/namespaces/inkscape"
   xmlns:sodipodi="http://sodipodi.sourceforge.net/DTD/sodipodi-0.dtd"
   xmlns="http://www.w3.org/2000/svg"
   xmlns:svg="http://www.w3.org/2000/svg">
  <defs
     id="defs8" />
  <sodipodi:namedview
     id="namedview8"
     pagecolor="#ffffff"
     bordercolor="#000000"
     borderopacity="0.25"
     inkscape:showpageshadow="2"
     inkscape:pageopacity="0.0"
     inkscape:pagecheckerboard="0"
     inkscape:deskcolor="#d1d1d1"
     inkscape:zoom="21.226421"
     inkscape:cx="15.87644"
     inkscape:cy="51.492431"
     inkscape:window-width="1904"
     inkscape:window-height="1091"
     inkscape:window-x="0"
     inkscape:window-y="25"
     inkscape:window-maximized="0"
     inkscape:current-layer="svg8" />
  <path
     d="M44.5 50.7298C44.5 61.6742 35.2015 70.7298 23.5 70.7298C11.7985 70.7298 2.5 61.6742 2.5 50.7298C2.5 39.7855 11.7985 30.7298 23.5 30.7298C35.2015 30.7298 44.5 39.7855 44.5 50.7298Z"
     stroke="#2294CF"
     stroke-width="5"
     id="path1" />
  <path
     d="m 32,24.723671 c 0,-1.1867 -0.4692,-2.3467 -1.3482,-3.3334 -0.8791,-0.9867 -2.1285,-1.7557 -3.5903,-2.2099 -1.4618,-0.4541 -3.0704,-0.5729 -4.6222,-0.3414 -1.5519,0.2315 -2.9773,0.803 -4.0962,1.6421 -1.1188,0.8391 -1.8807,1.9082 -2.1894,3.0721 -0.3087,1.1639 -0.1502,2.3703 0.4553,3.4666 0.6055,1.0964 1.6308,2.0334 2.9464,2.6927 1.3156,0.6593 2.8623,1.0112 4.4446,1.0112"
     stroke="#2294cf"
     stroke-width="5"
     id="path2" />
  <path
     d="M32 53.2298C32 54.2804 31.7801 55.3207 31.353 56.2913C30.9258 57.2619 30.2997 58.1438 29.5104 58.8867C28.7211 59.6296 27.7841 60.2188 26.7528 60.6209C25.7215 61.0229 24.6162 61.2298 23.5 61.2298C22.3838 61.2298 21.2785 61.0229 20.2472 60.6209C19.2159 60.2188 18.2789 59.6296 17.4896 58.8867C16.7003 58.1438 16.0742 57.2619 15.647 56.2913C15.2199 55.3207 15 54.2804 15 53.2298"
     stroke="#2294CF"
     stroke-width="5"
     id="path3" />
  <path
     d="M92.5 16.2558C92.5 8.65867 86.3413 2.5 78.7442 2.5H54.2558C46.6587 2.5 40.5 8.65867 40.5 16.2558C40.5 23.7313 46.4568 29.1471 54.012 28.594C54.7755 28.5381 55.4707 28.5 56 28.5C56.9432 28.5 57.8206 28.9763 58.3255 29.798C58.712 30.4269 58.7553 31.0575 58.7616 31.3543C58.7752 31.9938 58.621 32.6547 58.4923 33.128C58.4114 33.4259 58.3129 33.7441 58.203 34.073C59.0394 33.6426 59.9127 33.1982 60.7865 32.7583C62.8212 31.7339 64.8764 30.7248 66.4893 29.9683C67.2925 29.5915 68.0074 29.2673 68.5634 29.0331C68.8381 28.9174 69.1041 28.811 69.3369 28.7292C69.4518 28.6889 69.5896 28.6435 69.7342 28.6053L69.7366 28.6047C69.8296 28.5801 70.1328 28.5 70.5 28.5C74.6765 28.5 77.1496 28.6521 79.0892 28.8711C86.3845 29.6948 92.5 23.89 92.5 16.2558Z"
     stroke="#2294CF"
     stroke-width="5"
     id="path4" />
  <mask
     id="path-5-inside-1_37_75"
     fill="white">
    <path
       fill-rule="evenodd"
       clip-rule="evenodd"
       d="M59.6285 17.2306L65.716 23.2313L65.716 23.2313L65.716 23.2313L71.8035 17.2306C73.3317 15.7242 73.3317 13.2818 71.8035 11.7754C70.2753 10.269 67.7976 10.269 66.2694 11.7754L65.716 12.3209L65.1626 11.7754C63.6344 10.269 61.1567 10.269 59.6285 11.7754C58.1003 13.2818 58.1003 15.7242 59.6285 17.2306Z"
       id="path5" />
  </mask>
  <path
     fill-rule="evenodd"
     clip-rule="evenodd"
     d="M59.6285 17.2306L65.716 23.2313L65.716 23.2313L65.716 23.2313L71.8035 17.2306C73.3317 15.7242 73.3317 13.2818 71.8035 11.7754C70.2753 10.269 67.7976 10.269 66.2694 11.7754L65.716 12.3209L65.1626 11.7754C63.6344 10.269 61.1567 10.269 59.6285 11.7754C58.1003 13.2818 58.1003 15.7242 59.6285 17.2306Z"
     fill="#2294CF"
     id="path6" />
  <path
     d="M65.716 23.2313L62.632 26.3599L65.7382 29.4219L68.8224 26.3377L65.716 23.2313ZM59.6285 17.2306L56.5445 20.3592L59.6285 17.2306ZM65.716 23.2313L68.8002 20.1029L65.694 17.0406L62.6097 20.125L65.716 23.2313ZM65.716 23.2313L62.6319 26.3597L65.7158 29.4001L68.8 26.3599L65.716 23.2313ZM71.8035 17.2306L74.8875 20.3592L74.8875 20.3592L71.8035 17.2306ZM71.8035 11.7754L74.8875 8.64682L74.8875 8.64682L71.8035 11.7754ZM66.2694 11.7754L69.3534 14.904L69.3534 14.904L66.2694 11.7754ZM65.716 12.3209L62.632 15.4495L65.716 18.4895L68.8 15.4495L65.716 12.3209ZM65.1626 11.7754L62.0786 14.904L62.0786 14.904L65.1626 11.7754ZM59.6285 11.7754L56.5445 8.64682L59.6285 11.7754ZM68.8 20.1028L62.7125 14.102L56.5445 20.3592L62.632 26.3599L68.8 20.1028ZM62.6097 20.125L62.6096 20.125L68.8224 26.3377L68.8224 26.3377L62.6097 20.125ZM68.8002 20.103L68.8002 20.1029L62.6318 26.3597L62.6319 26.3597L68.8002 20.103ZM68.7196 14.102L62.6321 20.1028L68.8 26.3599L74.8875 20.3592L68.7196 14.102ZM68.7196 14.904C68.5023 14.6898 68.5023 14.3162 68.7196 14.102L74.8875 20.3592C78.1612 17.1322 78.1612 11.8738 74.8875 8.64682L68.7196 14.904ZM69.3534 14.904C69.2562 14.9999 69.1327 15.0387 69.0365 15.0387C68.9403 15.0387 68.8168 14.9999 68.7196 14.904L74.8875 8.64682C71.649 5.45443 66.424 5.45444 63.1855 8.64683L69.3534 14.904ZM68.8 15.4495L69.3534 14.904L63.1855 8.64682L62.632 9.19236L68.8 15.4495ZM62.0786 14.904L62.632 15.4495L68.8 9.19236L68.2466 8.64682L62.0786 14.904ZM62.7125 14.904C62.6152 14.9999 62.4918 15.0387 62.3956 15.0387C62.2993 15.0387 62.1759 14.9999 62.0786 14.904L68.2466 8.64682C65.008 5.45443 59.7831 5.45443 56.5445 8.64682L62.7125 14.904ZM62.7125 14.102C62.9297 14.3162 62.9297 14.6898 62.7125 14.904L56.5445 8.64682C53.2709 11.8738 53.2709 17.1322 56.5445 20.3592L62.7125 14.102Z"
     fill="#2294CF"
     mask="url(#path-5-inside-1_37_75)"
     id="path7" />
  <line
     x1="15.5"
     y1="43"
     x2="15.5"
     y2="47"
     stroke="#2294CF"
     stroke-width="5"
     id="line7" />
  <line
     x1="31.5"
     y1="43"
     x2="31.5"
     y2="47"
     stroke="#2294CF"
     stroke-width="5"
     id="line8" />
</svg>
