<svg width="161" height="24" viewBox="0 0 161 24" fill="none" xmlns="http://www.w3.org/2000/svg">
<g clip-path="url(#clip0_74_98)">
<path d="M56.8361 14.4662C56.8361 17.8262 54.1861 20.0362 50.6761 20.0362C47.1661 20.0362 44.5461 17.8262 44.5461 14.4662C44.5461 11.1062 47.1761 8.89624 50.7061 8.89624C54.2361 8.89624 56.8361 11.0962 56.8361 14.4662ZM54.4961 14.4662C54.5422 13.7002 54.3571 12.938 53.9648 12.2784C53.5725 11.6188 52.9911 11.0923 52.296 10.7671C51.6008 10.4419 50.824 10.333 50.0663 10.4546C49.3085 10.5762 48.6048 10.9226 48.0463 11.449C47.4878 11.9753 47.1003 12.6573 46.934 13.4065C46.7678 14.1557 46.8304 14.9376 47.1138 15.6508C47.3973 16.3639 47.8884 16.9755 48.5236 17.4062C49.1588 17.8369 49.9087 18.0669 50.6761 18.0662C51.1741 18.1178 51.6773 18.0623 52.152 17.9034C52.6267 17.7445 53.062 17.4859 53.4285 17.1449C53.795 16.8039 54.0844 16.3885 54.2772 15.9265C54.4699 15.4645 54.5616 14.9666 54.5461 14.4662H54.4961Z" fill="#221F20"/>
<path d="M65.4161 20.0361C64.7374 20.0565 64.0619 19.9345 63.4333 19.6779C62.8046 19.4212 62.2367 19.0357 61.7661 18.5461V23.9261H59.5461V9.22613H61.7961V10.4461C62.2602 9.94419 62.8255 9.54647 63.4547 9.27927C64.0839 9.01208 64.7627 8.88148 65.4461 8.89613C69.0161 8.89613 71.3161 11.0761 71.3161 14.4661C71.3161 17.8561 68.8561 20.0361 65.4161 20.0361ZM65.1761 10.8661C62.9461 10.8661 61.5961 11.9261 61.5961 14.4661C61.5961 17.0061 62.9461 18.0661 65.1761 18.0661C65.6651 18.0981 66.1554 18.0281 66.6159 17.8608C67.0764 17.6934 67.4972 17.4323 67.8516 17.0939C68.2059 16.7555 68.4862 16.3472 68.6746 15.8949C68.863 15.4425 68.9555 14.956 68.9461 14.4661C68.9715 13.972 68.89 13.4781 68.7071 13.0184C68.5242 12.5586 68.2442 12.1437 67.8864 11.8019C67.5285 11.4602 67.1011 11.1997 66.6334 11.0382C66.1657 10.8767 65.6686 10.818 65.1761 10.8661Z" fill="#221F20"/>
<path d="M84.3461 15.106H75.8361C75.9388 15.9623 76.3622 16.7479 77.0209 17.3045C77.6796 17.8612 78.5247 18.1476 79.3861 18.106C80.7837 18.1256 82.1622 17.781 83.3861 17.106V19.106C82.1404 19.7065 80.7684 19.9981 79.3861 19.956C78.6347 19.9944 77.8834 19.8782 77.1787 19.6146C76.474 19.351 75.8309 18.9457 75.2891 18.4236C74.7473 17.9015 74.3185 17.2738 74.029 16.5793C73.7395 15.8848 73.5956 15.1384 73.6061 14.386C73.5693 13.6651 73.6802 12.9443 73.9319 12.2677C74.1837 11.5912 74.5709 10.9732 75.07 10.4517C75.5691 9.93011 76.1694 9.51602 76.8342 9.23476C77.499 8.95351 78.2143 8.81102 78.9361 8.81605C82.1561 8.81605 84.3361 10.756 84.3361 14.606L84.3461 15.106ZM82.1461 13.326C82.1027 12.9496 81.9854 12.5854 81.801 12.2543C81.6165 11.9233 81.3686 11.6319 81.0713 11.3968C80.774 11.1618 80.4333 10.9877 80.0686 10.8846C79.7039 10.7816 79.3225 10.7514 78.9461 10.796C78.2304 10.8051 77.5401 11.0622 76.9929 11.5237C76.4458 11.9851 76.0758 12.6221 75.9461 13.326H82.1461Z" fill="#221F20"/>
<path d="M95.0261 19.7261V13.0261C95.0261 11.5761 94.4861 10.8661 92.7961 10.8661C90.5961 10.8661 89.2861 11.9361 89.2861 13.7161V19.7161H87.0361V9.22609H89.2861V10.4861C89.716 9.97662 90.2542 9.56951 90.8615 9.29444C91.4687 9.01937 92.1296 8.88328 92.7961 8.89609C95.6861 8.89609 97.2761 10.3261 97.2761 12.7661V19.7661L95.0261 19.7261Z" fill="#221F20"/>
<path d="M109.116 16.9961C109.116 18.9461 107.506 19.9961 104.116 19.9961C102.712 20.0343 101.318 19.7432 100.046 19.1461V17.0961C101.289 17.7879 102.694 18.1333 104.116 18.0961C106.116 18.0961 106.806 17.6961 106.806 16.9561C106.806 16.0161 105.686 15.6561 103.806 15.1361C101.926 14.6161 100.066 13.8061 100.066 11.7061C100.066 9.90605 101.786 8.85605 104.846 8.85605C106.15 8.81217 107.445 9.09037 108.616 9.66606V11.7761C107.498 11.0747 106.195 10.7262 104.876 10.7761C103.446 10.7761 102.376 11.0561 102.376 11.7761C102.376 12.4961 103.116 12.7761 105.086 13.4061C107.056 14.0361 109.116 14.5461 109.116 16.9961Z" fill="#221F20"/>
<path d="M121.036 9.74615V11.8661C120.002 11.208 118.801 10.8608 117.576 10.8661C115.346 10.8661 113.696 12.1161 113.696 14.4661C113.696 16.8161 115.376 18.0661 117.576 18.0661C118.8 18.0621 119.999 17.7158 121.036 17.0661V19.2161C119.968 19.7724 118.78 20.0574 117.576 20.0461C113.926 20.0461 111.366 17.7961 111.366 14.4761C111.366 10.9761 113.836 8.90615 117.576 8.90615C118.783 8.87816 119.976 9.16784 121.036 9.74615Z" fill="#221F20"/>
<path d="M130.956 9.22608V11.4061C130.43 11.1153 129.838 10.9638 129.236 10.9661C128.802 10.9118 128.362 10.9555 127.947 11.0941C127.533 11.2327 127.155 11.4626 126.841 11.7669C126.527 12.0711 126.286 12.442 126.134 12.852C125.983 13.2621 125.925 13.7009 125.966 14.1361V19.7261H123.716V9.22608H125.966V10.6961C126.322 10.1463 126.809 9.69381 127.383 9.37954C127.958 9.06526 128.601 8.8991 129.256 8.89608C129.841 8.87377 130.422 8.9867 130.956 9.22608Z" fill="#221F20"/>
<path d="M134.326 7.54614C134.056 7.54809 133.791 7.46949 133.566 7.32036C133.34 7.17123 133.165 6.95834 133.061 6.70884C132.957 6.45934 132.93 6.18456 132.983 5.91955C133.036 5.65454 133.166 5.41132 133.358 5.22094C133.55 5.03055 133.794 4.90163 134.06 4.85062C134.325 4.79961 134.6 4.82882 134.848 4.93454C135.097 5.04025 135.309 5.21767 135.456 5.44415C135.603 5.67064 135.68 5.93591 135.676 6.20614C135.674 6.56244 135.53 6.90326 135.277 7.15427C135.024 7.40529 134.682 7.54615 134.326 7.54614ZM133.206 9.21614H135.456V19.7161H133.206V9.21614Z" fill="#221F20"/>
<path d="M144.546 20.0362C143.869 20.0552 143.196 19.9324 142.569 19.6759C141.942 19.4193 141.376 19.0345 140.906 18.5462V23.9262H138.656V9.22617H140.906V10.4462C141.369 9.94551 141.933 9.54854 142.56 9.28139C143.188 9.01423 143.864 8.88295 144.546 8.89617C148.106 8.89617 150.406 11.0762 150.406 14.4662C150.406 17.8562 147.996 20.0362 144.546 20.0362ZM144.306 10.8662C142.066 10.8662 140.716 11.9262 140.716 14.4662C140.716 17.0062 142.066 18.0662 144.306 18.0662C144.795 18.0981 145.285 18.0282 145.746 17.8608C146.206 17.6934 146.627 17.4323 146.982 17.0939C147.336 16.7555 147.616 16.3472 147.805 15.8949C147.993 15.4426 148.085 14.9561 148.076 14.4662C148.101 13.9729 148.02 13.48 147.838 13.021C147.655 12.562 147.376 12.1477 147.02 11.8061C146.663 11.4645 146.237 11.2038 145.77 11.0416C145.304 10.8794 144.808 10.8196 144.316 10.8662H144.306Z" fill="#221F20"/>
<path d="M160.426 17.2161V19.3961C159.539 19.8581 158.546 20.0788 157.546 20.0361C155.056 20.0361 153.816 18.7561 153.816 16.2161V11.1561H151.716V9.22613H153.816V6.78613H156.066V9.22613H159.786V11.1561H156.066V16.3161C156.066 17.4561 156.596 18.0661 157.756 18.0661C158.711 18.0583 159.642 17.7621 160.426 17.2161Z" fill="#221F20"/>
<path d="M19.0161 0.666155C10.0161 -1.43385 1.54612 1.59615 0.186119 7.43615C-1.17388 13.2762 5.06612 19.7062 14.1061 21.8062C14.5161 21.9062 14.9261 21.9762 15.3361 22.0562L9.90612 12.4462L11.6861 11.4462L16.4861 19.9362V7.61615H18.4861V19.9762L22.3161 13.1862L24.1061 14.1862L19.4361 22.4662C26.2361 22.5562 31.8161 19.6962 32.8961 15.0462C34.2961 9.20615 28.0661 2.76615 19.0161 0.666155Z" fill="#539350"/>
</g>
<defs>
<clipPath id="clip0_74_98">
<rect width="160.426" height="23.9262" fill="white"/>
</clipPath>
</defs>
</svg>
