<?xml version="1.0" encoding="UTF-8" standalone="no"?>
<svg
   id="Layer_1"
   data-name="Layer 1"
   viewBox="0 0 141.42599 48.182998"
   version="1.1"
   width="141.42599"
   height="48.182999"
   xml:space="preserve"
   xmlns="http://www.w3.org/2000/svg"
   xmlns:svg="http://www.w3.org/2000/svg"
   xmlns:rdf="http://www.w3.org/1999/02/22-rdf-syntax-ns#"
   xmlns:cc="http://creativecommons.org/ns#"
   xmlns:dc="http://purl.org/dc/elements/1.1/"><metadata
     id="metadata33"><rdf:RDF><cc:Work
         rdf:about=""><dc:format>image/svg+xml</dc:format><dc:type
           rdf:resource="http://purl.org/dc/dcmitype/StillImage" /><dc:title>Openscript_Secondary Logo</dc:title></cc:Work></rdf:RDF></metadata><defs
     id="defs4"><style
       id="style2">.cls-1{fill:#221f20;}.cls-2{fill:#539350;}</style><clipPath
       id="clip0_74_98"><rect
         width="160.42599"
         height="23.926201"
         fill="#ffffff"
         id="rect11"
         x="0"
         y="0" /></clipPath></defs><title
     id="title6">Openscript_Secondary Logo</title><g
     style="fill:none"
     id="g1"
     transform="matrix(0.80000002,0,0,0.80000002,-4.7915654e-6,-1.540822e-8)"><g
       id="g12"
       transform="translate(0,17.365649)"><g
         clip-path="url(#clip0_74_98)"
         id="g11"><path
           d="m 56.8361,14.4662 c 0,3.36 -2.65,5.57 -6.16,5.57 -3.51,0 -6.13,-2.21 -6.13,-5.57 0,-3.36 2.63,-5.56996 6.16,-5.56996 3.53,0 6.13,2.19996 6.13,5.56996 z m -2.34,0 c 0.0461,-0.766 -0.139,-1.5282 -0.5313,-2.1878 -0.3923,-0.6596 -0.9737,-1.1861 -1.6688,-1.5113 -0.6952,-0.3252 -1.472,-0.4341 -2.2297,-0.3125 -0.7578,0.1216 -1.4615,0.468 -2.02,0.9944 -0.5585,0.5263 -0.946,1.2083 -1.1123,1.9575 -0.1662,0.7492 -0.1036,1.5311 0.1798,2.2443 0.2835,0.7131 0.7746,1.3247 1.4098,1.7554 0.6352,0.4307 1.3851,0.6607 2.1525,0.66 0.498,0.0516 1.0012,-0.0039 1.4759,-0.1628 0.4747,-0.1589 0.91,-0.4175 1.2765,-0.7585 0.3665,-0.341 0.6559,-0.7564 0.8487,-1.2184 0.1927,-0.462 0.2844,-0.9599 0.2689,-1.4603 z"
           fill="#221f20"
           id="path1" /><path
           d="m 65.4161,20.0361 c -0.6787,0.0204 -1.3542,-0.1016 -1.9828,-0.3582 -0.6287,-0.2567 -1.1966,-0.6422 -1.6672,-1.1318 v 5.38 h -2.22 V 9.22613 h 2.25 v 1.21997 c 0.4641,-0.50191 1.0294,-0.89963 1.6586,-1.16683 0.6292,-0.26719 1.308,-0.39779 1.9914,-0.38314 3.57,0 5.87,2.17997 5.87,5.56997 0,3.39 -2.46,5.57 -5.9,5.57 z m -0.24,-9.17 c -2.23,0 -3.58,1.06 -3.58,3.6 0,2.54 1.35,3.6 3.58,3.6 0.489,0.032 0.9793,-0.038 1.4398,-0.2053 0.4605,-0.1674 0.8813,-0.4285 1.2357,-0.7669 0.3543,-0.3384 0.6346,-0.7467 0.823,-1.199 0.1884,-0.4524 0.2809,-0.9389 0.2715,-1.4288 0.0254,-0.4941 -0.0561,-0.988 -0.239,-1.4477 -0.1829,-0.4598 -0.4629,-0.8747 -0.8207,-1.2165 -0.3579,-0.3417 -0.7853,-0.6022 -1.253,-0.7637 -0.4677,-0.1615 -0.9648,-0.2202 -1.4573,-0.1721 z"
           fill="#221f20"
           id="path2" /><path
           d="m 84.3461,15.106 h -8.51 c 0.1027,0.8563 0.5261,1.6419 1.1848,2.1985 0.6587,0.5567 1.5038,0.8431 2.3652,0.8015 1.3976,0.0196 2.7761,-0.325 4,-1 v 2 c -1.2457,0.6005 -2.6177,0.8921 -4,0.85 -0.7514,0.0384 -1.5027,-0.0778 -2.2074,-0.3414 -0.7047,-0.2636 -1.3478,-0.6689 -1.8896,-1.191 -0.5418,-0.5221 -0.9706,-1.1498 -1.2601,-1.8443 -0.2895,-0.6945 -0.4334,-1.4409 -0.4229,-2.1933 -0.0368,-0.7209 0.0741,-1.4417 0.3258,-2.1183 0.2518,-0.6765 0.639,-1.2945 1.1381,-1.816 0.4991,-0.52159 1.0994,-0.93568 1.7642,-1.21694 0.6648,-0.28125 1.3801,-0.42374 2.1019,-0.41871 3.22,0 5.4,1.93995 5.4,5.78995 z m -2.2,-1.78 c -0.0434,-0.3764 -0.1607,-0.7406 -0.3451,-1.0717 -0.1845,-0.331 -0.4324,-0.6224 -0.7297,-0.8575 -0.2973,-0.235 -0.638,-0.4091 -1.0027,-0.5122 -0.3647,-0.103 -0.7461,-0.1332 -1.1225,-0.0886 -0.7157,0.0091 -1.406,0.2662 -1.9532,0.7277 -0.5471,0.4614 -0.9171,1.0984 -1.0468,1.8023 z"
           fill="#221f20"
           id="path3" /><path
           d="m 95.0261,19.7261 v -6.7 c 0,-1.45 -0.54,-2.16 -2.23,-2.16 -2.2,0 -3.51,1.07 -3.51,2.85 v 6 h -2.25 V 9.22609 h 2.25 v 1.26001 c 0.4299,-0.50948 0.9681,-0.91659 1.5754,-1.19166 0.6072,-0.27507 1.2681,-0.41116 1.9346,-0.39835 2.89,0 4.48,1.43001 4.48,3.87001 v 7 z"
           fill="#221f20"
           id="path4" /><path
           d="m 109.116,16.9961 c 0,1.95 -1.61,3 -5,3 -1.404,0.0382 -2.798,-0.2529 -4.07,-0.85 v -2.05 c 1.243,0.6918 2.648,1.0372 4.07,1 2,0 2.69,-0.4 2.69,-1.14 0,-0.94 -1.12,-1.3 -3,-1.82 -1.88,-0.52 -3.74,-1.33 -3.74,-3.43 0,-1.80005 1.72,-2.85005 4.78,-2.85005 1.304,-0.04388 2.599,0.23432 3.77,0.81001 v 2.11004 c -1.118,-0.7014 -2.421,-1.0499 -3.74,-1 -1.43,0 -2.5,0.28 -2.5,1 0,0.72 0.74,1 2.71,1.63 1.97,0.63 4.03,1.14 4.03,3.59 z"
           fill="#221f20"
           id="path5" /><path
           d="m 121.036,9.74615 v 2.11995 c -1.034,-0.6581 -2.235,-1.0053 -3.46,-1 -2.23,0 -3.88,1.25 -3.88,3.6 0,2.35 1.68,3.6 3.88,3.6 1.224,-0.004 2.423,-0.3503 3.46,-1 v 2.15 c -1.068,0.5563 -2.256,0.8413 -3.46,0.83 -3.65,0 -6.21,-2.25 -6.21,-5.57 0,-3.5 2.47,-5.56995 6.21,-5.56995 1.207,-0.02799 2.4,0.26169 3.46,0.84 z"
           fill="#221f20"
           id="path6" /><path
           d="m 130.956,9.22608 v 2.18002 c -0.526,-0.2908 -1.118,-0.4423 -1.72,-0.44 -0.434,-0.0543 -0.874,-0.0106 -1.289,0.128 -0.414,0.1386 -0.792,0.3685 -1.106,0.6728 -0.314,0.3042 -0.555,0.6751 -0.707,1.0851 -0.151,0.4101 -0.209,0.8489 -0.168,1.2841 v 5.59 h -2.25 V 9.22608 h 2.25 v 1.47002 c 0.356,-0.5498 0.843,-1.00229 1.417,-1.31656 0.575,-0.31428 1.218,-0.48044 1.873,-0.48346 0.585,-0.02231 1.166,0.09062 1.7,0.33 z"
           fill="#221f20"
           id="path7" /><path
           d="m 134.326,7.54614 c -0.27,0.00195 -0.535,-0.07665 -0.76,-0.22578 -0.226,-0.14913 -0.401,-0.36202 -0.505,-0.61152 -0.104,-0.2495 -0.131,-0.52428 -0.078,-0.78929 0.053,-0.26501 0.183,-0.50823 0.375,-0.69861 0.192,-0.19039 0.436,-0.31931 0.702,-0.37032 0.265,-0.05101 0.54,-0.0218 0.788,0.08392 0.249,0.10571 0.461,0.28313 0.608,0.50961 0.147,0.22649 0.224,0.49176 0.22,0.76199 -0.002,0.3563 -0.146,0.69712 -0.399,0.94813 -0.253,0.25102 -0.595,0.39188 -0.951,0.39187 z m -1.12,1.67 h 2.25 V 19.7161 h -2.25 z"
           fill="#221f20"
           id="path8-3" /><path
           d="m 144.546,20.0362 c -0.677,0.019 -1.35,-0.1038 -1.977,-0.3603 -0.627,-0.2566 -1.193,-0.6414 -1.663,-1.1297 v 5.38 h -2.25 V 9.22617 h 2.25 v 1.22003 c 0.463,-0.50069 1.027,-0.89766 1.654,-1.16481 0.628,-0.26716 1.304,-0.39844 1.986,-0.38522 3.56,0 5.86,2.18003 5.86,5.57003 0,3.39 -2.41,5.57 -5.86,5.57 z m -0.24,-9.17 c -2.24,0 -3.59,1.06 -3.59,3.6 0,2.54 1.35,3.6 3.59,3.6 0.489,0.0319 0.979,-0.038 1.44,-0.2054 0.46,-0.1674 0.881,-0.4285 1.236,-0.7669 0.354,-0.3384 0.634,-0.7467 0.823,-1.199 0.188,-0.4523 0.28,-0.9388 0.271,-1.4287 0.025,-0.4933 -0.056,-0.9862 -0.238,-1.4452 -0.183,-0.459 -0.462,-0.8733 -0.818,-1.2149 -0.357,-0.3416 -0.783,-0.6023 -1.25,-0.7645 -0.466,-0.1622 -0.962,-0.222 -1.454,-0.1754 z"
           fill="#221f20"
           id="path9" /><path
           d="m 160.426,17.2161 v 2.18 c -0.887,0.462 -1.88,0.6827 -2.88,0.64 -2.49,0 -3.73,-1.28 -3.73,-3.82 v -5.06 h -2.1 V 9.22613 h 2.1 v -2.44 h 2.25 v 2.44 h 3.72 v 1.92997 h -3.72 v 5.16 c 0,1.14 0.53,1.75 1.69,1.75 0.955,-0.0078 1.886,-0.304 2.67,-0.85 z"
           fill="#221f20"
           id="path10-8" /><path
           d="M 19.0161,0.666155 C 10.0161,-1.43385 1.54612,1.59615 0.186119,7.43615 -1.17388,13.2762 5.06612,19.7062 14.1061,21.8062 c 0.41,0.1 0.82,0.17 1.23,0.25 l -5.42998,-9.61 1.77998,-1 4.8,8.49 V 7.61615 h 2 V 19.9762 l 3.83,-6.79 1.79,1 -4.67,8.28 c 6.8,0.09 12.38,-2.77 13.46,-7.42 1.4,-5.84005 -4.83,-12.28005 -13.88,-14.380045 z"
           fill="#539350"
           id="path11" /></g></g><g
       id="layer2"
       transform="translate(-97.858749,35.114374)"><path
         d="m 106.38125,5.7868754 c -0.6525,0.27875 -0.7725,0.33125 -0.90625,0.39875 -0.14125,0.0725 -0.195,0.135 -0.16625,0.28875 0.006,0.03625 0.0325,0.11375 0.0588,0.17375 0.0212,0.0475 0.0237,0.0775 -0.008,0.08875 -0.0288,0.01375 -0.0512,-0.0125 -0.0775,-0.0775 -0.0975,-0.2275 -0.20125,-0.50125 -0.25625,-0.6325 -0.0438,-0.1025 -0.1725,-0.36875 -0.23875,-0.5225 -0.0262,-0.065 -0.03,-0.09875 -10e-4,-0.11125 0.03,-0.01375 0.05,0.0087 0.07,0.0525 0.02,0.04625 0.0337,0.07125 0.0662,0.11875 0.0713,0.1075 0.15875,0.11 0.3125,0.05375 0.14125,-0.05 0.26125,-0.10125 0.91375,-0.38125 l 0.60125,-0.2575 c 0.62375,-0.26875 0.8325,-0.505 0.91125,-0.78875 0.0775,-0.2625 0.01,-0.46625 -0.0537,-0.6125 -0.0787,-0.18875 -0.23875,-0.39375 -0.48625,-0.49375 -0.3375,-0.135 -0.73,0.0175 -1.1725,0.2075 l -0.53875,0.23 c -0.65125,0.28125 -0.77375,0.3325 -0.9075,0.39875 -0.1425,0.0725 -0.19625,0.13375 -0.165,0.2875 0.006,0.03875 0.0312,0.11375 0.0525,0.16125 0.02,0.04625 0.0225,0.0775 -0.008,0.08875 -0.03,0.01375 -0.0512,-0.01375 -0.0775,-0.075 -0.0925,-0.21625 -0.195,-0.4925 -0.19625,-0.49625 -0.0225,-0.0525 -0.15125,-0.3175 -0.2225,-0.48375 -0.0263,-0.06 -0.03,-0.09375 0,-0.10625 0.03,-0.015 0.05,0.0087 0.0712,0.06 0.0213,0.0475 0.0363,0.0725 0.0675,0.12 0.0712,0.10625 0.15875,0.11 0.3125,0.05375 0.14,-0.05 0.26125,-0.1025 0.9125,-0.3825 l 0.46,-0.19625 c 0.4775,-0.205 1.00375,-0.375 1.46875,-0.14625 0.3925,0.1925 0.5725,0.48375 0.6925,0.76 0.0975,0.22875 0.2625,0.64625 0.11375,1.08125 -0.10375,0.3025 -0.35125,0.60125 -0.975,0.86875 z m -0.1775,-4.7775 c 0.35375,-0.08625 0.46,-0.17375002 0.4725,-0.27125002 0.01,-0.0825 -0.005,-0.1725 -0.0212,-0.24375 -0.0113,-0.05 -0.009,-0.07875 0.0212,-0.085 0.035,-0.0075 0.0538,0.03125 0.0688,0.095 0.065,0.29625 0.0913,0.4825 0.11,0.56875002 0.009,0.04125 0.07,0.2525 0.1225,0.49125 0.0137,0.06 0.0187,0.10125 -0.0238,0.11125 -0.0275,0.0063 -0.0425,-0.02125 -0.0525,-0.06625 -0.0125,-0.06 -0.035,-0.13875 -0.0675,-0.2 -0.0637,-0.11125 -0.19875,-0.09875 -0.59875,-0.01875 l -2.71125,0.5525 c -0.0913,0.02 -0.15875,0.02 -0.16875,-0.02625 -0.0113,-0.05 0.0387,-0.10375 0.10375,-0.2 0.0475,-0.0675 0.63875,-0.92375002 1.155,-1.73750002 0.2425,-0.37875 0.765,-1.13874998 0.82125,-1.23249998 l -0.005,-0.0225 -2.04125,0.49499998 c -0.2775,0.06625 -0.35375,0.1275 -0.37625,0.245 -0.0125,0.07625 0.0113,0.1825 0.0262,0.2475 0.0125,0.055 0.003,0.07625 -0.0262,0.08 -0.035,0.01 -0.0525,-0.04 -0.0675,-0.11 -0.0512,-0.2325 -0.0862,-0.45375 -0.10625,-0.55 -0.0113,-0.05125 -0.0625,-0.22249998 -0.1125,-0.44499998 -0.0137,-0.06 -0.02,-0.10625 0.0188,-0.11375 0.0275,-0.0063 0.0475,0.01875 0.0587,0.07375 0.01,0.045 0.0188,0.08125 0.0438,0.1325 0.0637,0.12125 0.16875,0.135 0.425,0.08375 l 2.89125,-0.58375 c 0.1,-0.0225 0.14375,-0.0125 0.155,0.0275 0.0113,0.05125 -0.0262,0.1175 -0.0675,0.17875 -0.21,0.34625 -0.68,1.06499998 -1.04625,1.63999998 -0.385,0.605 -0.84375,1.23750002 -0.91125,1.33875002 l 0.002,0.01375 z m -2.25625,-4.17875 c -0.7075,0.04375 -0.84,0.0525 -0.98875,0.0725 -0.1575,0.02 -0.235,0.07125 -0.25125,0.175 -0.0112,0.0525 -0.0112,0.1125 -0.007,0.17 0.002,0.045 -0.005,0.075 -0.0425,0.0775 -0.0263,0.0025 -0.0387,-0.03375 -0.0438,-0.10875 -0.0125,-0.1775 -0.0175,-0.4725 -0.0262,-0.6075 -0.008,-0.11625 -0.0388,-0.39 -0.05,-0.56875 -0.004,-0.06 0.004,-0.09875 0.0312,-0.10125 0.0363,-0.0025 0.0488,0.02625 0.0513,0.07375 0.002,0.04625 0.01,0.0825 0.0225,0.13875 0.0312,0.125 0.1125,0.1575 0.2775,0.15375 0.15,0 0.28125,-0.0075 0.99,-0.0525 l 0.82125,-0.0525 c 0.4525,-0.02625 0.82125,-0.05125 1.02,-0.08125 0.125,-0.02375 0.2075,-0.06 0.21625,-0.20125 0.005,-0.06625 0.007,-0.16875 0.004,-0.23875 -0.002,-0.0525 0.009,-0.07625 0.0325,-0.0775 0.0312,-0.0012 0.0487,0.035 0.0525,0.08625 0.02,0.3075 0.025,0.6 0.0312,0.72875 0.006,0.1075 0.0387,0.39875 0.0512,0.5875 0.004,0.06 -0.008,0.09375 -0.0413,0.095 -0.0237,0.0025 -0.0375,-0.0175 -0.0412,-0.07375 -0.004,-0.07 -0.0188,-0.125 -0.0288,-0.16625 -0.025,-0.0925 -0.105,-0.11625 -0.24125,-0.12125 -0.19625,-0.01125 -0.565,0.0125 -1.0175,0.04 z m -1,-2.09875 c -0.2625,0.09125 -0.32,0.1675 -0.3775,0.33375 -0.025,0.06875 -0.0275,0.1425 -0.03,0.18125 -0.003,0.0425 -0.0175,0.055 -0.0463,0.05375 -0.0363,-0.0025 -0.0388,-0.05375 -0.0325,-0.12375 0.0162,-0.2475 0.0475,-0.5125 0.0562,-0.67625 0.008,-0.11625 0.008,-0.34125 0.0238,-0.575 0.004,-0.05625 0.0162,-0.10625 0.0487,-0.105 0.0325,0.0025 0.04,0.03 0.0375,0.07375 -0.004,0.07625 -0.004,0.145 0.0213,0.18375 0.0225,0.0325 0.0525,0.05125 0.095,0.0525 0.0613,0.0038 0.19375,-0.03 0.36625,-0.08375 l 2.17,-0.6675 0.001,-0.01875 c -0.5,-0.235 -1.96375,-0.93625 -2.265,-1.0675 -0.0588,-0.02625 -0.1275,-0.05125 -0.17,-0.0525 -0.0375,-0.0025 -0.0763,0.015 -0.0925,0.055 -0.0225,0.05625 -0.03,0.12625 -0.0337,0.185 -0.004,0.0425 -0.0113,0.07875 -0.0425,0.0775 -0.0375,-0.0025 -0.0437,-0.045 -0.0387,-0.1325 0.015,-0.235 0.0413,-0.42875 0.045,-0.48875 0.005,-0.07875 0.005,-0.3 0.0138,-0.44125 0.004,-0.06 0.0162,-0.0975 0.0487,-0.095 0.0325,0.0012 0.04,0.03 0.0362,0.0775 -0.005,0.04625 -0.0113,0.14375 0.0388,0.2325 0.0375,0.0625 0.1125,0.13875 0.40375,0.28375 0.4275,0.21 0.67125,0.35125 1.22875,0.64125 0.6625,0.3425 1.1575,0.595 1.3825,0.71125 0.2625,0.1375 0.3375,0.17125 0.3325,0.235 -0.004,0.06 -0.0725,0.08375 -0.295,0.15875 z m 1.32125,-4.1375 c -0.695,-0.15 -0.82125,-0.17875 -0.97,-0.2 -0.1575,-0.02375 -0.23875,-0.0025 -0.3025,0.14125 -0.0175,0.0325 -0.0388,0.11125 -0.0525,0.175 -0.0112,0.05125 -0.0262,0.0775 -0.0575,0.06875 -0.0325,-0.0075 -0.0337,-0.04 -0.0213,-0.10875 0.0263,-0.12375 0.0588,-0.255 0.0838,-0.36875 0.03,-0.11875 0.0562,-0.2225 0.0712,-0.28625 0.0312,-0.1462504 0.22875,-1.0575004 0.24125,-1.1450004 0.009,-0.08875 0.0162,-0.16375 0.015,-0.2025 0,-0.025 -0.008,-0.05375 -0.002,-0.0775 0.005,-0.0225 0.025,-0.02375 0.0475,-0.01875 0.0312,0.0062 0.0812,0.04125 0.28875,0.1 0.045,0.015 0.2425,0.0675 0.295,0.0875 0.0237,0.01 0.0475,0.025 0.04,0.05625 -0.006,0.03 -0.03,0.035 -0.0725,0.02625 -0.03,-0.0063 -0.10875,-0.01875 -0.16875,-0.0063 -0.0875,0.01375 -0.1525,0.04875 -0.23125,0.27 -0.0262,0.0775 -0.1375,0.55375 -0.1575,0.6475 -0.005,0.02375 0.006,0.03375 0.0388,0.04 l 1.15625,0.2487504 c 0.0312,0.0063 0.0512,0.0063 0.0562,-0.02125 0.0225,-0.1012504 0.135,-0.6262504 0.14875,-0.7337504 0.0138,-0.11125 0.015,-0.1825 -0.0225,-0.235 -0.0288,-0.04 -0.0475,-0.06375 -0.0425,-0.085 0.004,-0.02 0.0162,-0.03 0.0425,-0.02625 0.0275,0.0063 0.0975,0.04 0.3275,0.10875 0.09,0.025 0.27,0.0775 0.3025,0.08375 0.0362,0.0088 0.0862,0.02 0.0775,0.06125 -0.006,0.0325 -0.0263,0.0375 -0.05,0.0325 -0.0463,-0.0062 -0.105,-0.01875 -0.16875,-0.0175 -0.0963,0.0025 -0.18,0.0525 -0.235,0.2175 -0.0263,0.085 -0.13,0.5375 -0.15375,0.6475004 -0.005,0.0225 0.0138,0.03 0.04,0.0375 l 0.36125,0.0775 c 0.15625,0.03375 0.575,0.13 0.70875,0.1525 0.3175,0.05875 0.4,0 0.50125,-0.4662504 0.0263,-0.11875 0.0675,-0.31125 0.0375,-0.44125 -0.0275,-0.13 -0.11375,-0.20625 -0.29375,-0.28 -0.0463,-0.01875 -0.0625,-0.03125 -0.055,-0.06375 0.01,-0.03625 0.045,-0.02875 0.09,-0.01875 0.105,0.0225 0.40875,0.12625 0.495,0.16875 0.11125,0.0575 0.10375,0.09875 0.065,0.2725 -0.075,0.3425 -0.13625,0.5925004 -0.1825,0.7875004 -0.0512,0.195 -0.085,0.3375 -0.11625,0.4725 -0.0112,0.05 -0.0325,0.15125 -0.0512,0.26125 -0.0237,0.105 -0.0387,0.22625 -0.0588,0.3175 -0.0125,0.06125 -0.0325,0.08875 -0.065,0.08125 -0.0237,-0.005 -0.0325,-0.02625 -0.0225,-0.08125 0.0162,-0.06875 0.0187,-0.125 0.0187,-0.16875 0.001,-0.095 -0.0937,-0.14 -0.22375,-0.185 -0.18625,-0.065 -0.5475,-0.14125 -0.9675,-0.23375 z m 0.8675,-3.3650004 c -0.6625,-0.25625 -0.785,-0.30375 -0.92875,-0.3475 -0.15125,-0.04875 -0.235,-0.04 -0.32125,0.09 -0.0225,0.03125 -0.055,0.10375 -0.0787,0.165 -0.0188,0.0475 -0.0363,0.0725 -0.0675,0.06 -0.0287,-0.0125 -0.0262,-0.04625 -0.002,-0.1125 0.09,-0.23125 0.20875,-0.49875 0.24375,-0.5925 0.0575,-0.1475 0.1725,-0.485 0.225,-0.62 0.10625,-0.275 0.245,-0.5575 0.4975,-0.73 0.13,-0.09 0.42,-0.17875 0.71125,-0.065 0.32375,0.125 0.5675,0.37375 0.755,0.95375 0.63875,-0.2 1.14375,-0.35 1.5125,-0.50125 0.3475,-0.14625 0.44625,-0.31375 0.48625,-0.375 0.0262,-0.04375 0.0475,-0.08125 0.06,-0.1175 0.0138,-0.035 0.0325,-0.0475 0.055,-0.03875 0.035,0.015 0.0312,0.0475 0.0125,0.1 l -0.16,0.415 c -0.0937,0.24375 -0.1575,0.345 -0.2625,0.43625 -0.17375,0.1475 -0.4425,0.235 -0.8725,0.34875 -0.3075,0.08125 -0.68125,0.16875 -0.76875,0.19875 -0.0337,0.01125 -0.0487,0.03625 -0.06,0.06625 l -0.15625,0.3775 c -0.009,0.0225 -0.005,0.0375 0.0212,0.04875 l 0.0613,0.02375 c 0.40625,0.15625 0.75125,0.29 0.9425,0.33875 0.13,0.03375 0.23625,0.045 0.305,-0.07875 0.0337,-0.0625 0.08,-0.155 0.1,-0.2075 0.015,-0.035 0.0337,-0.0475 0.055,-0.03875 0.03,0.01375 0.0312,0.0475 0.0113,0.10375 -0.0988,0.2525 -0.235,0.57125 -0.26125,0.6375 -0.0312,0.08125 -0.12625,0.36125 -0.1925,0.5375 -0.0238,0.05375 -0.0487,0.08 -0.0787,0.0675 -0.0225,-0.0087 -0.0263,-0.02875 -0.008,-0.08125 0.0263,-0.0675 0.0363,-0.1225 0.0438,-0.165 0.0162,-0.0925 -0.0713,-0.15375 -0.19125,-0.22 -0.175,-0.0925 -0.51875,-0.22625 -0.91875,-0.38125 z m 0.54375,-0.38125 c 0.0475,0.01875 0.07,0.01625 0.0937,-0.0087 0.0662,-0.07875 0.13,-0.205 0.1725,-0.31375 0.0675,-0.17625 0.0725,-0.2375 0.045,-0.33875 -0.0437,-0.1675 -0.19625,-0.3725 -0.55375,-0.51 -0.61875,-0.23875 -0.9575,0.10125 -1.0575,0.35875 -0.0412,0.10875 -0.0687,0.18875 -0.0725,0.2375 -0.002,0.03375 0.0112,0.05 0.0463,0.0625 z m 2.7525,-1.945 c -0.0663,0.0475 -0.0925,0.05 -0.1825,-0.0013 -0.225,-0.12875 -0.45875,-0.28375 -0.52125,-0.32375 -0.0588,-0.0375 -0.0963,-0.07625 -0.0775,-0.10875 0.0225,-0.035 0.06,-0.02 0.0925,-0.0012 0.0525,0.03 0.1475,0.0625 0.22875,0.08 0.35125,0.08 0.59875,-0.09625 0.7425,-0.3475 0.2075,-0.36625 0.0613,-0.68625 -0.15375,-0.8075 -0.2025,-0.1125 -0.42375,-0.1575 -0.88,0.03 l -0.2525,0.10375 c -0.60375,0.24875 -0.97625,0.24125 -1.305,0.055 -0.44625,-0.255 -0.55625,-0.80875 -0.235,-1.37625 0.15,-0.265 0.2875,-0.4125 0.3775,-0.50125 0.0275,-0.03 0.0525,-0.045 0.08,-0.0275 0.0525,0.02875 0.16125,0.11375 0.47875,0.29125 0.09,0.05125 0.11625,0.08125 0.0975,0.11375 -0.0162,0.02875 -0.0475,0.02625 -0.0962,0 -0.035,-0.02125 -0.17375,-0.0725 -0.32875,-0.0475 -0.11125,0.01875 -0.30125,0.0675 -0.45125,0.33125 -0.17125,0.3 -0.1,0.5825 0.14375,0.72 0.1875,0.10625 0.38375,0.0925 0.83,-0.09875 l 0.15,-0.065 c 0.65125,-0.28375 1.02875,-0.2975 1.41625,-0.0775 0.235,0.13375 0.465,0.3825 0.49125,0.78375 0.015,0.2775 -0.0775,0.52625 -0.2,0.74125 -0.13625,0.23625 -0.26875,0.4025 -0.445,0.53375 z m -0.1075,-3.86125 c -0.57375,-0.41875 -0.68,-0.495 -0.80625,-0.5775 -0.13375,-0.08375 -0.2275,-0.09375 -0.305,-0.02625 -0.0425,0.0325 -0.0813,0.07875 -0.11375,0.125 -0.0275,0.0375 -0.0525,0.055 -0.0825,0.0325 -0.0225,-0.01625 -0.007,-0.0525 0.0362,-0.1125 0.105,-0.14375 0.28875,-0.37375 0.37,-0.48375 0.0688,-0.09375 0.22,-0.325 0.325,-0.46875 0.0362,-0.04875 0.065,-0.07375 0.0875,-0.0575 0.0287,0.02375 0.0212,0.05125 -0.006,0.08875 -0.0275,0.0375 -0.0463,0.07125 -0.0725,0.12125 -0.055,0.1175 -0.0138,0.1925 0.115,0.29625 0.115,0.09625 0.22125,0.17375 0.795,0.5925 l 0.665,0.48625 c 0.36625,0.2675 0.66375,0.485 0.83875,0.58875 0.11,0.0625 0.19625,0.08625 0.29375,-0.01625 0.0463,-0.0475 0.11625,-0.12625 0.15625,-0.1825 0.03,-0.04125 0.055,-0.0525 0.0763,-0.03875 0.0262,0.02125 0.015,0.05875 -0.0163,0.1 -0.1825,0.24875 -0.3675,0.48 -0.4425,0.5825 -0.0637,0.085 -0.225,0.33375 -0.33625,0.48375 -0.0363,0.05 -0.0675,0.0675 -0.0925,0.04875 -0.02,-0.01375 -0.0213,-0.0375 0.0138,-0.0825 0.0412,-0.05625 0.0662,-0.1075 0.0837,-0.1475 0.0387,-0.085 -0.009,-0.15625 -0.10875,-0.24625 -0.145,-0.135 -0.4425,-0.3525 -0.81,-0.62 z m 1.1525,-3.14875 -0.465,0.51875 c -0.18,0.20375 -0.2375,0.30125 -0.2125,0.4225 0.02,0.08125 0.0438,0.1375 0.065,0.17 0.0213,0.0325 0.025,0.055 0.005,0.0775 -0.0238,0.02375 -0.0463,0.015 -0.0825,-0.0225 -0.055,-0.05125 -0.3025,-0.4075 -0.32375,-0.44125 -0.035,-0.0525 -0.045,-0.08125 -0.0263,-0.10125 0.0263,-0.0275 0.0913,-0.02875 0.18,-0.1075 0.10375,-0.08875 0.2325,-0.21125 0.33875,-0.32375 l 1.2725,-1.345 c 0.10375,-0.10875 0.16375,-0.1925 0.205,-0.25 0.0362,-0.06125 0.0562,-0.095 0.07,-0.1075 0.0225,-0.02375 0.0463,-0.0075 0.0975,0.04 0.0713,0.0675 0.29625,0.2975 0.385,0.3825 0.03,0.035 0.045,0.06125 0.0263,0.08125 -0.0263,0.02625 -0.0487,0.0175 -0.10375,-0.02625 l -0.04,-0.03 c -0.095,-0.0775 -0.27625,-0.07625 -0.57,0.22125 l -0.415,0.41875 1.39375,1.31625 c 0.3125,0.295 0.58125,0.54875 0.74375,0.67 0.10375,0.0775 0.19875,0.13 0.30875,0.04 0.0525,-0.04125 0.13,-0.10875 0.1775,-0.16 0.035,-0.0375 0.0625,-0.045 0.0775,-0.02875 0.025,0.02375 0.009,0.05875 -0.0262,0.09625 -0.21125,0.225 -0.42375,0.42875 -0.5125,0.52375 -0.075,0.0775 -0.2675,0.3025 -0.39375,0.43875 -0.0413,0.04375 -0.075,0.05875 -0.0988,0.035 -0.0175,-0.01625 -0.015,-0.03875 0.025,-0.07875 0.0475,-0.05125 0.0787,-0.0975 0.10125,-0.135 0.05,-0.08125 -0.005,-0.1725 -0.0925,-0.275 -0.12875,-0.1525 -0.395,-0.405 -0.7075,-0.7025 z m 3.54875,-0.57375 c -0.0188,0.015 -0.02,0.02625 -0.01,0.055 l 0.22,0.68 c 0.0362,0.12 0.0875,0.2225 0.12375,0.26625 0.0525,0.06625 0.12375,0.08625 0.235,-0.0038 l 0.055,-0.04375 c 0.0437,-0.03375 0.0613,-0.035 0.0775,-0.015 0.0237,0.02875 0.007,0.05375 -0.0325,0.08625 -0.1175,0.0925 -0.28375,0.2075 -0.395,0.29625 -0.04,0.0325 -0.23375,0.20375 -0.4225,0.355 -0.0475,0.0375 -0.0763,0.04875 -0.0987,0.02 -0.0187,-0.02375 -0.009,-0.04125 0.0212,-0.065 0.0325,-0.02625 0.0812,-0.07125 0.1075,-0.0975 0.15125,-0.15625 0.12125,-0.33625 0.0487,-0.57625 l -0.9125,-3.02625 c -0.04,-0.14 -0.0512,-0.19875 -0.015,-0.2275 0.0325,-0.02625 0.0812,-0.01125 0.18375,0.04375 0.24875,0.13 2.0225,1.155 2.69875,1.525 0.4,0.2175 0.5475,0.185 0.64,0.14125 0.0637,-0.0325 0.12125,-0.07375 0.165,-0.1075 0.0288,-0.025 0.0512,-0.03375 0.0712,-0.01 0.025,0.02875 -0.004,0.06375 -0.1375,0.1725 -0.13125,0.105 -0.39875,0.3175 -0.6975,0.54375 -0.0687,0.04875 -0.1125,0.08375 -0.13125,0.05875 -0.0175,-0.0225 -0.009,-0.04 0.025,-0.07375 0.0213,-0.0275 0.02,-0.08125 -0.0325,-0.11 l -0.91125,-0.5425 c -0.0213,-0.0125 -0.0388,-0.01125 -0.0563,0.0038 z m 0.6,-0.7775 c 0.0175,-0.015 0.0125,-0.0275 0,-0.03625 l -1.04875,-0.64125 c -0.015,-0.01125 -0.0337,-0.02625 -0.045,-0.01875 -0.0113,0.0087 -0.004,0.03125 0.004,0.05125 l 0.38125,1.1675 c 0.01,0.0175 0.0225,0.02625 0.035,0.01375 z m 2.42875,-0.03 c -0.08,0.01125 -0.105,-0.0025 -0.1575,-0.09 -0.13,-0.2225 -0.2575,-0.4725 -0.29125,-0.54 -0.0312,-0.0625 -0.0463,-0.11375 -0.0138,-0.13125 0.035,-0.0225 0.0613,0.0125 0.0787,0.045 0.03,0.0525 0.0975,0.1275 0.1575,0.1825 0.265,0.245 0.56625,0.2125 0.815,0.065 0.3625,-0.215 0.39375,-0.56375 0.2675,-0.77875 -0.11625,-0.195 -0.28625,-0.345 -0.775,-0.40875 l -0.27125,-0.035 c -0.6475,-0.08375 -0.96625,-0.275 -1.16,-0.6 -0.2625,-0.442499 -0.08,-0.977499 0.47875,-1.309999 0.26125,-0.155 0.45375,-0.215 0.575,-0.24875 0.0412,-0.01375 0.0687,-0.01375 0.085,0.01625 0.03,0.0525 0.0825,0.17875 0.27,0.4925 0.0525,0.08875 0.0588,0.13 0.0263,0.1475 -0.0263,0.01625 -0.0537,0 -0.0812,-0.04875 -0.0225,-0.03625 -0.11625,-0.14875 -0.26125,-0.20375 -0.105,-0.04 -0.29375,-0.0925 -0.555,0.0625 -0.2975,0.1775 -0.37625,0.45625 -0.23375,0.69875 0.11,0.18375 0.28625,0.27125 0.7675,0.326249 l 0.1625,0.0175 c 0.7025,0.0775 1.04125,0.2525 1.26875,0.635 0.13625,0.23375 0.21375,0.5625 0.035,0.9225 -0.125,0.2475 -0.32875,0.41625 -0.54125,0.545 -0.23,0.13375 -0.42875,0.2125 -0.64625,0.23875 z m 24.415,-3.396249 -0.61125,-0.3375 c -0.23875,-0.13 -0.3475,-0.16625 -0.46,-0.1125 -0.0775,0.035 -0.12625,0.07375 -0.15125,0.10125 -0.0275,0.02625 -0.0488,0.035 -0.075,0.0225 -0.0263,-0.01625 -0.025,-0.04125 0.002,-0.08625 0.0362,-0.06375 0.33,-0.38625 0.35625,-0.415 0.0425,-0.045 0.07,-0.0625 0.0937,-0.0475 0.0325,0.02 0.0488,0.0825 0.145,0.15 0.11,0.08 0.25875,0.18 0.39,0.25625 l 1.5975,0.9375 c 0.13,0.0775 0.225,0.11625 0.29,0.14375 0.0675,0.02375 0.105,0.03375 0.12125,0.04375 0.0275,0.0175 0.0188,0.04375 -0.0175,0.10375 -0.05,0.08375 -0.22625,0.356249 -0.28625,0.461249 -0.0263,0.0375 -0.05,0.0575 -0.075,0.04375 -0.0312,-0.02 -0.0275,-0.04375 0.004,-0.1075 l 0.0225,-0.045 c 0.0525,-0.11125 0.01,-0.286249 -0.3425,-0.504999 l -0.50125,-0.3125 -0.97,1.653749 c -0.2175,0.37125 -0.40375,0.69 -0.4875,0.87375 -0.0538,0.12125 -0.08,0.22375 0.03,0.31 0.0525,0.04125 0.135,0.10125 0.195,0.13625 0.045,0.02625 0.0588,0.05 0.0463,0.07 -0.0163,0.0275 -0.055,0.0225 -0.1,-0.005 -0.265,-0.1525 -0.51125,-0.31375 -0.625,-0.38 -0.0913,-0.05375 -0.3525,-0.19125 -0.515,-0.28625 -0.0525,-0.02875 -0.0737,-0.06 -0.0575,-0.08625 0.0125,-0.02125 0.035,-0.02375 0.0838,0.005 0.06,0.03625 0.11375,0.05625 0.155,0.06875 0.09,0.03125 0.16625,-0.0425 0.24625,-0.1525 0.12,-0.1575 0.30625,-0.47625 0.525,-0.8475 z m 2.10625,2.658749 c 0.46375,-0.53875 0.5475,-0.63875 0.63875,-0.75625 0.0962,-0.1275 0.11625,-0.2075 0.0213,-0.33375 -0.0225,-0.03 -0.0775,-0.08625 -0.13,-0.13 -0.0387,-0.03375 -0.0537,-0.05875 -0.0325,-0.08375 0.0225,-0.025 0.0525,-0.01125 0.105,0.035 0.1875,0.16125 0.4025,0.36375 0.50875,0.455 0.085,0.0725 0.3175,0.255 0.445,0.36375 0.0525,0.04625 0.0725,0.07375 0.05,0.09875 -0.0225,0.025 -0.0488,0.01375 -0.0838,-0.0175 -0.0387,-0.0325 -0.0637,-0.04875 -0.1125,-0.0775 -0.11125,-0.06625 -0.19125,-0.0275 -0.305,0.08875 -0.105,0.10875 -0.19,0.2075 -0.65125,0.7475 l -0.425,0.495 c -0.44125,0.515 -0.52375,0.81875 -0.4725,1.11125 0.0475,0.2675 0.1975,0.4225 0.31875,0.52625 0.15625,0.1325 0.39,0.2475 0.65375,0.22875 0.3625,-0.02625 0.6475,-0.33875 0.96125,-0.7025 l 0.3825,-0.4425 c 0.4625,-0.54 0.5475,-0.63875 0.63875,-0.75625 0.0962,-0.12875 0.11625,-0.20875 0.0212,-0.335 -0.0225,-0.03 -0.0775,-0.085 -0.11875,-0.12125 -0.04,-0.0325 -0.055,-0.05875 -0.0337,-0.0825 0.0212,-0.025 0.0525,-0.01125 0.1,0.03125 0.1825,0.155 0.395,0.3575 0.39875,0.36125 0.0425,0.035 0.275,0.2175 0.41375,0.33625 0.05,0.0425 0.0687,0.0725 0.0475,0.09625 -0.0212,0.02625 -0.0487,0.01375 -0.0913,-0.0225 -0.0387,-0.03375 -0.0625,-0.04875 -0.11125,-0.0775 -0.11125,-0.065 -0.19125,-0.0275 -0.305,0.08875 -0.10375,0.1075 -0.18875,0.2075 -0.65125,0.74625 l -0.3275,0.37875 c -0.3375,0.39375 -0.73625,0.77875 -1.2525,0.77875 -0.4375,0 -0.72625,-0.18 -0.9575,-0.3775 -0.1875,-0.16125 -0.52,-0.465 -0.5775,-0.92125 -0.0413,-0.3175 0.05,-0.69625 0.49125,-1.21125 z m 3.545,3.3375 c 0.55375,-0.44375 0.65375,-0.5275 0.76625,-0.62875 0.1175,-0.10625 0.1525,-0.1825 0.08,-0.32375 -0.0163,-0.035 -0.0625,-0.1 -0.10375,-0.15125 -0.0312,-0.04 -0.0425,-0.0675 -0.0175,-0.08875 0.0263,-0.02 0.0538,0 0.0975,0.05375 0.15625,0.1925 0.32875,0.4325 0.39,0.5075 0.0987,0.125 0.335,0.39125 0.42375,0.505 0.185,0.23 0.36,0.49125 0.385,0.79625 0.0125,0.1575 -0.0563,0.4525 -0.3,0.65125 -0.27,0.21625 -0.6075,0.3025 -1.2025,0.17625 -0.14625,0.6525 -0.26875,1.165 -0.32125,1.56125 -0.0475,0.37375 0.0475,0.545 0.0788,0.60625 0.0263,0.04625 0.0475,0.08 0.0725,0.11125 0.0238,0.0275 0.025,0.0525 0.006,0.0675 -0.0288,0.025 -0.0563,0.0038 -0.0925,-0.04 l -0.27875,-0.34375 c -0.165,-0.20375 -0.22,-0.31 -0.24375,-0.445 -0.0425,-0.22375 0.0175,-0.49875 0.1325,-0.93 0.0825,-0.3075 0.195,-0.67375 0.21375,-0.76375 0.007,-0.03625 -0.009,-0.0625 -0.0275,-0.08625 l -0.2475,-0.3225 c -0.015,-0.02 -0.0288,-0.025 -0.0525,-0.0062 l -0.0513,0.04 c -0.33875,0.27375 -0.62625,0.50375 -0.76375,0.64625 -0.0962,0.09625 -0.15875,0.1825 -0.085,0.30375 0.0362,0.06 0.0937,0.14625 0.12875,0.18875 0.025,0.02875 0.0263,0.0525 0.007,0.06875 -0.0263,0.02 -0.0575,0.0038 -0.095,-0.04375 -0.17125,-0.21125 -0.37625,-0.49125 -0.42,-0.54625 -0.055,-0.06875 -0.25125,-0.2875 -0.3675,-0.435 -0.0387,-0.0475 -0.0475,-0.08125 -0.0238,-0.1025 0.02,-0.015 0.0413,-0.0088 0.0775,0.035 0.0425,0.05375 0.085,0.09125 0.12,0.12 0.0737,0.06125 0.16875,0.015 0.28625,-0.055 0.16875,-0.105 0.455,-0.33875 0.79125,-0.60625 z m 0.0575,0.66125 c -0.04,0.0325 -0.0488,0.05125 -0.0388,0.08625 0.0363,0.0975 0.1125,0.215 0.18625,0.30625 0.1175,0.145 0.17,0.18125 0.27,0.20875 0.1675,0.04375 0.42,0.01625 0.71875,-0.22625 0.5175,-0.41625 0.39,-0.87875 0.2175,-1.09375 -0.0737,-0.09 -0.13,-0.15375 -0.17,-0.18125 -0.0275,-0.02125 -0.0475,-0.015 -0.0775,0.0075 z m 2.41875,2.75375 c 0.6125,-0.36125 0.725,-0.4275 0.85,-0.51125 0.13,-0.08875 0.1775,-0.17 0.145,-0.27 -0.015,-0.05125 -0.0412,-0.105 -0.07,-0.15375 -0.025,-0.04 -0.0288,-0.07 0.001,-0.08875 0.0263,-0.01375 0.0513,0.015 0.09,0.0775 0.09,0.15375 0.2275,0.41375 0.29625,0.53 0.0588,0.10125 0.21125,0.33125 0.30125,0.48375 0.03,0.0525 0.0413,0.09 0.0188,0.10375 -0.0312,0.02 -0.0538,0 -0.0775,-0.04125 -0.0237,-0.04 -0.0475,-0.07 -0.0812,-0.11375 -0.0838,-0.0975 -0.17375,-0.0875 -0.3175,-0.01375 -0.13375,0.0675 -0.24625,0.135 -0.86,0.495 l -0.7075,0.4175 c -0.39,0.23125 -0.70875,0.41875 -0.8725,0.5375 -0.10125,0.07625 -0.1575,0.1475 -0.1025,0.2775 0.0263,0.06125 0.07,0.15375 0.105,0.215 0.0263,0.04375 0.0263,0.0725 0.005,0.0825 -0.0275,0.0175 -0.0588,-0.0087 -0.085,-0.0525 -0.15625,-0.265 -0.2925,-0.52625 -0.35875,-0.635 -0.0538,-0.0925 -0.21625,-0.33875 -0.31125,-0.5 -0.03,-0.0525 -0.0337,-0.0875 -0.008,-0.10375 0.0213,-0.01125 0.0413,-0.0025 0.0713,0.045 0.035,0.06125 0.0725,0.10375 0.1025,0.13625 0.0637,0.07125 0.145,0.05375 0.27,-0.0025 0.18125,-0.07875 0.4975,-0.2675 0.89,-0.49625 z m -0.34625,2.975 c 0.19625,-0.57625 0.63375,-0.88875 1.0525,-1.0625 0.29375,-0.1225 0.84,-0.24125 1.3925,0.01625 0.41375,0.1925 0.755,0.53125 1.02125,1.175 0.11125,0.2675 0.16,0.435 0.2175,0.64375 0.045,0.17375 0.065,0.3275 0.105,0.4625 0.015,0.04875 0.001,0.075 -0.0263,0.085 -0.035,0.015 -0.0912,0.02375 -0.24625,0.0775 -0.145,0.05125 -0.3825,0.15375 -0.4725,0.18 -0.0662,0.02375 -0.105,0.0275 -0.12125,-0.01 -0.0138,-0.035 0.0175,-0.0575 0.0775,-0.08125 0.13125,-0.06 0.26,-0.18 0.32875,-0.33375 0.0912,-0.205 0.07,-0.59 -0.095,-0.9875 -0.15625,-0.375 -0.3525,-0.5825 -0.60375,-0.70125 -0.41875,-0.195 -0.8625,-0.1075 -1.28125,0.06625 -1.0275,0.425 -1.215,1.4175 -0.975,1.99625 0.15875,0.38625 0.29875,0.6 0.56875,0.6925 0.1125,0.0375 0.26125,0.0425 0.34375,0.0275 0.0763,-0.015 0.095,-0.01375 0.11125,0.02125 0.0125,0.02875 -0.015,0.0525 -0.0488,0.06625 -0.0512,0.02125 -0.44875,0.125 -0.61375,0.1425 -0.0825,0.0087 -0.11125,0 -0.17125,-0.0625 -0.14125,-0.1425 -0.3075,-0.45875 -0.4225,-0.73625 -0.24375,-0.5925 -0.32,-1.14375 -0.14125,-1.6775 z m 3.07625,3.5025 c 0.69375,-0.15625 0.82125,-0.1825 0.96375,-0.22625 0.15375,-0.04375 0.21875,-0.09625 0.2175,-0.255 0,-0.03875 -0.0125,-0.1175 -0.0263,-0.18125 -0.0112,-0.05 -0.009,-0.08 0.0238,-0.08625 0.0325,-0.0075 0.0488,0.0225 0.065,0.09125 0.0263,0.12375 0.0525,0.25625 0.0775,0.37 0.0238,0.12 0.0412,0.22625 0.055,0.2875 0.0325,0.14625 0.23625,1.0550004 0.26,1.1400004 0.0288,0.085 0.0538,0.15625 0.0725,0.19 0.01,0.0225 0.0288,0.04625 0.0337,0.07 0.005,0.02375 -0.0125,0.03125 -0.0337,0.03625 -0.0312,0.0063 -0.0913,-0.0038 -0.305,0.02875 -0.0475,0.0063 -0.25,0.04125 -0.30625,0.045 -0.025,0 -0.0525,-0.0025 -0.06,-0.0325 -0.008,-0.03125 0.0137,-0.04625 0.0537,-0.055 0.0312,-0.0063 0.10875,-0.02875 0.1575,-0.065 0.075,-0.05125 0.12,-0.10875 0.0963,-0.34125 -0.008,-0.07875 -0.10625,-0.5600004 -0.12875,-0.6512504 -0.005,-0.0225 -0.0212,-0.0275 -0.0525,-0.02125 l -1.15375,0.26 c -0.0325,0.0075 -0.05,0.01625 -0.0438,0.0425 0.0238,0.10125 0.14,0.6250004 0.175,0.7287504 0.0325,0.1075 0.0625,0.1725 0.1175,0.20375 0.0437,0.02375 0.07,0.035 0.0762,0.05875 0.004,0.01875 -0.001,0.0325 -0.0275,0.04 -0.0275,0.0062 -0.10375,0.0038 -0.34125,0.0375 -0.0925,0.0175 -0.27875,0.04375 -0.31,0.05125 -0.035,0.0075 -0.085,0.02125 -0.0962,-0.0225 -0.007,-0.03125 0.01,-0.045 0.0312,-0.05 0.045,-0.015 0.10375,-0.0275 0.16,-0.055 0.0862,-0.04375 0.14,-0.12375 0.12,-0.295 -0.01,-0.08875 -0.1075,-0.5425004 -0.13,-0.6512504 -0.005,-0.02375 -0.0263,-0.025 -0.0525,-0.01875 l -0.36,0.08125 c -0.155,0.035 -0.57625,0.125 -0.7075,0.15875 -0.3125,0.0775 -0.365,0.1675004 -0.26,0.6337504 0.0263,0.11875 0.0712,0.31 0.15125,0.41625 0.0812,0.10625 0.19,0.14 0.385,0.13 0.0525,-0.0012 0.0725,0.0025 0.0788,0.03375 0.007,0.03625 -0.0275,0.045 -0.075,0.055 -0.105,0.025 -0.4225,0.05625 -0.52,0.05375 -0.1275,-0.005 -0.135,-0.04625 -0.175,-0.22 -0.0775,-0.34 -0.12375,-0.595 -0.16375,-0.7925 -0.0337,-0.1975 -0.0625,-0.3400004 -0.0925,-0.4775004 -0.0112,-0.05 -0.0325,-0.15125 -0.0625,-0.25875 -0.0238,-0.105 -0.0588,-0.22125 -0.0788,-0.3125 -0.015,-0.05875 -0.007,-0.09375 0.025,-0.10125 0.0238,-0.005 0.0412,0.01 0.0525,0.065 0.015,0.06875 0.0362,0.12125 0.055,0.16 0.0387,0.08625 0.14375,0.0875 0.2825,0.0775 0.195,-0.02125 0.55625,-0.10125 0.975,-0.195 z m -0.86,3.9900004 c -0.365,0.0225 -0.48375,0.0875 -0.5125,0.1825 -0.0263,0.08 -0.0263,0.17125 -0.025,0.24375 0.001,0.05125 -0.006,0.08 -0.0337,0.08 -0.0362,0.0013 -0.0488,-0.04 -0.0513,-0.105 -0.0112,-0.30375 -0.004,-0.4925 -0.006,-0.58125 -0.001,-0.04125 -0.0237,-0.26125 -0.03,-0.5025 -0.002,-0.06 0.001,-0.10375 0.0413,-0.10375 0.0275,-0.0013 0.0387,0.02625 0.04,0.07375 0.002,0.06125 0.01,0.145 0.03,0.20875 0.0425,0.12125 0.17875,0.13375 0.585,0.12625 l 2.7675,-0.055 c 0.0937,-0.0038 0.16,0.0087 0.16125,0.055 10e-4,0.05125 -0.0575,0.09375 -0.1375,0.17875 -0.06,0.0575 -0.79625,0.795 -1.44875,1.50125 -0.30625,0.32875 -0.95875,0.98375 -1.02875,1.065 v 0.025 l 2.09625,-0.1225 c 0.28625,-0.015 0.3725,-0.06 0.415,-0.17375 0.0263,-0.07125 0.0225,-0.1825 0.02,-0.24875 -0.001,-0.05625 0.0112,-0.07625 0.0387,-0.07625 0.0375,-0.0012 0.0437,0.05 0.0462,0.11875 0.009,0.2425 0.003,0.46875 0.006,0.56625 0.001,0.05125 0.0238,0.22875 0.03,0.4575 10e-4,0.06125 0,0.1075 -0.0387,0.10875 -0.0263,0.0012 -0.0425,-0.02625 -0.045,-0.0825 -10e-4,-0.0475 -0.002,-0.0825 -0.0187,-0.13875 -0.0425,-0.13 -0.14125,-0.165 -0.40375,-0.15875 l -2.94875,0.0525 c -0.1025,0.0038 -0.145,-0.01375 -0.1475,-0.055 -0.001,-0.05125 0.0475,-0.11 0.0975,-0.1625 0.27,-0.30375 0.86,-0.9225 1.325,-1.4275 0.4875,-0.52625 1.0525,-1.06625 1.13875,-1.15375 v -0.01375 z m -0.6275,4.31375 c 0.0437,-0.07125 0.07,-0.08 0.17125,-0.0675 0.25375,0.0375 0.53,0.095 0.60125,0.1125 0.0687,0.015 0.1175,0.03375 0.1125,0.0725 -0.005,0.0425 -0.0475,0.04 -0.0837,0.035 -0.0613,-0.01 -0.16,-0.0038 -0.2425,0.0075 -0.3575,0.0525 -0.52125,0.3075 -0.5625,0.595 -0.06,0.41625 0.1925,0.66 0.44,0.6975 0.2275,0.03125 0.44875,-0.0075 0.80625,-0.34625 l 0.1975,-0.18875 c 0.47125,-0.45 0.82,-0.58125 1.195,-0.5275 0.50875,0.075 0.81125,0.55125 0.72125,1.195 -0.0437,0.29999998 -0.11875,0.48999998 -0.16875,0.60374998 -0.015,0.03875 -0.0312,0.06125 -0.065,0.05625 -0.06,-0.0087 -0.19,-0.04625 -0.55125,-0.0975 -0.1025,-0.015 -0.13625,-0.03375 -0.13125,-0.07125 0.005,-0.0325 0.0337,-0.0425 0.09,-0.03375 0.0412,0.005 0.18625,0.0025 0.3225,-0.0775 0.0975,-0.0575 0.25625,-0.17125 0.29875,-0.47249998 0.05,-0.34 -0.12125,-0.57875 -0.3975,-0.61875 -0.2125,-0.02875 -0.39,0.0525 -0.73625,0.395 l -0.11625,0.11625 c -0.50125,0.49749998 -0.85,0.65124998 -1.28875,0.58999998 -0.26875,-0.0375 -0.5725,-0.185 -0.7425,-0.54999998 -0.115,-0.2525 -0.12125,-0.5175 -0.0838,-0.7625 0.035,-0.27375 0.0975,-0.47625 0.21375,-0.6625 z m 1.4,3.9675 c 0.68375,0.1925 0.81,0.22875 0.9575,0.26 0.15625,0.03375 0.24375,0.01125 0.29375,-0.08125 0.0275,-0.045 0.0487,-0.1025 0.0637,-0.15625 0.0137,-0.045 0.0288,-0.07 0.0662,-0.06 0.0263,0.0087 0.0263,0.04625 0.005,0.11875 -0.0488,0.1725 -0.14125,0.45 -0.18,0.5825 -0.03,0.1125 -0.0913,0.38125 -0.14,0.55 -0.0175,0.05875 -0.035,0.0925 -0.0637,0.085 -0.035,-0.01125 -0.0362,-0.04 -0.025,-0.085 0.0112,-0.045 0.0188,-0.08 0.025,-0.1375 0.0125,-0.12875 -0.055,-0.18375 -0.21,-0.2375 -0.14,-0.05 -0.26625,-0.085 -0.95,-0.27875 l -0.79125,-0.22625 c -0.43625,-0.12375 -0.79125,-0.22375 -0.99,-0.26 -0.125,-0.02125 -0.215,-0.0125 -0.27125,0.11875 -0.0263,0.06125 -0.0637,0.1575 -0.0825,0.225 -0.0137,0.05 -0.0325,0.06875 -0.0562,0.0625 -0.0312,-0.0087 -0.035,-0.04875 -0.0213,-0.09875 0.0825,-0.295 0.1775,-0.57625 0.21125,-0.69875002 0.0275,-0.1025 0.0962,-0.39 0.1475,-0.57 0.0163,-0.05875 0.0375,-0.085 0.07,-0.0775 0.0225,0.0063 0.0312,0.0275 0.0162,0.0825 -0.02,0.06625 -0.0263,0.12375 -0.0263,0.16625 -0.007,0.095 0.0613,0.14375 0.18625,0.19375 0.1825,0.07625 0.53875,0.17625 0.97375,0.29875002 z m -2.75375,1.64875 c 0.06,-0.0575 0.0862,-0.06 0.1825,-0.02 0.235,0.10125 0.48625,0.2325 0.55125,0.26375 0.0637,0.0325 0.10375,0.0675 0.09,0.1 -0.0163,0.03875 -0.0575,0.02625 -0.0913,0.01125 -0.055,-0.02375 -0.15375,-0.04375 -0.235,-0.055 -0.35875,-0.04125 -0.58375,0.16 -0.7,0.4275 -0.1675,0.38625 0.0138,0.6875 0.24,0.78625 0.21,0.08875 0.435,0.1125 0.8675,-0.12625 l 0.23875,-0.13 c 0.5725,-0.3125 0.94375,-0.34625 1.29125,-0.195 0.47125,0.20375 0.64,0.745 0.3825,1.34 -0.12125,0.28 -0.24,0.44125 -0.32,0.54 -0.025,0.035 -0.0475,0.05125 -0.0775,0.0375 -0.055,-0.02625 -0.17375,-0.095 -0.5075,-0.24 -0.0937,-0.04 -0.12375,-0.06875 -0.1075,-0.1025 0.0125,-0.0275 0.0438,-0.03 0.0962,-0.0088 0.0388,0.01625 0.18125,0.0525 0.33125,0.01125 0.11,-0.0275 0.29125,-0.09875 0.4125,-0.3775 0.1375,-0.3175 0.0362,-0.59125 -0.22125,-0.7025 -0.1975,-0.085 -0.39,-0.05125 -0.81375,0.18625 l -0.14125,0.08 c -0.615,0.35 -0.99,0.40625 -1.39875,0.23125 -0.24875,-0.1075 -0.50375,-0.33 -0.5725,-0.725 -0.045,-0.275 0.0213,-0.53125 0.11875,-0.7575 0.10875,-0.24625 0.2225,-0.42625 0.38375,-0.575 z M 115.0975,17.101874 c -0.03,0 -0.07,-0.0025 -0.1425,-0.025 -0.0662,-0.01875 -0.0875,-0.0725 -0.1125,-0.2325 l -0.23625,-1.5625 c -0.0113,-0.06 -0.0425,-0.09625 -0.08,-0.09875 -0.0363,0.0012 -0.065,0.03 -0.0863,0.075 l -0.685,1.39 -0.6825,-1.3725 c -0.0325,-0.07125 -0.0625,-0.0925 -0.1,-0.0925 -0.0362,0.0012 -0.065,0.03625 -0.0712,0.0825 l -0.25875,1.65125 c -0.0113,0.08375 -0.04,0.17625 -0.0888,0.1775 -0.04,0.005 -0.0575,0.005 -0.0775,0.005 -0.0312,0 -0.0612,0.015 -0.0625,0.04625 0,0.04 0.0413,0.05 0.0688,0.05 0.085,0 0.21,-0.01 0.26,-0.01 0.0462,0 0.165,0.01 0.27625,0.01 0.0363,0 0.0812,-0.0062 0.0838,-0.05 -0.004,-0.03375 -0.0325,-0.045 -0.0625,-0.04625 -0.0225,0 -0.0438,-0.0025 -0.0875,-0.01125 -0.0438,-0.01125 -0.0625,-0.02125 -0.0637,-0.055 0,-0.03875 0.002,-0.0725 0.009,-0.11625 l 0.1175,-0.9325 c 0.0875,0.18125 0.21875,0.44875 0.2375,0.49375 0.03,0.075 0.2375,0.45875 0.30125,0.57625 0.0425,0.07625 0.0675,0.13125 0.12375,0.13875 0.05,-0.005 0.0638,-0.03875 0.12375,-0.155 l 0.54,-1.0825 0.13625,1.04 c 0.002,0.0225 0.004,0.04 0.004,0.05375 0,0.02875 -0.004,0.0275 -0.002,0.03 -0.0188,0.0075 -0.0413,0.01875 -0.0438,0.04625 0.004,0.03625 0.0362,0.04875 0.0975,0.05125 0.105,0.0063 0.4775,0.01875 0.545,0.01875 0.0387,-0.0012 0.0825,-0.0037 0.0888,-0.05 -0.009,-0.03375 -0.0425,-0.04375 -0.0688,-0.04375 z m 2.13625,-1.565 c -0.2925,-0.29625 -0.74125,-0.29375 -1.0675,-0.29375 -0.1575,0 -0.34625,0.005 -0.42625,0.005 -0.075,0 -0.24125,-0.005 -0.37875,-0.005 -0.035,0 -0.0775,0.0025 -0.08,0.04375 0.001,0.03625 0.0362,0.04875 0.0662,0.04875 0.0375,0 0.0825,0.0025 0.0988,0.0075 0.0787,0.02625 0.0887,0.035 0.0975,0.11875 0.004,0.07875 0.004,0.15 0.004,0.53625 v 0.44375 c 0,0.235 0,0.4325 -0.0125,0.5375 -0.0113,0.07625 -0.0237,0.1075 -0.0625,0.1175 -0.0225,0.005 -0.05,0.0075 -0.0862,0.0075 -0.0388,0 -0.0625,0.025 -0.0625,0.04875 0.001,0.035 0.0362,0.0475 0.0725,0.0475 0.0538,0 0.12,-0.0025 0.1825,-0.0063 0.0637,0 0.12125,-0.0037 0.14875,-0.0037 0.065,0 0.15875,0.0075 0.2625,0.01625 0.10375,0.0063 0.21875,0.015 0.31375,0.015 0.48875,0 0.77,-0.18125 0.89375,-0.30375 0.15125,-0.14875 0.29125,-0.39375 0.29125,-0.72 -0.001,-0.31 -0.12125,-0.52625 -0.255,-0.66125 z m -0.165,0.73 c 0,0.25875 -0.0525,0.4775 -0.215,0.61 -0.15375,0.12875 -0.3225,0.16875 -0.5575,0.16875 -0.2025,0.0012 -0.3,-0.055 -0.325,-0.09125 -0.0138,-0.015 -0.025,-0.1075 -0.0263,-0.1675 -0.004,-0.05 -0.007,-0.24375 -0.007,-0.51125 v -0.31875 c 0,-0.19875 0,-0.4075 0.004,-0.495 0.004,-0.02625 0,-0.0225 0.02,-0.03 0.0113,-0.0088 0.1025,-0.01875 0.15375,-0.0175 0.20375,0 0.4825,0.02625 0.7175,0.235 0.11125,0.09875 0.23625,0.3025 0.23625,0.6175 z m 2.47875,0.41125 c -0.035,-0.0012 -0.0512,0.03125 -0.0525,0.06875 -0.008,0.04125 -0.0425,0.1125 -0.085,0.15875 -0.0975,0.10875 -0.21625,0.1275 -0.4475,0.1275 -0.34,-0.0013 -0.79375,-0.2775 -0.795,-0.86375 0,-0.245 0.0475,-0.4825 0.235,-0.6425 0.11375,-0.09625 0.25375,-0.1375 0.48,-0.1375 0.23625,0 0.40875,0.0625 0.49125,0.1425 0.0613,0.06125 0.0925,0.145 0.095,0.22125 0,0.02875 0.005,0.0725 0.0487,0.075 0.045,-0.0037 0.0538,-0.0475 0.0563,-0.08125 0.002,-0.05125 0.002,-0.19125 0.009,-0.275 0.005,-0.0875 0.0125,-0.1175 0.0125,-0.14 0.002,-0.02625 -0.025,-0.05 -0.0588,-0.05 -0.0763,-0.01 -0.16125,-0.0275 -0.26,-0.0425 -0.12,-0.015 -0.22,-0.02625 -0.385,-0.02625 -0.39125,0 -0.65,0.10375 -0.84375,0.275 -0.25625,0.23 -0.31375,0.5325 -0.31375,0.7075 0,0.2475 0.07,0.54375 0.335,0.7625 0.24375,0.205 0.5525,0.28 0.9125,0.28 0.17125,0 0.37,-0.015 0.48125,-0.05875 0.0463,-0.01625 0.0713,-0.04125 0.0813,-0.08625 0.0262,-0.09 0.0562,-0.30625 0.0562,-0.34125 -0.002,-0.035 -0.0138,-0.07 -0.0525,-0.07375 z m 2.0975,0 c -0.035,-0.0012 -0.0512,0.03125 -0.0537,0.06875 -0.006,0.04125 -0.0425,0.1125 -0.0838,0.15875 -0.0987,0.10875 -0.21625,0.1275 -0.4475,0.1275 -0.34125,-0.0013 -0.795,-0.2775 -0.79625,-0.86375 0,-0.245 0.0475,-0.4825 0.235,-0.6425 0.115,-0.09625 0.25375,-0.1375 0.48,-0.1375 0.2375,0 0.40875,0.0625 0.4925,0.1425 0.0613,0.06125 0.09,0.145 0.0937,0.22125 0,0.02875 0.008,0.0725 0.0487,0.075 0.0463,-0.0037 0.0538,-0.0475 0.0563,-0.08125 0.002,-0.05125 0.002,-0.19125 0.01,-0.275 0.005,-0.0875 0.0112,-0.1175 0.0125,-0.14 0.001,-0.02625 -0.0262,-0.05 -0.0587,-0.05 -0.0775,-0.01 -0.16125,-0.0275 -0.26,-0.0425 -0.12125,-0.015 -0.22125,-0.02625 -0.385,-0.02625 -0.3925,0 -0.65125,0.10375 -0.845,0.275 -0.25625,0.23 -0.31375,0.5325 -0.31375,0.7075 0,0.2475 0.07,0.54375 0.33625,0.7625 0.2425,0.205 0.55125,0.28 0.91125,0.28 0.17125,0 0.37125,-0.015 0.48125,-0.05875 0.0463,-0.01625 0.0725,-0.04125 0.08,-0.08625 0.0263,-0.09 0.0562,-0.30625 0.0575,-0.34125 -0.001,-0.035 -0.0125,-0.07 -0.0513,-0.07375 z m 2.0975,0 c -0.0338,-0.0012 -0.0513,0.03125 -0.0538,0.06875 -0.007,0.04125 -0.0425,0.1125 -0.0825,0.15875 -0.0988,0.10875 -0.2175,0.1275 -0.44875,0.1275 -0.34,-0.0013 -0.79375,-0.2775 -0.79375,-0.86375 0,-0.245 0.0463,-0.4825 0.23375,-0.6425 0.115,-0.09625 0.25375,-0.1375 0.48125,-0.1375 0.23625,0 0.40875,0.0625 0.4925,0.1425 0.0612,0.06125 0.0925,0.145 0.095,0.22125 0,0.02875 0.006,0.0725 0.0487,0.075 0.0463,-0.0037 0.0537,-0.0475 0.0562,-0.08125 0.003,-0.05125 0.003,-0.19125 0.009,-0.275 0.006,-0.0875 0.0113,-0.1175 0.0113,-0.14 0.002,-0.02625 -0.0238,-0.05 -0.0575,-0.05 -0.0763,-0.01 -0.16125,-0.0275 -0.26125,-0.0425 -0.11875,-0.015 -0.21875,-0.02625 -0.38375,-0.02625 -0.3925,0 -0.65125,0.10375 -0.84625,0.275 -0.25625,0.23 -0.31375,0.5325 -0.31375,0.7075 0,0.2475 0.0712,0.54375 0.33625,0.7625 0.2425,0.205 0.55125,0.28 0.91125,0.28 0.1725,0 0.37125,-0.015 0.4825,-0.05875 0.045,-0.01625 0.0713,-0.04125 0.08,-0.08625 0.0275,-0.09 0.0563,-0.30625 0.0575,-0.34125 -0.004,-0.035 -0.015,-0.07 -0.0537,-0.07375 z m 10.12,0.42375 c -0.0238,0 -0.0637,-0.0025 -0.095,-0.01375 -0.0538,-0.01875 -0.09,-0.04 -0.1325,-0.09375 -0.0613,-0.07625 -0.47375,-0.72625 -0.57375,-0.87875 l 0.425,-0.58125 c 0.08,-0.11125 0.13,-0.17625 0.1775,-0.185 0.0337,-0.0087 0.0662,-0.01375 0.0888,-0.01375 0.0312,0 0.0625,-0.0175 0.0637,-0.04875 -0.002,-0.03875 -0.04,-0.045 -0.07,-0.045 -0.1,0 -0.2075,0.0063 -0.25625,0.0063 -0.05,0 -0.1725,-0.0063 -0.275,-0.0063 -0.0362,0 -0.075,0.0063 -0.0775,0.045 0.001,0.035 0.0312,0.04875 0.0538,0.04875 0.0213,0 0.055,0 0.0775,0.0075 0.0237,0.005 0.03,0.01875 0.03,0.0225 0,0.01625 -0.008,0.04875 -0.0275,0.08 -0.04,0.06625 -0.24375,0.36625 -0.335,0.49875 -0.0987,-0.165 -0.20125,-0.3325 -0.31,-0.5225 -0.0137,-0.025 -0.0263,-0.05875 -0.0263,-0.065 0,-0.0025 0.002,-0.01125 0.0213,-0.01625 0.0187,-0.005 0.045,-0.0075 0.0575,-0.0075 0.0263,0 0.0613,-0.0125 0.0625,-0.04875 -0.002,-0.03875 -0.0413,-0.045 -0.075,-0.045 -0.0987,0 -0.26,0.0063 -0.295,0.0063 -0.12625,0 -0.33625,-0.0063 -0.39875,-0.0063 -0.03,0.0012 -0.0687,0.0012 -0.075,0.0425 0,0.02625 0.02,0.05125 0.0475,0.05125 0.0238,0 0.0637,0.005 0.10375,0.0175 0.085,0.0275 0.1325,0.0775 0.2,0.1775 l 0.45125,0.705 -0.50125,0.68 c -0.09,0.12375 -0.1275,0.15625 -0.1975,0.1775 -0.035,0.0087 -0.075,0.01125 -0.09,0.01125 -0.03,0.0013 -0.0563,0.0225 -0.0563,0.05125 0,0.02875 0.03,0.045 0.06,0.045 h 0.045 c 0.0425,0 0.17125,-0.01 0.22,-0.01 0.065,0 0.23625,0.01 0.25375,0.01 h 0.0475 c 0.0337,0 0.0725,-0.005 0.075,-0.045 -0.002,-0.03125 -0.0263,-0.04875 -0.0538,-0.05125 -0.0188,0 -0.0375,-0.0025 -0.0563,-0.0025 -0.0162,0 -0.0275,-0.0125 -0.0275,-0.0225 0,-0.0012 0,-0.0037 0,-0.0037 0,-0.01875 0.0125,-0.0525 0.035,-0.0875 l 0.36625,-0.56625 c 0.11625,0.18625 0.25125,0.415 0.395,0.65 0.005,0.0087 0.006,0.015 0.006,0.0175 0,0.0063 -0.003,0.0063 -0.003,0.0063 -0.0262,0.0063 -0.0512,0.02625 -0.0512,0.05375 0.007,0.045 0.0475,0.0425 0.1125,0.0475 0.215,0.0063 0.42375,0.0063 0.4875,0.0063 h 0.0775 c 0.03,0 0.0688,-0.01 0.0738,-0.0475 -0.002,-0.0325 -0.03,-0.05125 -0.0563,-0.05125 z m 2.2225,0 c -0.0225,0 -0.0625,-0.0025 -0.095,-0.01375 -0.0538,-0.01875 -0.0888,-0.04 -0.13125,-0.09375 -0.0612,-0.07625 -0.47375,-0.72625 -0.575,-0.87875 l 0.42625,-0.58125 c 0.08,-0.11125 0.13,-0.17625 0.17625,-0.185 0.035,-0.0087 0.0675,-0.01375 0.09,-0.01375 0.0312,0 0.0625,-0.0175 0.0625,-0.04875 -0.001,-0.03875 -0.0387,-0.045 -0.0687,-0.045 -0.0987,0 -0.20625,0.0063 -0.25625,0.0063 -0.05,0 -0.1725,-0.0063 -0.27375,-0.0063 -0.0362,0 -0.0775,0.0063 -0.0775,0.045 0.001,0.035 0.0325,0.04875 0.0537,0.04875 0.0225,0 0.055,0 0.0775,0.0075 0.0238,0.005 0.03,0.01875 0.0288,0.0225 0,0.01625 -0.008,0.04875 -0.0263,0.08 -0.04,0.06625 -0.24375,0.36625 -0.33625,0.49875 -0.0975,-0.16625 -0.2,-0.3325 -0.30875,-0.5225 -0.015,-0.025 -0.0263,-0.05875 -0.025,-0.065 0,-0.0025 0.001,-0.01 0.02,-0.01625 0.02,-0.005 0.045,-0.0075 0.0588,-0.0075 0.0263,0 0.0613,-0.0125 0.0625,-0.04875 -0.002,-0.03875 -0.0412,-0.045 -0.0762,-0.045 -0.0988,0 -0.26,0.0063 -0.2925,0.0063 -0.12625,0 -0.3375,-0.0063 -0.39875,-0.0063 -0.0312,0.0012 -0.0687,0.0012 -0.075,0.0425 0,0.02625 0.0213,0.05125 0.0462,0.05125 0.025,0 0.0663,0.005 0.10375,0.0175 0.0863,0.0275 0.13375,0.0775 0.2,0.1775 l 0.4525,0.705 -0.5025,0.68 c -0.0888,0.12375 -0.12625,0.15625 -0.19625,0.1775 -0.0362,0.0087 -0.075,0.01125 -0.0888,0.01125 -0.0312,0.0013 -0.0562,0.0225 -0.0575,0.05125 0,0.02875 0.0288,0.045 0.06,0.045 h 0.045 c 0.0437,0 0.17125,-0.01 0.22,-0.01 0.065,0 0.23625,0.01 0.25375,0.01 h 0.0475 c 0.0325,0 0.0725,-0.005 0.075,-0.045 -0.002,-0.03125 -0.0263,-0.04875 -0.0538,-0.05125 -0.0187,0 -0.0387,-0.0025 -0.0562,-0.0025 -0.0163,0 -0.0275,-0.01 -0.0288,-0.0225 0,-0.0012 0,-0.0037 0,-0.0037 0,-0.01875 0.0125,-0.0525 0.035,-0.0875 l 0.365,-0.56625 c 0.115,0.18625 0.25125,0.415 0.39625,0.65 0.005,0.0087 0.006,0.015 0.006,0.0175 0,0.005 -0.002,0.0063 -0.002,0.0063 -0.0263,0.0063 -0.0513,0.02625 -0.0513,0.05375 0.007,0.045 0.0475,0.0425 0.1125,0.0475 0.21375,0.0063 0.4225,0.0063 0.48625,0.0063 h 0.0775 c 0.03,0 0.0687,-0.01 0.0725,-0.0475 -0.004,-0.0325 -0.03,-0.05125 -0.0575,-0.05125 z m 2.2225,0 c -0.0238,0 -0.0625,-0.0025 -0.095,-0.01375 -0.0538,-0.01875 -0.09,-0.04 -0.1325,-0.09375 -0.0613,-0.07625 -0.47375,-0.72625 -0.57375,-0.87875 l 0.42625,-0.58125 c 0.0787,-0.11125 0.13,-0.17625 0.17625,-0.185 0.035,-0.0087 0.0663,-0.01375 0.09,-0.01375 0.03,0 0.0613,-0.0175 0.0625,-0.04875 -0.002,-0.03875 -0.04,-0.045 -0.0687,-0.045 -0.0987,0 -0.2075,0.0063 -0.25625,0.0063 -0.05,0 -0.17375,-0.0063 -0.275,-0.0063 -0.035,0 -0.0762,0.0063 -0.0775,0.045 0.001,0.035 0.0312,0.04875 0.0537,0.04875 0.02,0 0.055,0 0.0763,0.0075 0.025,0.005 0.0312,0.01875 0.03,0.0225 0,0.01625 -0.007,0.04875 -0.0263,0.08 -0.04,0.06625 -0.24375,0.36625 -0.33625,0.49875 -0.0987,-0.165 -0.20125,-0.3325 -0.31,-0.5225 -0.0137,-0.025 -0.025,-0.05875 -0.025,-0.065 0,-0.0025 0.003,-0.01125 0.02,-0.01625 0.0188,-0.005 0.045,-0.0075 0.0575,-0.0075 0.0263,0 0.0613,-0.0125 0.0625,-0.04875 -0.002,-0.03875 -0.04,-0.045 -0.075,-0.045 -0.0988,0 -0.26,0.0063 -0.295,0.0063 -0.12375,0 -0.335,-0.0063 -0.39625,-0.0063 -0.0325,0.0012 -0.0712,0.0012 -0.0762,0.0425 0,0.02625 0.0225,0.05125 0.0475,0.05125 0.025,0 0.065,0.005 0.10375,0.0175 0.0863,0.0275 0.13375,0.0775 0.19875,0.1775 l 0.45375,0.705 -0.5025,0.68 c -0.09,0.12375 -0.12625,0.15625 -0.19625,0.1775 -0.0362,0.0087 -0.0737,0.01125 -0.09,0.01125 -0.0287,0.0013 -0.0562,0.0225 -0.0562,0.05125 0,0.02875 0.03,0.045 0.0588,0.045 h 0.045 c 0.0437,0 0.1725,-0.01 0.22125,-0.01 0.065,0 0.235,0.01 0.25125,0.01 h 0.0475 c 0.0337,0 0.0737,-0.005 0.0762,-0.045 -0.002,-0.03125 -0.0263,-0.04875 -0.0538,-0.05125 -0.0212,0 -0.04,-0.0025 -0.0562,-0.0025 -0.0175,0 -0.0288,-0.01 -0.03,-0.0225 v -0.0037 c 0,-0.01875 0.0125,-0.0525 0.035,-0.0875 l 0.36625,-0.56625 c 0.115,0.18625 0.25125,0.415 0.39375,0.65 0.005,0.0087 0.007,0.015 0.007,0.0175 0,0.005 -0.004,0.0063 -0.004,0.0063 -0.0263,0.0063 -0.0513,0.02625 -0.0513,0.05375 0.009,0.045 0.0475,0.04125 0.11375,0.0475 0.215,0.0063 0.42375,0.0063 0.48625,0.0063 h 0.0775 c 0.0312,0 0.07,-0.01 0.0737,-0.0475 -0.001,-0.0325 -0.0275,-0.05125 -0.0538,-0.05125 z m 1.3675,0 c -0.0375,0 -0.0975,-0.0025 -0.13,-0.0087 -0.0712,-0.015 -0.0762,-0.0325 -0.0862,-0.1 -0.0113,-0.105 -0.0113,-0.3075 -0.0113,-0.55 v -0.445 c 0,-0.38625 0,-0.455 0.005,-0.53625 0.009,-0.08625 0.0188,-0.10375 0.0788,-0.1175 0.03,-0.0062 0.0488,-0.0087 0.075,-0.0087 0.0263,0 0.0637,-0.015 0.0637,-0.05125 -0.006,-0.04125 -0.0437,-0.04125 -0.0762,-0.0425 -0.10125,0 -0.2725,0.0063 -0.3375,0.0063 -0.0737,0 -0.2525,-0.0063 -0.35125,-0.0063 -0.0387,0.0012 -0.0775,0 -0.0825,0.0425 0,0.03625 0.035,0.05125 0.0637,0.05125 0.0312,0 0.0625,0.0025 0.0888,0.01125 0.05,0.01875 0.0662,0.03125 0.075,0.115 0.002,0.07875 0.002,0.15 0.002,0.53625 v 0.445 c 0,0.2425 0,0.445 -0.0125,0.5475 -0.0112,0.075 -0.0187,0.09125 -0.0613,0.10375 -0.0225,0.005 -0.05,0.0075 -0.0875,0.0075 -0.0388,0 -0.0638,0.025 -0.0638,0.04875 10e-4,0.03625 0.0388,0.0475 0.0725,0.0475 0.105,0 0.285,-0.01 0.34125,-0.01 0.07,0 0.25,0.01 0.4225,0.01 0.0312,0 0.0687,-0.01 0.0725,-0.0475 0.002,-0.02625 -0.025,-0.04875 -0.0613,-0.04875 z m 1.58875,0 c -0.0375,0 -0.0975,-0.0025 -0.13,-0.0087 -0.07,-0.015 -0.075,-0.0325 -0.0862,-0.1 -0.0125,-0.105 -0.0125,-0.3075 -0.0125,-0.55 v -0.445 c 0,-0.38625 0,-0.455 0.006,-0.53625 0.01,-0.08625 0.0187,-0.10375 0.08,-0.1175 0.0288,-0.0062 0.0488,-0.0087 0.0738,-0.0087 0.0263,0 0.0637,-0.015 0.0637,-0.05125 -0.008,-0.04125 -0.0425,-0.04125 -0.0763,-0.0425 -0.1025,0 -0.2725,0.0063 -0.3375,0.0063 -0.075,0 -0.2525,-0.0063 -0.35125,-0.0063 -0.04,0.0012 -0.0775,0 -0.0837,0.0425 0,0.03625 0.0362,0.05125 0.0625,0.05125 0.0312,0 0.0637,0.0025 0.0887,0.01125 0.05,0.01875 0.065,0.03125 0.075,0.115 0.004,0.07875 0.004,0.15 0.004,0.53625 v 0.445 c 0,0.2425 0,0.445 -0.0137,0.5475 -0.0112,0.075 -0.0188,0.09125 -0.0613,0.10375 -0.0225,0.005 -0.05,0.0075 -0.0863,0.0075 -0.0387,0 -0.0637,0.025 -0.0637,0.04875 0.001,0.03625 0.0375,0.0475 0.0725,0.0475 0.105,0 0.28375,-0.01 0.34125,-0.01 0.0712,0 0.25,0.01 0.4225,0.01 0.0312,0 0.07,-0.01 0.0737,-0.0475 0.001,-0.02625 -0.025,-0.04875 -0.0613,-0.04875 z m 1.58875,0 c -0.0375,0 -0.0962,-0.0025 -0.13,-0.0087 -0.0712,-0.015 -0.0762,-0.0325 -0.0863,-0.1 -0.0125,-0.105 -0.0125,-0.3075 -0.0125,-0.55 v -0.445 c 0,-0.38625 0,-0.455 0.006,-0.53625 0.009,-0.08625 0.0175,-0.10375 0.0787,-0.1175 0.03,-0.0062 0.0488,-0.0087 0.075,-0.0087 0.0262,0 0.0625,-0.015 0.0625,-0.05125 -0.006,-0.04125 -0.0438,-0.04125 -0.075,-0.0425 -0.10125,0 -0.2725,0.0063 -0.3375,0.0063 -0.0737,0 -0.2525,-0.0063 -0.35125,-0.0063 -0.0387,0.0012 -0.0775,0 -0.0825,0.0425 0,0.03625 0.035,0.05125 0.0625,0.05125 0.0312,0 0.0625,0.0025 0.0888,0.01125 0.0513,0.01875 0.0662,0.03125 0.075,0.115 0.002,0.07875 0.002,0.15 0.002,0.53625 v 0.445 c 0,0.2425 0,0.445 -0.0113,0.5475 -0.0112,0.075 -0.0187,0.09125 -0.0613,0.10375 -0.0237,0.005 -0.05,0.0075 -0.0875,0.0075 -0.0388,0 -0.0625,0.025 -0.0625,0.04875 0.001,0.03625 0.0387,0.0475 0.0725,0.0475 0.105,0 0.285,-0.01 0.3425,-0.01 0.07,0 0.25,0.01 0.4225,0.01 0.03,0 0.0688,-0.01 0.0713,-0.0475 0,-0.0275 -0.0263,-0.04875 -0.0625,-0.04875 z M 127.11625,4.8531254 v -1.485 c 0,-0.2775 -0.225,-0.5025 -0.5025,-0.5025 -0.2775,0 -0.5025,0.2275 -0.5025,0.5025 v 1.485 z m 2.72125,0 v -1.485 c 0,-0.2775 -0.225,-0.5025 -0.50125,-0.5025 -0.28,0 -0.50375,0.2275 -0.50375,0.5025 v 1.485 z m -1.86375,-29.8725004 c -0.29,0 -0.5275,0.23625 -0.5275,0.5275 0,0.29125 0.23625,0.5275 0.5275,0.5275 0.29125,0 0.52875,-0.235 0.52875,-0.5275 -0.001,-0.29125 -0.2375,-0.5275 -0.52875,-0.5275 z m -0.26625,14.72125 h 0.5325 v -1.14375 h -0.5325 z m -5.04875,28.859999 c -0.29,0 -0.5275,0.235 -0.5275,0.5275 0,0.2925 0.23625,0.5275 0.5275,0.5275 0.29125,0 0.52875,-0.235 0.52875,-0.5275 0,-0.2925 -0.2375,-0.5275 -0.52875,-0.5275 z m -0.32,-28.839999 v -1.68125 c -0.004,-0.39375 -0.1975,-0.66625 -0.4875,-0.79375 -0.28875,0.1275 -0.4825,0.39875 -0.48625,0.795 v 1.68 z m 0,-5.40125 v -1.085 c -0.004,-0.39375 -0.1975,-0.6675 -0.4875,-0.79625 -0.28875,0.13 -0.4825,0.40125 -0.48625,0.79625 v 1.08375 h 0.97375 z m -0.2275,11.2387504 v -1.40875 c 0,-0.145 -0.11625,-0.26125 -0.26125,-0.26125 -0.145,0 -0.26125,0.11625 -0.26125,0.26125 v 1.40875 z m 0,4.23999998 V -1.6081246 c 0,-0.145 -0.11625,-0.26375 -0.26125,-0.26375 -0.145,0 -0.26125,0.11875 -0.26125,0.26375 v 1.40749998 z M 122.265,4.5368754 v -1.25 c 0,-0.235 -0.18875,-0.42375 -0.4225,-0.42375 -0.235,0 -0.4225,0.18875 -0.4225,0.42375 v 1.25 z m -0.41375,-35.3899994 c -0.29125,0 -0.5275,0.23625 -0.5275,0.5275 0,0.29125 0.235,0.5275 0.5275,0.5275 0.29,0 0.5275,-0.235 0.5275,-0.5275 0,-0.29125 -0.23625,-0.5275 -0.5275,-0.5275 z m 12.72625,20.574999 v -1.68125 c -0.002,-0.39375 -0.1975,-0.66625 -0.48625,-0.79375 -0.28875,0.1275 -0.48375,0.39875 -0.48625,0.795 v 1.68 z m 0,-5.40125 v -1.085 c -0.002,-0.39375 -0.1975,-0.6675 -0.48625,-0.79625 -0.28875,0.13 -0.48375,0.40125 -0.48625,0.79625 v 1.08375 h 0.9725 z m -0.22625,11.2387504 v -1.40875 c 0,-0.145 -0.1175,-0.26125 -0.26125,-0.26125 -0.14375,0 -0.26125,0.11625 -0.26125,0.26125 v 1.40875 z m 0,4.23999998 V -1.6081246 c 0,-0.145 -0.1175,-0.26375 -0.26125,-0.26375 -0.14375,0 -0.26125,0.11875 -0.26125,0.26375 v 1.40749998 z M 134.505,4.5368754 v -1.25 c 0,-0.235 -0.18875,-0.42375 -0.4225,-0.42375 -0.235,0 -0.4225,0.18875 -0.4225,0.42375 v 1.25 z M 134.09,-30.853124 c -0.29125,0 -0.5275,0.23625 -0.5275,0.5275 0,0.29125 0.235,0.5275 0.5275,0.5275 0.29,0 0.5275,-0.235 0.5275,-0.5275 0.001,-0.29125 -0.235,-0.5275 -0.5275,-0.5275 z m 38.905,22.4387494 c -4.7975,0 -5.87875,-2.6125004 -5.87875,-5.5187504 v -9.93375 h 2.9275 v 9.75375 c 0,1.915 0.63125,3.26625 3.15375,3.26625 2.2525,0 3.19875,-0.94625 3.19875,-3.53625 v -9.48375 h 2.90625 v 9.3025 c 0,4.1675 -2.29875,6.1500004 -6.3075,6.1500004 z m 16.3075,-0.2475 v -7.1612504 c 0,-1.1725 -0.31625,-1.87 -1.375,-1.87 -1.465,0 -2.61375,1.6675 -2.61375,3.62625 v 5.4062504 H 182.43 V -19.855625 h 2.72625 c 0,0.51875 -0.0437,1.39625 -0.1575,1.9825 l 0.0238,0.02375 c 0.67625,-1.32875 1.9825,-2.25375 3.8075,-2.25375 2.5225,0 3.3325,1.6225 3.3325,3.58125 v 7.8612504 l -2.86,-0.0012 z m 7.43375,-12.6375004 c -0.99125,0 -1.78,-0.78875 -1.78,-1.75625 0,-0.94625 0.78875,-1.73625 1.78,-1.73625 0.99125,0 1.8,0.76625 1.8,1.73625 0.001,0.96875 -0.80875,1.75625 -1.8,1.75625 z m -1.4425,12.6375004 V -19.856875 h 2.88375 v 11.1950004 z m 11.57874,0 h -2.92874 l -4.1425,-11.1950004 h 3.15125 l 1.78,5.045 c 0.27,0.76625 0.5425,1.6675 0.745,2.4775 h 0.0438 c 0.18125,-0.765 0.405,-1.6225 0.67499,-2.3875 l 1.80125,-5.135 h 3.06375 z m 14.4825,-5.1350004 h -6.93875 c -0.0225,2.095 1.015,3.10625 3.08625,3.10625 1.105,0 2.29875,-0.2475 3.26625,-0.69875 l 0.27,2.2300004 c -1.19375,0.4725 -2.6125,0.72 -4.00875,0.72 -3.56,0 -5.54125,-1.7787504 -5.54125,-5.7200004 0,-3.42375 1.8925,-5.9475 5.2475,-5.9475 3.26375,0 4.70875,2.23 4.70875,5 0,0.385 -0.0225,0.83625 -0.09,1.31 z m -4.70875,-4.19 c -1.19375,0 -2.0275,0.87875 -2.185,2.23 h 4.1225 c 0.045,-1.3975 -0.72,-2.23 -1.9375,-2.23 z m 13.2,0.72 c -2.07125,-0.42875 -3.10625,0.92375 -3.10625,4.0325 v 4.5725004 h -2.885 V -19.856875 h 2.72625 c 0,0.5625 -0.0688,1.46375 -0.2025,2.2525 h 0.045 c 0.54125,-1.41875 1.6225,-2.6575 3.56,-2.5 z m 3.94125,8.8300004 c -0.80875,0 -1.6225,-0.08875 -2.3425,-0.20125 l 0.0687,-2.3662504 c 0.69875,0.18125 1.5525,0.33875 2.41125,0.33875 1.10375,0 1.82375,-0.45125 1.82375,-1.195 0,-1.98125 -4.52625,-0.8575 -4.52625,-4.6625 0,-1.95875 1.5975,-3.58125 4.7525,-3.58125 0.6525,0 1.375,0.09 2.05,0.2025 l -0.0875,2.275 c -0.63125,-0.1825 -1.37625,-0.2925 -2.0725,-0.2925 -1.12625,0 -1.66625,0.45 -1.66625,1.14875 0,1.825 4.595,1.015 4.595,4.64125 -0.005,2.2062504 -1.9425,3.6925004 -5.00625,3.6925004 z m 8.8975,-12.8625004 c -0.99125,0 -1.78,-0.78875 -1.78,-1.75625 0,-0.94625 0.78875,-1.73625 1.78,-1.73625 0.99125,0 1.8,0.76625 1.8,1.73625 10e-4,0.96875 -0.80875,1.75625 -1.8,1.75625 z m -1.44125,12.6375004 V -19.856875 h 2.885 v 11.1950004 z m 10.17875,0.225 c -2.4775,0 -3.26625,-0.90125 -3.26625,-3.5137504 v -5.67625 h -1.91375 v -2.23 h 1.91375 v -3.44625 l 2.88375,-0.76625 v 4.2125 h 2.7275 v 2.23 h -2.7275 v 4.91 c 0,1.44125 0.33875,1.84875 1.32875,1.84875 0.4725,0 0.99125,-0.06875 1.39625,-0.18125 v 2.3200004 c -0.7225,0.18 -1.555,0.2925 -2.3425,0.2925 z m 11.1,-0.225 c 0,-0.65125 0.0238,-1.30625 0.11375,-1.8925004 l -0.0237,-0.02375 c -0.5425,1.2625004 -1.91375,2.1400004 -3.58125,2.1400004 -2.02625,0 -3.2,-1.14875 -3.2,-2.9500004 0,-2.68125 2.6575,-4.09875 6.465,-4.09875 v -0.60875 c 0,-1.17125 -0.5625,-1.77875 -2.18375,-1.77875 -1.015,0 -2.3675,0.33875 -3.31125,0.87875 l -0.2475,-2.41 c 1.12625,-0.405 2.57,-0.7 4.01,-0.7 3.605,0 4.6175,1.465 4.6175,3.8975 v 4.6625 c 0,0.90125 0.0225,1.9587504 0.0675,2.8837504 h -2.72625 z m -3.9625,-13.0412504 c -0.85875,0 -1.55375,-0.7 -1.55375,-1.555 0,-0.87875 0.6975,-1.555 1.55375,-1.555 0.85625,0 1.55375,0.67625 1.55375,1.555 0,0.855 -0.69875,1.555 -1.55375,1.555 z m 3.73875,8.08625 c -3.04125,0 -3.7175,0.87875 -3.7175,1.77875 0,0.72125 0.495,1.19375 1.32875,1.19375 1.41875,0 2.38625,-1.35125 2.38625,-2.7025 l 0.002,-0.27 z m 0.81,-8.08625 c -0.85625,0 -1.55375,-0.7 -1.55375,-1.555 0,-0.87875 0.7,-1.555 1.55375,-1.555 0.85375,0 1.555,0.67625 1.555,1.555 0,0.855 -0.69875,1.555 -1.555,1.555 z m 9.1875,13.2662504 c -2.47625,0 -3.265,-0.90125 -3.265,-3.5137504 v -5.67625 h -1.91375 v -2.23 h 1.91375 v -3.44625 l 2.88375,-0.76625 v 4.2125 h 2.72625 v 2.23 h -2.72625 v 4.91 c 0,1.44125 0.33875,1.84875 1.32875,1.84875 0.47375,0 0.99125,-0.06875 1.395,-0.18125 v 2.3200004 c -0.72125,0.18 -1.55375,0.2925 -2.3425,0.2925 z M 166.5525,15.138124 v -2.2525 l 5.47375,-8.9212486 c 0.315,-0.5175 0.63,-0.9675 0.99125,-1.44125 -0.54125,0.02375 -1.26125,0.045 -2.77125,0.045 h -3.51375 v -2.63500002 h 9.82 V 2.2756254 l -5.78875,9.1449986 c -0.225,0.36 -0.4275,0.69875 -0.6975,1.06 0.3825,-0.045 1.41875,-0.045 3.28875,-0.045 h 3.28875 v 2.7025 z m 19.41125,0 c 0,-0.5175 0.0225,-1.39625 0.13375,-1.9825 l -0.0225,-0.0225 c -0.67625,1.3275 -1.95875,2.2525 -3.80625,2.2525 -2.525,0 -3.33375,-1.6225 -3.33375,-3.58125 V 3.9431254 h 2.86125 v 7.1624986 c 0,1.17125 0.315,1.87 1.39625,1.87 1.46375,0 2.58875,-1.6675 2.58875,-3.6262496 v -5.406249 h 2.885 V 15.138124 Z m -4.5725,-13.0412486 c -0.85625,0 -1.55375,-0.7 -1.55375,-1.55500002 0,-0.8775 0.7,-1.55374998 1.55375,-1.55374998 0.85625,0 1.555,0.67624998 1.555,1.55374998 -0.001,0.85625002 -0.69875,1.55500002 -1.555,1.55500002 z m 4.55,0 c -0.85625,0 -1.55375,-0.7 -1.55375,-1.55500002 0,-0.8775 0.69875,-1.55374998 1.55375,-1.55374998 0.8575,0 1.55375,0.67624998 1.55375,1.55374998 0,0.85625002 -0.6975,1.55500002 -1.55375,1.55500002 z m 11.825,4.43625 c -2.07,-0.42875 -3.10625,0.923749 -3.10625,4.0324986 v 4.5725 h -2.885 V 3.9431254 h 2.7275 c 0,0.5625 -0.0687,1.46375 -0.2025,2.2525 h 0.045 c 0.54,-1.41875 1.62125,-2.6575 3.55875,-2.5 z m 3.66,-4.03125 c -0.99125,0 -1.78,-0.78875 -1.78,-1.75625002 0,-0.945 0.78875,-1.735 1.78,-1.735 0.99125,0 1.8,0.765 1.8,1.735 0.001,0.96750002 -0.81,1.75625002 -1.8,1.75625002 z m -1.4425,12.6362486 V 3.9431254 h 2.88375 V 15.138124 Z m 10.03624,0.2025 c -3.1075,0 -5.04499,-1.62125 -5.04499,-5.4287496 0,-3.491249 1.82499,-6.172499 5.78999,-6.172499 0.765,0 1.57625,0.1125 2.2975,0.315 l -0.29125,2.50125 c -0.6075,-0.22625 -1.3075,-0.40625 -2.0275,-0.40625 -1.825,0 -2.7475,1.351249 -2.7475,3.468749 0,1.9137496 0.74375,3.2212496 2.6575,3.2212496 0.765,0 1.59875,-0.15875 2.20875,-0.47375 l 0.22625,2.45625 c -0.77125,0.295 -1.875,0.51875 -3.06875,0.51875 z m 12.18625,-0.2025 V 7.9768744 c 0,-1.172499 -0.315,-1.869999 -1.375,-1.869999 -1.465,0 -2.61375,1.667499 -2.61375,3.624999 v 5.4062496 h -2.88375 V -1.3056246 h 2.88375 v 4.79875 c 0,0.67625 -0.045,1.6225 -0.2025,2.275 l 0.045,0.02375 c 0.6525,-1.2625 1.9375,-2.09625 3.6725,-2.09625 2.5225,0 3.33375,1.62375 3.33375,3.581249 v 7.8612496 z m 7.32,-10.6074986 c -1.82625,0 -2.26625,-0.985 -2.26625,-2.1325 v -3.715 h 1.32625 v 3.6375 c 0,0.67125 0.2125,1.09625 1.0275,1.09625 0.74875,0 1.0375,-0.315 1.0375,-1.1725 v -3.5625 h 1.30875 v 3.485 c -0.002,1.61625 -0.91125,2.36375 -2.43375,2.36375 z m 3.53625,-0.11 v -1.0375 l 1.84625,-3.08500002 c 0.0913,-0.1525 0.19375,-0.29749999612 0.30375,-0.4425 -0.15,0.0087 -0.34625,0.0175 -0.90125,0.0175 h -1.18875 V -1.3168746 h 3.715 v 1.07874998 l -1.9475,3.12750002 c -0.0688,0.11125 -0.13375,0.205 -0.22125,0.32375 0.11125,-0.0175 0.43375,-0.0175 1.11375,-0.0175 h 1.0875 v 1.22375 l -3.8075,0.0013 z m 8.44875,0 v -2.38875 h -2.1 v 2.38875 h -1.32625 v -5.7375 h 1.32625 v 2.20249998 h 2.1 V -1.3168746 h 1.3275 v 5.7375 z m -143.652491,-9.42125 c 0,-16.6312504 13.482501,-30.1137494 30.113751,-30.1137494 v 0 c 16.6325,0 30.115,13.482499 30.115,30.1137494 v 0 c 0,16.6324986 -13.4825,30.1149986 -30.115,30.1149986 v 0 C 111.34125,25.113124 97.858749,11.630624 97.858749,-5.0006246 Z M 107.205,-25.768125 c -5.315,5.31625 -8.602501,12.65625 -8.602501,20.7675004 v 0 c 0,8.11125 3.286251,15.4512486 8.602501,20.7674986 v 0 c 5.31625,5.315 12.65625,8.60125 20.76625,8.60125 v 0 c 8.11125,0 15.45125,-3.28625 20.7675,-8.60125 v 0 c 5.315,-5.31625 8.6025,-12.6562486 8.6025,-20.7674986 v 0 c 0,-8.1100004 -3.28625,-15.4500004 -8.6025,-20.7662504 v 0 c -5.315,-5.317499 -12.655,-8.604999 -20.76625,-8.604999 v 0 c -8.11125,0 -15.45125,3.2875 -20.7675,8.603749 z m 21.22375,39.693749 h 0.2425 v -0.425 h -0.5775 v 0.94125 H 128.43 Z m -0.45625,-47.079998 c -15.545,0 -28.145001,12.601249 -28.145001,28.1449994 0,15.5462486 12.601251,28.1474986 28.145001,28.1474986 15.545,0 28.145,-12.60125 28.14625,-28.1474986 -0.002,-15.5437504 -12.6025,-28.1449994 -28.14625,-28.1449994 z m -3.11625,52.027498 H 123.58 v 0.425 h 1.27625 v 3.1625 c -6.39,-0.71625 -12.12,-3.61125 -16.4325,-7.9225 -0.61875,-0.61875 -1.20875,-1.26875 -1.7675,-1.94375 0.11375,-0.68625 0.70625,-1.20875 1.42625,-1.20875 0.79875,0 1.44375,0.6475 1.44375,1.445 v 1.3875 h 1.835 v -0.0087 0 -1.38 c 0,-0.8 0.64875,-1.445 1.445,-1.445 0.79875,0 1.44625,0.6475 1.44625,1.445 v 1.3875 h 1.835 v -0.0087 0 -1.38 c 0,-0.8 0.64875,-1.445 1.445,-1.445 0.79625,0 1.44625,0.6475 1.44625,1.445 v 1.3875 h 1.835 v -0.0087 0 -1.38 c 0,-0.8 0.6475,-1.445 1.44625,-1.445 0.79875,0 1.44375,0.6475 1.44375,1.445 v 1.3875 h 1.1525 v 4.65875 z m 5.245,3.68125 c -0.7025,0.055 -1.4125,0.08125 -2.12875,0.08125 -0.71375,0 -1.425,-0.02625 -2.125,-0.07875 l -0.5225,-3.2575 h 0.60125 c -0.15,-0.3575 -0.41125,-0.9825 -0.51125,-1.23625 -0.1625,-0.4075 -0.04,-0.6775 0.23125,-0.7825 0.26375,-0.1025 0.56125,0.0425 0.65375,0.39 l 0.26375,0.99 H 126.95 v 0.63875 0 0.1275 h -0.91125 v 0.42625 h 1.3325 l 10e-4,-0.55125 h 1.61625 l -10e-4,-0.63875 h 0.3875 l 0.26625,-0.99 c 0.0937,-0.3475 0.39375,-0.495 0.66,-0.39 0.2725,0.105 0.39375,0.375 0.2325,0.7825 -0.0437,0.11125 -0.11625,0.29375 -0.1925,0.495 l -0.36,0.86875 h -0.9725 v 0.42625 h 1.25625 l 0.23,-0.55125 h 0.13 z m -3.00375,-9.31375 h 1.75 c 0.0687,0.16125 0.235,0.5675 0.33875,0.80375 0.0712,0.16375 0.1625,0.33875 0.0513,0.52 -0.1325,0.21375 -0.30625,0.1825 -0.4275,0.17375 -0.007,-0.0012 -0.015,0 -0.0225,-0.0012 -0.1225,0.33625 -0.44,0.57375 -0.81625,0.57375 -0.37625,0 -0.69375,-0.2375 -0.815,-0.57375 -0.006,0.0012 -0.0162,0 -0.0225,0.0012 -0.1225,0.01125 -0.29375,0.04 -0.4275,-0.17375 -0.11125,-0.18125 -0.02,-0.35625 0.0512,-0.52 0.10625,-0.23625 0.2725,-0.64375 0.34,-0.80375 z m -0.26375,-1.8175 0.55875,0.80125 0.5725,-1.08625 0.5725,1.08625 0.56,-0.80125 -0.2225,1.38875 h -1.82 z m 0.66875,3.9325 c 0.13125,0.36625 0.48125,0.63 0.89375,0.63 0.445,0 0.8175,-0.30875 0.92,-0.725 0.2775,0.015 0.5525,0.09375 0.82625,0.32625 0.26375,0.22125 0.36625,0.6 0.40375,0.79 h -5.145 c 0.0362,-0.1875 0.14,-0.56875 0.40375,-0.79 0.56375,-0.475 1.13875,-0.32 1.6975,-0.23125 z m 2.12375,1.445 c -0.19375,0.7325 -0.86,1.27375 -1.6525,1.27375 -0.7925,0 -1.45875,-0.54125 -1.65125,-1.27375 z M 147.52,14.539374 c -4.3125,4.31125 -10.04125,7.205 -16.43125,7.92125 v -3.1625 h 1.16875 c 2.16375,0 3.72875,-0.1825 3.72875,-0.1825 0,0 -1.61125,-0.2425 -3.72875,-0.2425 h -1.16875 v -4.65125 h 1.39625 v -0.0087 0 -1.38 c 0,-0.8 0.64875,-1.445 1.44625,-1.445 0.7975,0 1.44625,0.64875 1.44625,1.445 v 1.3875 h 1.83375 v -0.0088 0 -1.38 c 0,-0.8 0.6475,-1.445 1.445,-1.445 0.7975,0 1.44375,0.64875 1.44375,1.445 v 1.3875 h 1.83625 v -0.0087 0 -1.38 c 0,-0.8 0.6475,-1.445 1.445,-1.445 0.8,0 1.445,0.64875 1.445,1.445 v 1.3875 h 1.835 v -0.0087 0 -1.38 c 0,-0.8 0.64875,-1.445 1.44625,-1.445 0.6325,0 1.17125,0.4075 1.365,0.975 -0.61,0.7625 -1.2625,1.49 -1.9525,2.18 z m 2.265,-2.5625 c -0.32125,-0.67625 -1.01,-1.145 -1.80625,-1.145 -1.10625,0 -2.0025,0.8975 -2.0025,2.00375 v 0.64625 h -0.72375 v -0.64625 c 0,-1.10625 -0.89625,-2.00375 -2.00125,-2.00375 -1.105,0 -2.0025,0.8975 -2.0025,2.00375 v 0.64625 h -0.725 v -0.64625 c 0,-1.10625 -0.89625,-2.00375 -2.00125,-2.00375 -1.105,0 -2.00125,0.8975 -2.00125,2.00375 v 0.64625 h -0.725 v -0.64625 c 0,-1.10625 -0.8975,-2.00375 -2.0025,-2.00375 -1.105,0 -2.00125,0.8975 -2.00125,2.00375 v 0.64625 h -0.7475 c -0.2275,-1.4975 -1.51625,-2.6475 -3.0775,-2.6475 -1.56125,0 -2.84875,1.15 -3.0775,2.6475 h -0.7675 v -0.64625 c 0,-1.10625 -0.8975,-2.00375 -2.0025,-2.00375 -1.105,0 -2.00125,0.8975 -2.00125,2.00375 v 0.64625 h -0.725 v -0.64625 c 0,-1.10625 -0.895,-2.00375 -2.0025,-2.00375 -1.105,0 -2.00125,0.8975 -2.00125,2.00375 v 0.64625 h -0.725 v -0.64625 c 0,-1.10625 -0.89625,-2.00375 -2.00125,-2.00375 -1.10625,0 -2.0025,0.8975 -2.0025,2.00375 v 0.64625 h -0.7125 v -0.64625 c 0,-1.10625 -0.89625,-2.00375 -2.00125,-2.00375 -0.7925,0 -1.47625,0.46125 -1.8,1.12875 -0.4875,-0.62625 -0.9475,-1.275 -1.38,-1.9425 h 46.41125 c -0.4375,0.67375 -0.90125,1.3275 -1.39375,1.95875 z m 1.8575,-2.6974996 h -47.34 c -0.1375,-0.22875 -0.27125,-0.4575 -0.4025,-0.69125 h 48.14625 c -0.13375,0.2325 -0.26625,0.46375 -0.40375,0.69125 z m -28.44,-35.5324984 v 0.23375 c -0.006,0.04625 -0.0187,0.115 -0.0425,0.179999 -0.04,0.10625 -0.13875,0.27625 -0.27125,0.4825 -0.05,0.08 -0.1375,0.2175 -0.235,0.4125 -0.12625,-0.1925 -0.2325,-0.32 -0.3075,-0.39875 -0.0825,-0.0875 -0.1925,-0.2 -0.285,-0.3075 -0.19625,-0.23375 -0.2075,-0.372499 -0.2075,-0.372499 v 0 c 0,0 -0.006,0.137499 -0.20375,0.371249 -0.0913,0.10625 -0.20125,0.21875 -0.285,0.3075 -0.0775,0.07875 -0.18375,0.20875 -0.3125,0.40625 -0.1,-0.20125 -0.18875,-0.34 -0.24,-0.42625 -0.13125,-0.20625 -0.23125,-0.375 -0.27125,-0.48125 -0.0375,-0.101249 -0.0513,-0.217499 -0.0525,-0.229999 v -0.1775 z m -2.7075,-0.425 c 0.0212,-0.34625 0.115,-1.00625 0.4525,-1.455 0.255,-0.3475 0.50875,-0.55375 0.69625,-0.675 0.085,-0.05625 0.15375,-0.09 0.2025,-0.11375 0.05,0.025 0.11875,0.0575 0.205,0.11375 0.18375,0.12125 0.44,0.3275 0.69625,0.675 0.33875,0.44875 0.43125,1.10875 0.4525,1.455 z m 2.80625,1.548749 c 0.0775,0.10625 0.15625,0.26125 0.2425,0.44875 0.12,0.29125 0.15125,0.5775 0.155,0.7875 v 3.115 h -0.8025 c 0,-0.685 0,-2.195 0,-3.11375 0.003,-0.21375 0.0413,-0.51125 0.155,-0.79 0.1,-0.22 0.1775,-0.345 0.25,-0.4475 z m -0.84,1.2575 -0.001,3.095 h -1.2175 c 0,-0.86125 -0.001,-3.09625 -0.001,-3.0975 0.01,-0.2025 0.0263,-0.4825 0.1725,-0.77125 0.1525,-0.3025 0.4425,-0.4825 0.4425,-0.4825 h 10e-4 c 0,0 0.27375,0.18 0.4275,0.4825 0.15375,0.30375 0.1675,0.56625 0.17625,0.77375 z m -1.79625,-0.81375 c 0.11375,0.28 0.1325,0.58125 0.13625,0.795 l 0.004,3.11375 h -0.7925 v -3.11875 c 0.004,-0.21 0.0263,-0.495 0.145,-0.78875 0.0875,-0.18625 0.1725,-0.34125 0.24375,-0.4475 0.09,0.13125 0.17625,0.25875 0.26375,0.44625 z m 3.64875,4.4175 v 1.00875 h -4.92625 v -1.00875 z m 0,1.43125 v 3.92625 h -1.1925 v -1.76625 c 10e-4,-0.58625 -0.21625,-1.0825 -0.57375,-1.4225 -0.19125,-0.18375 -0.4225,-0.3225 -0.6775,-0.41 -0.0162,-0.005 -0.015,-0.0063 -0.015,-0.0063 0,0 -0.002,0 -0.0187,0.0063 -0.255,0.0875 -0.4875,0.22625 -0.67875,0.41 -0.3575,0.33875 -0.57375,0.83625 -0.5725,1.4225 v 1.7675 h -1.1975 v -3.92625 l 4.92625,-0.0012 z m -1.6175,2.16 v 1.7675 h -1.6875 v -1.7675 c 0.006,-0.6825 0.34,-1.15625 0.84375,-1.37875 0.50125,0.22125 0.8375,0.695 0.84375,1.37875 z m 1.6175,2.19125 v 4.9937504 h -1.095 v -2.4937504 c 0,-0.585 -0.22,-1.09375 -0.5875,-1.44375 -0.19625,-0.1875 -0.43,-0.32875 -0.6875,-0.41625 -0.0137,-0.0063 -0.0925,-0.03 -0.0925,-0.03 0,0 -0.0775,0.025 -0.0837,0.0275 -0.25875,0.0875 -0.495,0.23125 -0.69375,0.41875 -0.3675,0.34875 -0.58875,0.86 -0.5875,1.4425 v 2.4937504 h -1.1 v -4.9937504 l 4.9275,0.0012 z m -1.52,2.50375 v 2.4900004 H 120.91 v -2.4937504 c 0,-0.48 0.17625,-0.8675 0.455,-1.13625 0.1375,-0.13125 0.30125,-0.23125 0.48625,-0.30125 h 0.001 c 0.18375,0.0725 0.345,0.17 0.48375,0.3 0.2825,0.26875 0.455,0.65625 0.45625,1.1375 z m 1.52,2.9150004 v 5.94375 h -4.92625 v -5.94375 z m 0,6.36875 v 3.87875 h -4.92625 v -3.87875 z m 0,4.3025 v 6.558749 h -4.92625 v -6.558749 z m 4.3375,-16.0462504 v 1.77 l -0.6775,-0.6775 -0.67625,0.67625 v -1.76875 z m -1.335,-0.51 0.495,-2.1175 0.20375,-3.54375 0.1225,3.54125 0.495,2.12 z m 0.6575,2.3225 3.13875,3.1375004 h -6.27625 z m 3.13875,3.5625004 v 2.40125 h -6.29625 v -2.40125 z m 0,3.145 v 2.7975 h -1.96875 v -0.70125 c 0,-0.645 -0.52375,-1.1725 -1.1725,-1.1725 -0.64625,0 -1.17125,0.52625 -1.17125,1.1725 v 0.70125 h -1.98625 v -2.7975 z m -4.31,3.22375 v 2.49749998 h 2.34125 V -2.6981246 h 1.96875 v 3.87875 h -6.29625 v -3.87875 z m 4.31,4.3025 v 6.558749 h -6.29625 v -6.558749 z m 4.33,-27.8574994 v 0.23375 c -0.006,0.0475 -0.0213,0.11625 -0.0437,0.181249 -0.04,0.105 -0.13875,0.27375 -0.27125,0.48 -0.05,0.08 -0.1375,0.2175 -0.235,0.4125 -0.12625,-0.19125 -0.2325,-0.32 -0.3075,-0.3975 -0.0813,-0.0875 -0.1925,-0.2 -0.285,-0.3075 -0.1975,-0.23375 -0.2075,-0.372499 -0.2075,-0.372499 v 0 c 0,0 -0.006,0.137499 -0.20375,0.371249 -0.0912,0.10625 -0.20125,0.21875 -0.285,0.3075 -0.0775,0.07875 -0.18375,0.20875 -0.3125,0.40625 -0.1,-0.20125 -0.18875,-0.34 -0.24,-0.42625 -0.13125,-0.20625 -0.23125,-0.375 -0.27125,-0.48125 -0.0387,-0.102499 -0.0513,-0.221249 -0.0525,-0.231249 v -0.17625 z m -2.7075,-0.425 c 0.0212,-0.34625 0.115,-1.00625 0.4525,-1.455 0.255,-0.3475 0.50875,-0.55375 0.69625,-0.675 0.085,-0.05625 0.1525,-0.09 0.2025,-0.11375 0.05,0.025 0.11875,0.0575 0.20375,0.11375 0.18375,0.12125 0.44,0.3275 0.69625,0.675 0.33875,0.44875 0.43125,1.10875 0.4525,1.455 z m 2.80625,1.548749 c 0.0763,0.10625 0.15625,0.26125 0.24125,0.44875 0.12,0.29125 0.15125,0.5775 0.155,0.7875 v 3.115 h -0.8025 c 0,-0.685 0,-2.195 0,-3.11375 0.004,-0.21375 0.0413,-0.51125 0.15625,-0.79 0.0987,-0.22 0.1775,-0.345 0.25,-0.4475 z m -0.84125,1.2575 -10e-4,3.095 h -1.215 c 0,-0.86125 -0.001,-3.09625 -0.001,-3.0975 0.01,-0.2025 0.0263,-0.4825 0.1725,-0.77125 0.1525,-0.3025 0.4425,-0.4825 0.4425,-0.4825 h 10e-4 c 0,0 0.27375,0.18 0.4275,0.4825 0.15125,0.30375 0.165,0.56625 0.17375,0.77375 z m -1.79625,-0.81375 c 0.11375,0.28 0.1325,0.58125 0.13625,0.795 l 0.004,3.11375 h -0.79375 v -3.11875 c 0.005,-0.21 0.0262,-0.495 0.145,-0.78875 0.0875,-0.18625 0.1725,-0.34125 0.2425,-0.4475 0.0937,0.13125 0.17875,0.25875 0.26625,0.44625 z m 3.65,4.4175 v 1.00875 h -4.92625 v -1.00875 z m 0,1.43125 v 3.92625 h -1.1925 v -1.76625 c 0,-0.58625 -0.21625,-1.0825 -0.57375,-1.4225 -0.19125,-0.18375 -0.42375,-0.3225 -0.67875,-0.41 -0.0162,-0.005 -0.015,-0.0063 -0.015,-0.0063 0,0 -0.002,0 -0.0188,0.0063 -0.255,0.0875 -0.4875,0.22625 -0.67875,0.41 -0.3575,0.33875 -0.57375,0.83625 -0.57375,1.4225 v 1.7675 h -1.1975 v -3.92625 l 4.92875,-0.0012 z m -1.6175,2.16 v 1.7675 h -1.68875 v -1.7675 c 0.006,-0.6825 0.34,-1.15625 0.84375,-1.37875 0.5025,0.22125 0.83875,0.695 0.845,1.37875 z m 1.6175,2.19125 v 4.9937504 h -1.095 v -2.4937504 c 0,-0.585 -0.22,-1.09375 -0.5875,-1.44375 -0.19625,-0.1875 -0.43,-0.32875 -0.6875,-0.41625 -0.0125,-0.0063 -0.0925,-0.03 -0.0925,-0.03 0,0 -0.0775,0.025 -0.085,0.0275 -0.25875,0.0875 -0.495,0.23125 -0.69375,0.41875 -0.3675,0.34875 -0.5875,0.86 -0.5875,1.4425 v 2.4937504 h -1.1 v -4.9937504 l 4.92875,0.0012 z m -1.52,2.50375 v 2.4900004 h -1.8825 v -2.4937504 c 0,-0.48 0.17625,-0.8675 0.455,-1.13625 0.1375,-0.13125 0.30125,-0.23125 0.485,-0.30125 h 0.001 c 0.18375,0.0725 0.34625,0.17 0.485,0.3 0.28125,0.26875 0.455,0.65625 0.45625,1.1375 v 0.0038 z m 1.52,2.9150004 v 5.94375 h -4.92625 v -5.94375 z m 0,6.36875 v 3.87875 h -4.92625 v -3.87875 z m 0,4.3025 v 6.558749 h -4.92625 v -6.558749 z m 0.7575,6.558749 V -20.778125 H 136.69 v -3.19 c -0.006,-0.39625 -0.0637,-0.64875 -0.23875,-1.055 -0.045,-0.1025 -0.10875,-0.215 -0.18125,-0.3275 v -1.152499 c 0,0 -0.001,-0.90625 -0.375,-1.5875 -0.40625,-0.74375 -1.195,-1.15 -1.58,-1.31125 -0.0875,-0.04125 -0.14625,-0.06 -0.1575,-0.0625 l -0.0637,-0.02375 -0.0788,0.02375 c -0.0375,0.01125 -0.66125,0.20875 -1.255,1.015 -0.5375,0.74125 -0.555,1.6925 -0.56,1.95375 0,0.0425 0.001,0.0675 0.001,0.07125 v 1.063749 c -0.0725,0.105 -0.1725,0.26375 -0.2825,0.4975 -0.165,0.405 -0.17625,0.78 -0.1825,1.005 v 3.08125 h -0.625 v 10.565 l -1.71,-1.70875 v -3.01625 l -0.58,-1.9475 -0.85,-6.67625 v 0 l -0.62625,6.39625 -0.5825,2.2275 v 2.7925 l -1.6925,1.69375 v -10.33125 h -0.62125 v -3.18625 c -0.006,-0.39625 -0.0637,-0.64875 -0.24,-1.055 -0.0437,-0.1025 -0.10875,-0.215 -0.18,-0.3275 v -1.152499 c 0,0 -10e-4,-0.90625 -0.375,-1.5875 -0.4075,-0.74375 -1.19625,-1.15 -1.58,-1.31125 -0.0875,-0.04125 -0.14625,-0.06 -0.1575,-0.0625 l -0.0637,-0.02375 -0.0787,0.02375 c -0.0388,0.01125 -0.66125,0.20875 -1.25625,1.015 -0.5375,0.74125 -0.555,1.6925 -0.56,1.95375 0,0.0425 0,0.0675 0,0.07125 v 1.063749 c -0.0725,0.105 -0.1725,0.26375 -0.2825,0.4975 -0.16375,0.405 -0.17625,0.78 -0.18125,1.005 v 3.08125 h -0.625 V 8.1618744 h -15.20245 c -2.1275,-3.916249 -3.34,-8.40124902 -3.34,-13.172499 0,-7.6325004 3.09375,-14.5437504 8.09625,-19.5487504 5.00375,-5.002499 11.91375,-8.098749 19.54875,-8.098749 7.635,0 14.54625,3.095 19.55,8.098749 5.0025,5.00375 8.0975,11.91375 8.0975,19.5487504 0,4.77124998 -1.2125,9.25625 -3.34,13.172499 l -14.9675,0.0012 z"
         id="path1-5"
         style="stroke-width:1.25" /></g></g></svg>
