<?xml version="1.0" encoding="UTF-8"?>
<!-- Generator: Adobe Illustrator 27.5.0, SVG Export Plug-In . SVG Version: 6.00 Build 0)  -->
<svg width="603.05" height="477.34" version="1.1" viewBox="0 0 603.05 477.34" xml:space="preserve" xmlns="http://www.w3.org/2000/svg">


<g transform="translate(-88.575 -261.33)">
		
			
				
					
						<linearGradient id="SVGID_00000159452824665994197250000009217178661396245376_" x1="-500.95" x2="-490.64" y1="-437.18" y2="-447.49" gradientTransform="translate(712.21 712.21)" gradientUnits="userSpaceOnUse">
						<stop style="stop-color:#808080" offset="0"/>
						<stop style="stop-color:#BABABA" offset=".2847"/>
						<stop style="stop-color:#CECECE" offset=".3665"/>
						<stop style="stop-color:#E9E9E9" offset=".4975"/>
						<stop style="stop-color:#F9F9F9" offset=".6144"/>
						<stop style="stop-color:#fff" offset=".7043"/>
						<stop style="stop-color:#FCFCFC" offset=".8294"/>
						<stop style="stop-color:#F2F2F2" offset=".927"/>
						<stop style="stop-color:#E5E5E5" offset="1"/>
					</linearGradient>
					<path d="m218.18 261.33v17.093c-4.715 0-8.539-3.832-8.539-8.547 0-4.722 3.824-8.546 8.539-8.546z" style="fill:url(#SVGID_00000159452824665994197250000009217178661396245376_)"/>
				
				
					<linearGradient id="SVGID_00000111871672069045728750000008269766367772507045_" x1="-327.91" x2="-327.91" y1="-433.79" y2="-450.88" gradientTransform="translate(712.21 712.21)" gradientUnits="userSpaceOnUse">
					<stop style="stop-color:#808080" offset="0"/>
					<stop style="stop-color:#BABABA" offset=".2847"/>
					<stop style="stop-color:#CECECE" offset=".3665"/>
					<stop style="stop-color:#E9E9E9" offset=".4975"/>
					<stop style="stop-color:#F9F9F9" offset=".6144"/>
					<stop style="stop-color:#fff" offset=".7043"/>
					<stop style="stop-color:#FCFCFC" offset=".8294"/>
					<stop style="stop-color:#F2F2F2" offset=".927"/>
					<stop style="stop-color:#E5E5E5" offset="1"/>
				</linearGradient>
				<polygon points="218.18 261.33 534.34 261.33 550.42 264.47 550.42 275.28 534.34 278.42 218.18 278.42" style="fill:url(#SVGID_00000111871672069045728750000008269766367772507045_)"/>
				
					<linearGradient id="SVGID_00000111886552429829418680000001233922229791817367_" x1="-152.15" x2="-152.15" y1="-437.07" y2="-447.6" gradientTransform="translate(712.21 712.21)" gradientUnits="userSpaceOnUse">
					<stop style="stop-color:#808080" offset="0"/>
					<stop style="stop-color:#BABABA" offset=".2847"/>
					<stop style="stop-color:#CECECE" offset=".3665"/>
					<stop style="stop-color:#E9E9E9" offset=".4975"/>
					<stop style="stop-color:#F9F9F9" offset=".6144"/>
					<stop style="stop-color:#fff" offset=".7043"/>
					<stop style="stop-color:#FCFCFC" offset=".8294"/>
					<stop style="stop-color:#F2F2F2" offset=".927"/>
					<stop style="stop-color:#E5E5E5" offset="1"/>
				</linearGradient>
				<path d="m567.28 271.97-16.171 3.169v-10.533l16.171 3.169c2.303 0.45 2.303 3.746 0 4.195z" style="fill:url(#SVGID_00000111886552429829418680000001233922229791817367_)"/>
			
			
				<linearGradient id="SVGID_00000109750091941793520660000014236005614661081482_" x1="-161.44" x2="-161.44" y1="-436.93" y2="-447.73" gradientTransform="translate(712.21 712.21)" gradientUnits="userSpaceOnUse">
				<stop style="stop-color:#808080" offset="0"/>
				<stop style="stop-color:#898989" offset=".0295"/>
				<stop style="stop-color:#9F9F9F" offset=".1177"/>
				<stop style="stop-color:#AEAEAE" offset=".215"/>
				<stop style="stop-color:#B7B7B7" offset=".3274"/>
				<stop style="stop-color:#BABABA" offset=".4894"/>
				<stop style="stop-color:#B7B7B7" offset=".6699"/>
				<stop style="stop-color:#AEAEAE" offset=".8009"/>
				<stop style="stop-color:#9E9E9E" offset=".9159"/>
				<stop style="stop-color:#8D8D8D" offset="1"/>
			</linearGradient>
			<polygon points="551.11 275.14 550.42 275.28 550.42 264.47 551.11 264.61" style="fill:url(#SVGID_00000109750091941793520660000014236005614661081482_)"/>
		
		
			
				
					<path d="m691.26 301.45c-0.102-1.056-0.268-2.082-0.497-3.091-0.039-0.205-0.087-0.402-0.142-0.599-0.039-0.173-0.087-0.355-0.134-0.52-0.489-1.798-1.175-3.516-2.026-5.133-0.095-0.181-0.189-0.355-0.284-0.528-0.394-0.71-0.82-1.396-1.277-2.066-0.11-0.15-0.221-0.307-0.331-0.465-0.205-0.284-0.418-0.568-0.639-0.844-0.568-0.725-1.175-1.411-1.821-2.074-0.142-0.15-0.284-0.292-0.434-0.434-0.071-0.079-0.15-0.15-0.221-0.213-0.071-0.071-0.142-0.142-0.213-0.197-0.221-0.221-0.449-0.426-0.686-0.623-0.213-0.189-0.442-0.379-0.67-0.56-0.095-0.079-0.189-0.158-0.284-0.229-0.055-0.047-0.11-0.095-0.173-0.134-0.244-0.189-0.489-0.379-0.741-0.56-0.024-8e-3 -0.039-0.024-0.063-0.047-0.3-0.213-0.615-0.418-0.922-0.623-0.031-0.016-0.063-0.039-0.095-0.063-0.307-0.197-0.615-0.386-0.93-0.56-0.339-0.205-0.694-0.394-1.049-0.583-0.055-0.032-0.11-0.055-0.166-0.087-0.3-0.158-0.607-0.307-0.915-0.441-0.363-0.173-0.733-0.331-1.104-0.481-0.37-0.158-0.749-0.3-1.135-0.434-1.143-0.41-2.326-0.733-3.54-0.962-0.41-0.087-0.82-0.158-1.23-0.213-0.363-0.055-0.717-0.103-1.08-0.134-0.055 0-0.118-8e-3 -0.174-0.016-0.181-0.024-0.371-0.04-0.56-0.04-0.229-0.024-0.457-0.039-0.686-0.047-0.394-0.024-0.789-0.032-1.191-0.032h-551.5c-0.402 0-0.796 8e-3 -1.19 0.032-0.229 8e-3 -0.457 0.024-0.686 0.047-0.189 0-0.379 0.016-0.56 0.04-0.055 8e-3 -0.118 0.016-0.173 0.016-0.363 0.031-0.718 0.079-1.08 0.134-0.41 0.055-0.82 0.126-1.23 0.213-1.214 0.229-2.397 0.552-3.54 0.962-0.386 0.134-0.765 0.276-1.135 0.434-0.371 0.15-0.741 0.307-1.104 0.481-0.308 0.134-0.615 0.284-0.915 0.441-0.055 0.032-0.11 0.055-0.166 0.087-0.355 0.189-0.71 0.378-1.049 0.583-0.315 0.173-0.623 0.363-0.93 0.56-0.032 0.024-0.063 0.047-0.095 0.063-0.307 0.205-0.623 0.41-0.923 0.623-0.024 0.024-0.039 0.039-0.063 0.047-0.252 0.181-0.497 0.37-0.741 0.56-0.063 0.039-0.118 0.087-0.174 0.134-0.095 0.071-0.189 0.15-0.284 0.229-0.229 0.181-0.457 0.371-0.67 0.56-0.237 0.197-0.465 0.402-0.686 0.623-0.071 0.055-0.142 0.126-0.213 0.197-0.071 0.063-0.15 0.134-0.221 0.213-0.15 0.142-0.292 0.284-0.434 0.434-0.647 0.662-1.254 1.348-1.821 2.074-0.221 0.276-0.434 0.56-0.639 0.844-0.11 0.158-0.221 0.315-0.331 0.465-0.457 0.67-0.883 1.356-1.277 2.066-0.095 0.173-0.189 0.347-0.284 0.528-0.852 1.616-1.537 3.335-2.026 5.133-0.047 0.166-0.095 0.347-0.134 0.52-0.055 0.197-0.103 0.394-0.142 0.599-0.229 1.009-0.394 2.034-0.497 3.091-0.024 0.197-0.039 0.402-0.055 0.599-0.047 0.631-0.071 1.269-0.071 1.908v408.94c0 0.639 0.024 1.277 0.071 1.908 0.016 0.181 0.032 0.355 0.047 0.536 0.103 1.072 0.268 2.129 0.505 3.162 0.039 0.197 0.087 0.394 0.142 0.591 0.032 0.142 0.071 0.292 0.11 0.441 0.489 1.829 1.183 3.572 2.05 5.212 0.087 0.181 0.181 0.355 0.284 0.528 0.197 0.363 0.402 0.71 0.623 1.057 0.095 0.158 0.197 0.323 0.308 0.481 0.102 0.166 0.213 0.331 0.331 0.497 0.307 0.457 0.639 0.907 0.986 1.34 0.15 0.197 0.3 0.378 0.457 0.56 0.229 0.292 0.481 0.568 0.733 0.852 0.15 0.166 0.3 0.323 0.457 0.481 0.26 0.284 0.544 0.56 0.828 0.828 8e-3 8e-3 0.016 0.023 0.032 0.031 0.568 0.544 1.159 1.057 1.782 1.545 0.016 8e-3 0.024 0.016 0.039 0.031 0.923 0.733 1.9 1.395 2.925 1.987 0.339 0.205 0.694 0.402 1.049 0.583 0.055 0.024 0.11 0.055 0.166 0.087 0.3 0.158 0.607 0.307 0.915 0.441 0.363 0.174 0.733 0.339 1.104 0.481 0.378 0.158 0.757 0.3 1.135 0.434 0.371 0.134 0.749 0.26 1.127 0.37 0.016 0 0.039 8e-3 0.063 0.016 0.378 0.118 0.765 0.221 1.151 0.315 0.394 0.103 0.796 0.189 1.198 0.26 0.41 0.087 0.82 0.158 1.23 0.213 0.363 0.055 0.717 0.103 1.08 0.134 0.055 0 0.118 8e-3 0.173 0.016 0.591 0.055 1.183 0.095 1.782 0.11 0.221 8e-3 0.434 8e-3 0.654 8e-3h551.5c0.221 0 0.434 0 0.654-8e-3 0.599-0.016 1.191-0.055 1.782-0.11 0.055-8e-3 0.118-0.016 0.174-0.016 0.363-0.031 0.717-0.079 1.08-0.134 0.41-0.055 0.82-0.126 1.23-0.213 0.402-0.071 0.804-0.158 1.198-0.26 0.386-0.094 0.773-0.197 1.151-0.315 0.024-8e-3 0.047-0.016 0.063-0.016 0.378-0.11 0.757-0.237 1.128-0.37 0.379-0.134 0.757-0.276 1.135-0.434 0.371-0.142 0.741-0.307 1.104-0.481 0.308-0.134 0.615-0.284 0.915-0.441 0.055-0.032 0.11-0.063 0.166-0.087 0.355-0.181 0.71-0.378 1.049-0.583 1.025-0.591 2.003-1.254 2.925-1.987 0.016-0.016 0.024-0.024 0.039-0.031 0.623-0.489 1.214-1.001 1.782-1.545 0.016-8e-3 0.024-0.024 0.032-0.031 0.284-0.268 0.568-0.544 0.828-0.828 0.158-0.157 0.307-0.315 0.457-0.481 0.252-0.284 0.504-0.56 0.733-0.852 0.158-0.181 0.307-0.363 0.457-0.56 0.347-0.434 0.678-0.883 0.985-1.34 0.118-0.165 0.229-0.331 0.331-0.497 0.11-0.158 0.213-0.323 0.307-0.481 0.221-0.347 0.426-0.694 0.623-1.057 0.103-0.173 0.197-0.347 0.284-0.528 0.867-1.64 1.561-3.382 2.05-5.212 0.039-0.15 0.079-0.299 0.11-0.441 0.055-0.197 0.103-0.394 0.142-0.591 0.237-1.033 0.402-2.09 0.505-3.162 0.016-0.181 0.032-0.355 0.047-0.536 0.047-0.631 0.071-1.269 0.071-1.908v-408.94c0-0.639-0.024-1.277-0.071-1.908-0.013-0.197-0.029-0.402-0.052-0.599zm-2.239 411.45c0 12.781-10.392 23.172-23.172 23.172h-551.5c-12.781 0-23.172-10.392-23.172-23.172v-408.94c0-12.781 10.392-23.172 23.172-23.172h551.5c12.781 0 23.172 10.392 23.172 23.172v408.94z" style="fill:none"/>
					<path d="m665.85 278.18h-551.5c-14.216 0-25.774 11.566-25.774 25.774v408.94c0 14.208 11.558 25.774 25.774 25.774h551.5c14.208 0 25.774-11.566 25.774-25.774v-408.94c1e-3 -14.207-11.566-25.774-25.774-25.774zm25.538 434.72c0 0.639-0.024 1.277-0.071 1.908-0.016 0.181-0.032 0.355-0.047 0.536-0.103 1.072-0.268 2.129-0.505 3.162-0.039 0.197-0.087 0.394-0.142 0.591-0.031 0.142-0.071 0.292-0.11 0.441-0.489 1.829-1.183 3.572-2.05 5.212-0.087 0.181-0.181 0.355-0.284 0.528-0.197 0.363-0.402 0.71-0.623 1.057-0.095 0.158-0.197 0.323-0.307 0.481-0.103 0.166-0.213 0.331-0.331 0.497-0.307 0.457-0.639 0.907-0.985 1.34-0.15 0.197-0.3 0.378-0.457 0.56-0.229 0.292-0.481 0.568-0.733 0.852-0.15 0.166-0.3 0.323-0.457 0.481-0.26 0.284-0.544 0.56-0.828 0.828-8e-3 8e-3 -0.016 0.023-0.032 0.031-0.568 0.544-1.159 1.057-1.782 1.545-0.016 8e-3 -0.024 0.016-0.039 0.031-0.922 0.733-1.9 1.395-2.925 1.987-0.339 0.205-0.694 0.402-1.049 0.583-0.055 0.024-0.11 0.055-0.166 0.087-0.3 0.158-0.607 0.307-0.915 0.441-0.363 0.174-0.733 0.339-1.104 0.481-0.378 0.158-0.757 0.3-1.135 0.434-0.371 0.134-0.749 0.26-1.128 0.37-0.016 0-0.039 8e-3 -0.063 0.016-0.378 0.118-0.765 0.221-1.151 0.315-0.394 0.103-0.796 0.189-1.198 0.26-0.41 0.087-0.82 0.158-1.23 0.213-0.363 0.055-0.717 0.103-1.08 0.134-0.055 0-0.118 8e-3 -0.174 0.016-0.591 0.055-1.183 0.095-1.782 0.11-0.221 8e-3 -0.434 8e-3 -0.654 8e-3h-551.5c-0.221 0-0.434 0-0.654-8e-3 -0.599-0.016-1.191-0.055-1.782-0.11-0.055-8e-3 -0.118-0.016-0.173-0.016-0.363-0.031-0.718-0.079-1.08-0.134-0.41-0.055-0.82-0.126-1.23-0.213-0.402-0.071-0.804-0.158-1.198-0.26-0.386-0.094-0.773-0.197-1.151-0.315-0.024-8e-3 -0.047-0.016-0.063-0.016-0.378-0.11-0.757-0.237-1.127-0.37-0.378-0.134-0.757-0.276-1.135-0.434-0.371-0.142-0.741-0.307-1.104-0.481-0.308-0.134-0.615-0.284-0.915-0.441-0.055-0.032-0.11-0.063-0.166-0.087-0.355-0.181-0.71-0.378-1.049-0.583-1.025-0.591-2.003-1.254-2.925-1.987-0.016-0.016-0.024-0.024-0.039-0.031-0.623-0.489-1.214-1.001-1.782-1.545-0.016-8e-3 -0.024-0.024-0.032-0.031-0.284-0.268-0.568-0.544-0.828-0.828-0.158-0.157-0.308-0.315-0.457-0.481-0.252-0.284-0.505-0.56-0.733-0.852-0.158-0.181-0.308-0.363-0.457-0.56-0.347-0.434-0.678-0.883-0.986-1.34-0.118-0.165-0.229-0.331-0.331-0.497-0.111-0.158-0.213-0.323-0.308-0.481-0.221-0.347-0.426-0.694-0.623-1.057-0.103-0.173-0.197-0.347-0.284-0.528-0.867-1.64-1.561-3.382-2.05-5.212-0.039-0.15-0.079-0.299-0.11-0.441-0.055-0.197-0.103-0.394-0.142-0.591-0.237-1.033-0.402-2.09-0.505-3.162-0.016-0.181-0.032-0.355-0.047-0.536-0.047-0.631-0.071-1.269-0.071-1.908v-408.94c0-0.639 0.024-1.277 0.071-1.908 0.016-0.197 0.032-0.402 0.055-0.599 0.103-1.056 0.268-2.082 0.497-3.091 0.039-0.205 0.087-0.402 0.142-0.599 0.039-0.173 0.087-0.355 0.134-0.52 0.489-1.798 1.175-3.516 2.026-5.133 0.095-0.181 0.189-0.355 0.284-0.528 0.394-0.71 0.82-1.396 1.277-2.066 0.11-0.15 0.221-0.307 0.331-0.465 0.205-0.284 0.418-0.568 0.639-0.844 0.568-0.725 1.175-1.411 1.821-2.074 0.142-0.15 0.284-0.292 0.434-0.434 0.071-0.079 0.15-0.15 0.221-0.213 0.071-0.071 0.142-0.142 0.213-0.197 0.221-0.221 0.449-0.426 0.686-0.623 0.213-0.189 0.442-0.379 0.67-0.56 0.095-0.079 0.189-0.158 0.284-0.229 0.055-0.047 0.11-0.095 0.174-0.134 0.244-0.189 0.489-0.379 0.741-0.56 0.024-8e-3 0.039-0.024 0.063-0.047 0.3-0.213 0.615-0.418 0.923-0.623 0.032-0.016 0.063-0.039 0.095-0.063 0.307-0.197 0.615-0.386 0.93-0.56 0.339-0.205 0.694-0.394 1.049-0.583 0.055-0.032 0.11-0.055 0.166-0.087 0.3-0.158 0.607-0.307 0.915-0.441 0.363-0.173 0.733-0.331 1.104-0.481 0.371-0.158 0.749-0.3 1.135-0.434 1.143-0.41 2.326-0.733 3.54-0.962 0.41-0.087 0.82-0.158 1.23-0.213 0.363-0.055 0.717-0.103 1.08-0.134 0.055 0 0.118-8e-3 0.173-0.016 0.181-0.024 0.37-0.04 0.56-0.04 0.229-0.024 0.457-0.039 0.686-0.047 0.394-0.024 0.788-0.032 1.19-0.032h551.5c0.402 0 0.796 8e-3 1.191 0.032 0.229 8e-3 0.457 0.024 0.686 0.047 0.189 0 0.379 0.016 0.56 0.04 0.055 8e-3 0.118 0.016 0.174 0.016 0.363 0.031 0.717 0.079 1.08 0.134 0.41 0.055 0.82 0.126 1.23 0.213 1.214 0.229 2.397 0.552 3.54 0.962 0.386 0.134 0.765 0.276 1.135 0.434 0.371 0.15 0.741 0.307 1.104 0.481 0.308 0.134 0.615 0.284 0.915 0.441 0.055 0.032 0.11 0.055 0.166 0.087 0.355 0.189 0.71 0.378 1.049 0.583 0.315 0.173 0.623 0.363 0.93 0.56 0.031 0.024 0.063 0.047 0.095 0.063 0.307 0.205 0.623 0.41 0.922 0.623 0.024 0.024 0.039 0.039 0.063 0.047 0.252 0.181 0.497 0.37 0.741 0.56 0.063 0.039 0.118 0.087 0.173 0.134 0.095 0.071 0.189 0.15 0.284 0.229 0.229 0.181 0.457 0.371 0.67 0.56 0.237 0.197 0.465 0.402 0.686 0.623 0.071 0.055 0.142 0.126 0.213 0.197 0.071 0.063 0.15 0.134 0.221 0.213 0.15 0.142 0.292 0.284 0.434 0.434 0.646 0.662 1.254 1.348 1.821 2.074 0.221 0.276 0.434 0.56 0.639 0.844 0.11 0.158 0.221 0.315 0.331 0.465 0.457 0.67 0.883 1.356 1.277 2.066 0.095 0.173 0.189 0.347 0.284 0.528 0.852 1.616 1.537 3.335 2.026 5.133 0.047 0.166 0.095 0.347 0.134 0.52 0.055 0.197 0.103 0.394 0.142 0.599 0.229 1.009 0.394 2.034 0.497 3.091 0.024 0.197 0.039 0.402 0.055 0.599 0.047 0.631 0.071 1.269 0.071 1.908v408.94z" style="fill:#dfdfdf"/>
					
						
							
						
						
							<linearGradient id="SVGID_00000178179306554584554660000007197845765909576367_" x1="-566.89" x2="-77.324" y1="-448.56" y2="41.007" gradientTransform="translate(712.21 712.21)" gradientUnits="userSpaceOnUse">
							<stop style="stop-color:#F2F3F4" offset="0"/>
							<stop style="stop-color:#EDEEEF" offset=".4788"/>
							<stop style="stop-color:#E2E2E2" offset="1"/>
						</linearGradient>
						<path d="m665.85 297.34h-551.5c-3.647 0-6.615 2.967-6.615 6.615v408.94c0 3.647 2.967 6.615 6.615 6.615h551.5c3.648 0 6.615-2.968 6.615-6.615v-408.94c1e-3 -3.647-2.967-6.615-6.615-6.615zm6.221 415.56c0 3.43-2.791 6.221-6.221 6.221h-551.5c-3.43 0-6.221-2.791-6.221-6.221v-408.94c0-3.43 2.791-6.221 6.221-6.221h551.5c3.43 0 6.221 2.791 6.221 6.221z" style="fill:url(#SVGID_00000178179306554584554660000007197845765909576367_)"/>
					
					<path d="m665.85 280.79h-551.5c-12.781 0-23.172 10.392-23.172 23.172v408.94c0 12.781 10.392 23.172 23.172 23.172h551.5c12.781 0 23.172-10.392 23.172-23.172v-408.94c1e-3 -12.78-10.391-23.172-23.172-23.172zm6.616 432.11c0 3.647-2.968 6.615-6.615 6.615h-551.5c-3.647 0-6.615-2.968-6.615-6.615v-408.94c0-3.648 2.967-6.615 6.615-6.615h551.5c3.648 0 6.615 2.967 6.615 6.615v408.94z" style="fill:#030303"/>
				
				
					<linearGradient id="SVGID_00000060749158399309501510000009765145572792615332_" x1="-623.4" x2="-599.05" y1="-203.75" y2="-203.75" gradientTransform="translate(712.21 712.21)" gradientUnits="userSpaceOnUse">
					<stop style="stop-color:#F1F1F1" offset="0"/>
					<stop style="stop-color:#ddd" offset=".0591"/>
					<stop style="stop-color:#C7C7C7" offset=".1453"/>
					<stop style="stop-color:#B6B6B6" offset=".2467"/>
					<stop style="stop-color:#aaa" offset=".3711"/>
					<stop style="stop-color:#A3A3A3" offset=".5437"/>
					<stop style="stop-color:#A1A1A1" offset="1"/>
				</linearGradient>
				<path d="m113.16 738.4c-0.276-0.016-0.552-0.031-0.828-0.055-0.142-8e-3 -0.276-0.016-0.418-0.032-0.055-8e-3 -0.118-0.016-0.173-0.016-0.363-0.039-0.725-0.087-1.08-0.134-0.418-0.063-0.82-0.134-1.23-0.213-0.402-0.079-0.804-0.166-1.198-0.26-0.386-0.102-0.773-0.205-1.151-0.315-0.024-8e-3 -0.047-0.016-0.063-0.016-0.378-0.118-0.757-0.244-1.127-0.37-0.386-0.134-0.765-0.276-1.135-0.434-0.371-0.15-0.741-0.307-1.104-0.481-0.308-0.142-0.615-0.292-0.915-0.441-0.055-0.032-0.11-0.063-0.166-0.087-0.355-0.189-0.71-0.378-1.049-0.583-1.025-0.599-2.003-1.261-2.925-1.987-0.016-0.016-0.024-0.024-0.039-0.031-0.615-0.489-1.214-1.009-1.782-1.545-0.016-8e-3 -0.024-0.024-0.032-0.031-0.284-0.268-0.56-0.544-0.828-0.828-0.158-0.157-0.308-0.315-0.457-0.481-0.244-0.276-0.497-0.56-0.733-0.852-0.158-0.181-0.308-0.363-0.457-0.56-0.339-0.434-0.67-0.883-0.986-1.34-0.11-0.165-0.221-0.331-0.331-0.497-0.103-0.158-0.205-0.323-0.308-0.481-0.221-0.347-0.426-0.694-0.623-1.057-0.095-0.173-0.189-0.355-0.284-0.528-0.867-1.64-1.561-3.382-2.05-5.212-0.039-0.142-0.079-0.292-0.11-0.441-0.055-0.197-0.103-0.394-0.142-0.591-0.237-1.033-0.402-2.09-0.505-3.162-0.016-0.181-0.032-0.355-0.047-0.536-0.047-0.631-0.071-1.269-0.071-1.908v-408.94c0-0.639 0.024-1.277 0.071-1.908 0.016-0.197 0.032-0.402 0.055-0.599 0.103-1.056 0.268-2.082 0.497-3.091 0.039-0.205 0.087-0.402 0.142-0.599 0.039-0.173 0.087-0.355 0.134-0.52 0.489-1.798 1.175-3.516 2.026-5.133 0.095-0.181 0.189-0.355 0.284-0.528 0.394-0.71 0.82-1.396 1.277-2.066 0.11-0.15 0.221-0.307 0.331-0.465 0.205-0.284 0.418-0.568 0.639-0.844 0.568-0.725 1.175-1.411 1.821-2.074 0.142-0.15 0.284-0.292 0.434-0.434 0.071-0.079 0.15-0.15 0.221-0.213 0.071-0.071 0.142-0.142 0.213-0.197 0.221-0.221 0.449-0.426 0.686-0.623 0.213-0.189 0.442-0.379 0.67-0.56 0.095-0.079 0.189-0.158 0.284-0.229 0.055-0.047 0.11-0.095 0.174-0.134 0.244-0.189 0.489-0.379 0.741-0.56 0.024-8e-3 0.039-0.024 0.063-0.047 0.3-0.213 0.615-0.418 0.923-0.623 0.032-0.016 0.063-0.039 0.095-0.063 0.307-0.189 0.615-0.378 0.93-0.56 0.339-0.205 0.694-0.394 1.049-0.583 0.055-0.032 0.11-0.055 0.166-0.087 0.3-0.15 0.607-0.299 0.915-0.441 0.363-0.173 0.733-0.331 1.104-0.481 0.371-0.158 0.749-0.3 1.135-0.434 1.143-0.402 2.326-0.725 3.54-0.962 0.41-0.079 0.812-0.15 1.23-0.213 0.355-0.047 0.717-0.095 1.08-0.134 0.055 0 0.118-8e-3 0.173-0.016 0.181-0.024 0.37-0.04 0.56-0.04-0.15 8e-3 -0.3 0.024-0.449 0.04-0.379 0.039-0.757 0.087-1.127 0.142-0.182 0.024-0.363 0.055-0.536 0.095-0.229 0.032-0.449 0.071-0.67 0.118-0.339 0.063-0.67 0.142-0.993 0.229-0.355 0.087-0.71 0.181-1.057 0.292-0.292 0.087-0.576 0.181-0.859 0.284-0.607 0.205-1.206 0.434-1.782 0.702-0.181 0.071-0.363 0.158-0.536 0.244-0.276 0.126-0.552 0.26-0.82 0.402-0.024 0.016-0.047 0.024-0.071 0.039-0.308 0.166-0.607 0.331-0.907 0.505-0.016 8e-3 -0.032 0.016-0.04 0.024-0.213 0.126-0.426 0.252-0.631 0.386-0.181 0.11-0.363 0.229-0.536 0.347-0.039 0.024-0.079 0.055-0.118 0.087-0.284 0.189-0.568 0.394-0.844 0.599-0.268 0.197-0.536 0.402-0.796 0.623-0.063 0.039-0.118 0.087-0.166 0.142-0.26 0.197-0.512 0.418-0.757 0.655-0.276 0.244-0.544 0.504-0.804 0.765-0.229 0.221-0.457 0.457-0.678 0.702-0.055 0.063-0.118 0.126-0.181 0.197-0.213 0.244-0.426 0.497-0.639 0.749-0.244 0.284-0.473 0.576-0.686 0.875-0.181 0.237-0.355 0.473-0.512 0.717-0.095 0.118-0.173 0.244-0.26 0.371-0.102 0.15-0.205 0.307-0.299 0.473-0.103 0.15-0.197 0.3-0.284 0.457-0.181 0.307-0.363 0.615-0.528 0.93-0.103 0.189-0.205 0.386-0.3 0.583-0.229 0.457-0.449 0.93-0.646 1.411-0.063 0.15-0.126 0.308-0.189 0.465-0.095 0.237-0.181 0.473-0.268 0.717-0.11 0.307-0.213 0.623-0.308 0.938-0.103 0.315-0.189 0.639-0.276 0.962-8e-3 0.016-8e-3 0.031-8e-3 0.047-0.095 0.355-0.181 0.71-0.252 1.064 0 0.024-8e-3 0.039-8e-3 0.055-0.055 0.268-0.11 0.536-0.142 0.804-0.221 1.254-0.331 2.539-0.331 3.856v413.67c0 0.457 0.016 0.922 0.047 1.372 8e-3 0.245 0.024 0.489 0.047 0.726 0.016 0.205 0.039 0.41 0.071 0.615 8e-3 0.103 0.024 0.197 0.032 0.292 0.032 0.276 0.071 0.544 0.126 0.812 8e-3 0.039 8e-3 0.071 0.016 0.11 0.024 0.165 0.055 0.331 0.087 0.497 0.016 0.079 0.032 0.158 0.047 0.237 8e-3 0.031 0.016 0.055 0.016 0.087 0.047 0.244 0.103 0.481 0.166 0.725 0.024 0.103 0.047 0.205 0.079 0.308 0.087 0.339 0.181 0.678 0.284 1.009s0.205 0.662 0.323 0.978c8e-3 0.016 8e-3 0.023 0.016 0.039 0.055 0.166 0.11 0.323 0.181 0.481 8e-3 0.024 0.016 0.039 0.024 0.063 0.063 0.181 0.134 0.355 0.205 0.528 8e-3 0.016 8e-3 0.024 0.016 0.039 0.205 0.481 0.418 0.946 0.646 1.404 0.095 0.197 0.197 0.386 0.3 0.583 0.166 0.315 0.347 0.623 0.528 0.93 0.087 0.158 0.181 0.307 0.284 0.457 0.094 0.158 0.197 0.315 0.299 0.473 0.079 0.126 0.166 0.252 0.26 0.371 0.158 0.244 0.331 0.481 0.512 0.717 0.213 0.299 0.442 0.591 0.686 0.875 0.173 0.221 0.363 0.441 0.56 0.654 0.024 0.032 0.055 0.063 0.079 0.094 0.063 0.071 0.126 0.134 0.181 0.197 0.024 0.024 0.047 0.047 0.063 0.071 0.205 0.213 0.41 0.426 0.615 0.631 0.205 0.213 0.41 0.41 0.615 0.599 0.016 8e-3 0.032 0.024 0.047 0.039 0.087 0.087 0.181 0.174 0.284 0.252 0.189 0.181 0.386 0.347 0.583 0.505 0.063 0.055 0.126 0.11 0.197 0.166 0.26 0.213 0.52 0.426 0.796 0.623 0.197 0.158 0.394 0.299 0.599 0.434 0.016 0.016 0.039 0.031 0.063 0.047 0.158 0.111 0.315 0.221 0.473 0.323 0.268 0.173 0.544 0.355 0.828 0.52 0.016 8e-3 0.032 0.016 0.047 0.031 0.189 0.11 0.378 0.221 0.575 0.323 0.103 0.063 0.213 0.126 0.323 0.181 0.205 0.11 0.41 0.221 0.615 0.315 0.268 0.142 0.552 0.276 0.836 0.394 0.205 0.094 0.41 0.189 0.615 0.276 0.079 0.032 0.15 0.063 0.229 0.095 0.221 0.087 0.441 0.173 0.67 0.252 0.134 0.055 0.276 0.102 0.418 0.15 0.032 8e-3 0.055 0.024 0.087 0.032 0.252 0.087 0.505 0.165 0.765 0.244 0.268 0.087 0.544 0.166 0.82 0.229 0.039 0.016 0.071 0.024 0.11 0.032 0.095 0.024 0.189 0.047 0.284 0.071 0.26 0.071 0.528 0.126 0.796 0.181 0.016 0 0.024 8e-3 0.039 8e-3 0.221 0.047 0.442 0.087 0.67 0.118 0.173 0.039 0.355 0.071 0.536 0.095 0.37 0.055 0.749 0.102 1.127 0.142 0.37 0.042 0.756 0.074 1.135 0.09z" style="fill:url(#SVGID_00000060749158399309501510000009765145572792615332_)"/>
				<path d="m114.35 738.44c-0.399 0-0.796-0.01-1.191-0.03 0.395 0.018 0.792 0.03 1.191 0.03z" style="fill:#dfdfdf"/>
				
					<linearGradient id="SVGID_00000065045646515099375200000017743513007966535306_" x1="-44.483" x2="-20.822" y1="-203.78" y2="-203.78" gradientTransform="translate(712.21 712.21)" gradientUnits="userSpaceOnUse">
					<stop style="stop-color:#A1A1A1" offset="0"/>
					<stop style="stop-color:#A3A3A3" offset=".4563"/>
					<stop style="stop-color:#aaa" offset=".6289"/>
					<stop style="stop-color:#B6B6B6" offset=".7533"/>
					<stop style="stop-color:#C7C7C7" offset=".8547"/>
					<stop style="stop-color:#ddd" offset=".9409"/>
					<stop style="stop-color:#F1F1F1" offset="1"/>
				</linearGradient>
				<path d="m691.38 303.96v408.94c0 0.639-0.024 1.277-0.071 1.908-0.016 0.181-0.032 0.355-0.047 0.536-0.103 1.072-0.268 2.129-0.505 3.162-0.039 0.197-0.087 0.394-0.142 0.591-0.031 0.15-0.071 0.3-0.11 0.441-0.489 1.829-1.183 3.572-2.05 5.212-0.095 0.173-0.189 0.355-0.284 0.528-0.197 0.363-0.402 0.71-0.623 1.057-0.103 0.158-0.205 0.323-0.307 0.481-0.11 0.166-0.221 0.331-0.331 0.497-0.315 0.457-0.646 0.907-0.985 1.34-0.15 0.197-0.3 0.378-0.457 0.56-0.237 0.292-0.489 0.576-0.733 0.852-0.15 0.166-0.3 0.323-0.457 0.481-0.268 0.284-0.544 0.56-0.828 0.828-8e-3 8e-3 -0.016 0.023-0.032 0.031-0.568 0.536-1.167 1.057-1.782 1.545-0.016 8e-3 -0.024 0.016-0.039 0.031-0.922 0.725-1.9 1.388-2.925 1.987-0.339 0.205-0.694 0.394-1.049 0.583-0.055 0.024-0.11 0.055-0.166 0.087-0.3 0.15-0.607 0.299-0.915 0.441-0.363 0.174-0.733 0.331-1.104 0.481-0.37 0.158-0.749 0.3-1.135 0.434-0.371 0.126-0.749 0.252-1.128 0.37-0.016 0-0.039 8e-3 -0.063 0.016-0.378 0.11-0.765 0.213-1.151 0.315-0.394 0.095-0.796 0.182-1.198 0.26-0.41 0.079-0.812 0.15-1.23 0.213-0.355 0.047-0.717 0.094-1.08 0.134-0.055 0-0.118 8e-3 -0.174 0.016-0.142 0.016-0.276 0.024-0.418 0.032 0.103-8e-3 0.205-0.024 0.307-0.032 0.379-0.031 0.757-0.079 1.128-0.142 0.181-0.024 0.363-0.055 0.536-0.095 0.229-0.032 0.449-0.071 0.67-0.118 0.379-0.079 0.749-0.166 1.12-0.26 0.315-0.079 0.631-0.165 0.93-0.26 0.26-0.079 0.512-0.157 0.765-0.244 0.481-0.166 0.946-0.339 1.404-0.528 0.205-0.087 0.41-0.181 0.615-0.276 0.284-0.118 0.568-0.252 0.836-0.394 0.205-0.103 0.41-0.205 0.615-0.315 0.11-0.055 0.221-0.118 0.323-0.181 0.213-0.11 0.418-0.229 0.623-0.355 0.284-0.166 0.56-0.347 0.828-0.52 0.158-0.102 0.315-0.213 0.473-0.323 0.229-0.15 0.449-0.315 0.662-0.481 0.268-0.197 0.536-0.402 0.796-0.623 0.071-0.055 0.134-0.11 0.197-0.166 0.197-0.158 0.394-0.323 0.583-0.505 0.102-0.079 0.197-0.166 0.284-0.252 0.229-0.205 0.45-0.41 0.662-0.639 0.229-0.221 0.457-0.457 0.678-0.702 0.055-0.063 0.118-0.126 0.181-0.197 0.213-0.244 0.426-0.497 0.639-0.749 0.244-0.284 0.473-0.576 0.686-0.875 0.181-0.237 0.355-0.473 0.513-0.717 0.095-0.118 0.181-0.244 0.26-0.371 0.102-0.158 0.205-0.315 0.3-0.473 0.102-0.15 0.197-0.3 0.284-0.457 0.181-0.307 0.363-0.615 0.528-0.93 0.103-0.197 0.205-0.386 0.3-0.583 0.229-0.457 0.441-0.923 0.646-1.404 0.079-0.189 0.15-0.378 0.221-0.568 0.079-0.189 0.15-0.386 0.221-0.583 0.118-0.315 0.221-0.647 0.323-0.978s0.197-0.67 0.284-1.009c0.102-0.363 0.181-0.741 0.26-1.12 0.063-0.276 0.11-0.56 0.15-0.844 0.213-1.238 0.323-2.515 0.323-3.816v-413.67c0-1.317-0.11-2.602-0.331-3.856-0.031-0.268-0.087-0.536-0.142-0.804 0-0.016-8e-3 -0.032-8e-3 -0.055-0.071-0.355-0.158-0.71-0.252-1.064 0-0.016 0-0.032-8e-3 -0.047-0.087-0.323-0.174-0.647-0.276-0.962-0.095-0.315-0.197-0.631-0.307-0.938-0.087-0.245-0.174-0.481-0.268-0.717-0.063-0.158-0.126-0.315-0.189-0.465-0.197-0.481-0.418-0.954-0.646-1.411-0.095-0.197-0.197-0.394-0.3-0.583-0.166-0.315-0.347-0.623-0.528-0.93-0.087-0.158-0.181-0.307-0.284-0.457-0.095-0.165-0.197-0.323-0.3-0.473-0.087-0.126-0.166-0.252-0.26-0.371-0.158-0.244-0.331-0.481-0.513-0.717-0.213-0.3-0.441-0.591-0.686-0.875-0.213-0.252-0.426-0.505-0.639-0.749-0.063-0.071-0.126-0.134-0.181-0.197-0.221-0.244-0.449-0.481-0.678-0.702-0.26-0.26-0.528-0.52-0.804-0.765-0.244-0.237-0.497-0.457-0.757-0.655-0.047-0.055-0.102-0.103-0.165-0.142-0.26-0.221-0.528-0.426-0.796-0.623-0.276-0.205-0.56-0.41-0.844-0.599-0.039-0.031-0.079-0.063-0.118-0.087-0.173-0.118-0.355-0.237-0.536-0.347-0.205-0.134-0.418-0.26-0.631-0.386-8e-3 -8e-3 -0.024-0.016-0.039-0.024-0.3-0.173-0.599-0.339-0.907-0.505-0.024-0.016-0.047-0.024-0.071-0.039-0.268-0.142-0.544-0.276-0.82-0.402-0.174-0.087-0.355-0.173-0.536-0.244-0.576-0.268-1.175-0.497-1.782-0.702-0.284-0.103-0.568-0.197-0.859-0.284-0.347-0.11-0.702-0.205-1.057-0.292-0.323-0.087-0.654-0.166-0.993-0.229-0.221-0.047-0.441-0.087-0.67-0.118-0.173-0.039-0.355-0.071-0.536-0.095-0.371-0.055-0.749-0.103-1.128-0.142-0.15-0.016-0.3-0.032-0.449-0.04 0.189 0 0.379 0.016 0.56 0.04 0.055 8e-3 0.118 0.016 0.174 0.016 0.363 0.039 0.725 0.087 1.08 0.134 0.418 0.063 0.82 0.134 1.23 0.213 1.214 0.237 2.397 0.56 3.54 0.962 0.386 0.134 0.765 0.276 1.135 0.434 0.371 0.15 0.741 0.307 1.104 0.481 0.308 0.142 0.615 0.292 0.915 0.441 0.055 0.032 0.11 0.055 0.166 0.087 0.355 0.189 0.71 0.378 1.049 0.583 0.315 0.181 0.623 0.371 0.93 0.56 0.031 0.024 0.063 0.047 0.095 0.063 0.307 0.205 0.623 0.41 0.922 0.623 0.024 0.024 0.039 0.039 0.063 0.047 0.252 0.181 0.497 0.37 0.741 0.56 0.063 0.039 0.118 0.087 0.173 0.134 0.095 0.071 0.189 0.15 0.284 0.229 0.229 0.181 0.457 0.371 0.67 0.56 0.237 0.197 0.465 0.402 0.686 0.623 0.071 0.055 0.142 0.126 0.213 0.197 0.071 0.063 0.15 0.134 0.221 0.213 0.15 0.142 0.292 0.284 0.434 0.434 0.646 0.662 1.254 1.348 1.821 2.074 0.221 0.276 0.434 0.56 0.639 0.844 0.11 0.158 0.221 0.315 0.331 0.465 0.457 0.67 0.883 1.356 1.277 2.066 0.095 0.173 0.189 0.347 0.284 0.528 0.852 1.616 1.537 3.335 2.026 5.133 0.047 0.166 0.095 0.347 0.134 0.52 0.055 0.197 0.103 0.394 0.142 0.599 0.229 1.009 0.394 2.034 0.497 3.091 0.024 0.197 0.039 0.402 0.055 0.599 0.044 0.628 0.068 1.267 0.068 1.905z" style="fill:url(#SVGID_00000065045646515099375200000017743513007966535306_)"/>
				<path d="m665.85 738.44c0.399 0 0.796-0.012 1.191-0.03-0.394 0.02-0.791 0.03-1.191 0.03z" style="fill:#dfdfdf"/>
				
					<linearGradient id="SVGID_00000165919315947004783040000017517550080480006816_" x1="-621.03" x2="-23.187" y1="-421.02" y2="-421.02" gradientTransform="translate(712.21 712.21)" gradientUnits="userSpaceOnUse">
					<stop style="stop-color:#C9C9C9" offset="0"/>
					<stop style="stop-color:#F1F1F1" offset=".4778"/>
					<stop style="stop-color:#ECECEC" offset=".636"/>
					<stop style="stop-color:#DEDEDE" offset=".819"/>
					<stop style="stop-color:#C9C9C9" offset="1"/>
				</linearGradient>
				<path d="m689.02 301.59v2.365c0-12.781-10.392-23.172-23.172-23.172h-551.5c-12.78 0-23.172 10.392-23.172 23.172v-2.365c0-1.317 0.11-2.602 0.331-3.856 0.032-0.268 0.087-0.536 0.142-0.804 0-0.016 8e-3 -0.032 8e-3 -0.055 0.071-0.355 0.158-0.71 0.252-1.064 0-0.016 0-0.032 8e-3 -0.047 0.087-0.323 0.173-0.647 0.276-0.962 0.095-0.315 0.197-0.631 0.308-0.938 0.087-0.245 0.173-0.481 0.268-0.717 0.063-0.158 0.126-0.315 0.189-0.465 0.197-0.481 0.418-0.954 0.646-1.411 0.095-0.197 0.197-0.394 0.3-0.583 0.166-0.315 0.347-0.623 0.528-0.93 0.087-0.158 0.181-0.307 0.284-0.457 0.094-0.165 0.197-0.323 0.299-0.473 0.079-0.126 0.166-0.252 0.26-0.371 0.158-0.244 0.331-0.481 0.512-0.717 0.221-0.3 0.45-0.591 0.686-0.875 0.213-0.252 0.426-0.505 0.639-0.749 0.063-0.071 0.126-0.134 0.181-0.197 0.221-0.237 0.449-0.473 0.678-0.702 0.26-0.26 0.528-0.52 0.804-0.765 0.244-0.229 0.497-0.442 0.757-0.655 0.047-0.055 0.103-0.103 0.166-0.142 0.26-0.213 0.52-0.418 0.796-0.623s0.56-0.41 0.844-0.599c0.039-0.031 0.079-0.063 0.118-0.087 0.174-0.118 0.355-0.237 0.536-0.347 0.205-0.134 0.418-0.26 0.631-0.386 8e-3 -8e-3 0.024-0.016 0.04-0.024 0.3-0.173 0.599-0.339 0.907-0.505 0.024-0.016 0.047-0.024 0.071-0.039 0.268-0.142 0.544-0.276 0.82-0.402 0.174-0.087 0.355-0.173 0.536-0.244 0.576-0.268 1.175-0.497 1.782-0.702 0.284-0.103 0.568-0.197 0.859-0.284 0.347-0.102 0.702-0.205 1.057-0.292 0.323-0.087 0.654-0.166 0.993-0.229 0.221-0.047 0.442-0.087 0.67-0.118 0.173-0.039 0.355-0.071 0.536-0.095 0.37-0.055 0.749-0.103 1.127-0.142 0.15-0.016 0.3-0.032 0.449-0.04 0.229-0.024 0.457-0.039 0.686-0.047 0.394-0.024 0.788-0.032 1.19-0.032h551.5c0.402 0 0.796 8e-3 1.191 0.032 0.229 8e-3 0.457 0.024 0.686 0.047 0.15 8e-3 0.3 0.024 0.449 0.04 0.379 0.039 0.757 0.087 1.128 0.142 0.181 0.024 0.363 0.055 0.536 0.095 0.229 0.032 0.449 0.071 0.67 0.118 0.339 0.063 0.67 0.142 0.993 0.229 0.355 0.087 0.71 0.189 1.057 0.292 0.292 0.087 0.576 0.181 0.859 0.284 0.607 0.205 1.206 0.434 1.782 0.702 0.181 0.071 0.363 0.158 0.536 0.244 0.276 0.126 0.552 0.26 0.82 0.402 0.024 0.016 0.047 0.024 0.071 0.039 0.307 0.166 0.607 0.331 0.907 0.505 0.016 8e-3 0.031 0.016 0.039 0.024 0.213 0.126 0.426 0.252 0.631 0.386 0.181 0.11 0.363 0.229 0.536 0.347 0.039 0.024 0.079 0.055 0.118 0.087 0.284 0.189 0.568 0.394 0.844 0.599s0.536 0.41 0.796 0.623c0.063 0.039 0.118 0.087 0.165 0.142 0.26 0.213 0.513 0.426 0.757 0.655 0.276 0.244 0.544 0.504 0.804 0.765 0.229 0.229 0.457 0.465 0.678 0.702 0.055 0.063 0.118 0.126 0.181 0.197 0.213 0.244 0.426 0.497 0.639 0.749 0.237 0.284 0.465 0.576 0.686 0.875 0.181 0.237 0.355 0.473 0.513 0.717 0.095 0.118 0.181 0.244 0.26 0.371 0.102 0.15 0.205 0.307 0.3 0.473 0.102 0.15 0.197 0.3 0.284 0.457 0.181 0.307 0.363 0.615 0.528 0.93 0.103 0.189 0.205 0.386 0.3 0.583 0.229 0.457 0.449 0.93 0.646 1.411 0.063 0.15 0.126 0.308 0.189 0.465 0.095 0.237 0.181 0.473 0.268 0.717 0.11 0.307 0.213 0.623 0.307 0.938 0.102 0.315 0.189 0.639 0.276 0.962 8e-3 0.016 8e-3 0.031 8e-3 0.047 0.095 0.355 0.181 0.71 0.252 1.064 0 0.024 8e-3 0.039 8e-3 0.055 0.055 0.268 0.11 0.536 0.142 0.804 0.224 1.254 0.335 2.539 0.335 3.856z" style="fill:url(#SVGID_00000165919315947004783040000017517550080480006816_)"/>
				
					<linearGradient id="SVGID_00000145051520484840426610000005465922875740966020_" x1="-621.03" x2="-23.187" y1="13.461" y2="13.461" gradientTransform="translate(712.21 712.21)" gradientUnits="userSpaceOnUse">
					<stop style="stop-color:#C9C9C9" offset="0"/>
					<stop style="stop-color:#F1F1F1" offset=".4778"/>
					<stop style="stop-color:#ECECEC" offset=".636"/>
					<stop style="stop-color:#DEDEDE" offset=".819"/>
					<stop style="stop-color:#C9C9C9" offset="1"/>
				</linearGradient>
				<path d="m689.02 712.9v2.365c0 1.301-0.11 2.578-0.323 3.816-0.039 0.284-0.087 0.568-0.15 0.844-0.079 0.378-0.158 0.757-0.26 1.12-0.087 0.339-0.181 0.678-0.284 1.009s-0.205 0.662-0.323 0.978c-0.071 0.197-0.142 0.394-0.221 0.583-0.071 0.189-0.142 0.378-0.221 0.568-0.205 0.481-0.418 0.946-0.646 1.404-0.095 0.197-0.197 0.386-0.3 0.583-0.166 0.315-0.347 0.623-0.528 0.93-0.087 0.158-0.181 0.307-0.284 0.457-0.095 0.158-0.197 0.315-0.3 0.473-0.079 0.126-0.166 0.252-0.26 0.371-0.158 0.244-0.331 0.481-0.513 0.717-0.221 0.299-0.449 0.591-0.686 0.875-0.213 0.252-0.426 0.505-0.639 0.749-0.063 0.071-0.126 0.134-0.181 0.197-0.221 0.237-0.449 0.473-0.678 0.702-0.213 0.213-0.434 0.426-0.662 0.639-0.087 0.087-0.181 0.174-0.284 0.252-0.189 0.174-0.386 0.339-0.583 0.505-0.063 0.055-0.126 0.11-0.197 0.166-0.26 0.213-0.52 0.426-0.796 0.623-0.213 0.165-0.434 0.323-0.662 0.481-0.158 0.111-0.315 0.221-0.473 0.323-0.268 0.173-0.544 0.355-0.828 0.52-0.205 0.126-0.41 0.244-0.623 0.355-0.102 0.063-0.213 0.126-0.323 0.181-0.205 0.11-0.41 0.213-0.615 0.315-0.268 0.142-0.552 0.276-0.836 0.394-0.205 0.094-0.41 0.189-0.615 0.276-0.457 0.189-0.922 0.363-1.404 0.528-0.252 0.087-0.505 0.165-0.765 0.244-0.3 0.095-0.615 0.182-0.93 0.26-0.371 0.095-0.741 0.181-1.12 0.26-0.221 0.047-0.441 0.087-0.67 0.118-0.173 0.039-0.355 0.071-0.536 0.095-0.371 0.055-0.749 0.102-1.128 0.142-0.102 8e-3 -0.205 0.024-0.307 0.032-0.276 0.024-0.552 0.039-0.828 0.055-0.181 8e-3 -0.355 0.016-0.536 0.023-0.221 8e-3 -0.434 8e-3 -0.654 8e-3h-551.5c-0.221 0-0.434 0-0.654-8e-3 -0.181-8e-3 -0.355-0.016-0.536-0.023-0.276-0.016-0.552-0.031-0.828-0.055-0.103-8e-3 -0.205-0.024-0.308-0.032-0.379-0.039-0.757-0.087-1.127-0.142-0.182-0.024-0.363-0.055-0.536-0.095-0.229-0.032-0.449-0.071-0.67-0.118-0.016 0-0.024-8e-3 -0.039-8e-3 -0.268-0.055-0.536-0.11-0.796-0.181-0.095-0.024-0.189-0.047-0.284-0.071-0.039-8e-3 -0.071-0.016-0.11-0.032-0.276-0.063-0.552-0.142-0.82-0.229-0.26-0.079-0.512-0.157-0.765-0.244-0.032-8e-3 -0.055-0.024-0.087-0.032-0.142-0.047-0.284-0.094-0.418-0.15-0.229-0.079-0.449-0.166-0.67-0.252-0.079-0.032-0.15-0.063-0.229-0.095-0.205-0.087-0.41-0.181-0.615-0.276-0.284-0.118-0.568-0.252-0.836-0.394-0.205-0.095-0.41-0.205-0.615-0.315-0.11-0.055-0.221-0.118-0.323-0.181-0.197-0.102-0.386-0.213-0.575-0.323-0.016-0.016-0.032-0.024-0.047-0.031-0.284-0.166-0.56-0.347-0.828-0.52-0.158-0.102-0.315-0.213-0.473-0.323-0.024-0.016-0.047-0.031-0.063-0.047-0.205-0.142-0.41-0.284-0.599-0.434-0.276-0.197-0.536-0.41-0.796-0.623-0.071-0.055-0.134-0.11-0.197-0.166-0.197-0.166-0.394-0.331-0.583-0.505-0.103-0.079-0.197-0.166-0.284-0.252-0.016-0.016-0.032-0.031-0.047-0.039-0.213-0.205-0.418-0.402-0.615-0.599-0.205-0.205-0.41-0.418-0.615-0.631-0.016-0.024-0.039-0.047-0.063-0.071-0.055-0.063-0.118-0.126-0.181-0.197-0.024-0.031-0.055-0.063-0.079-0.094-0.189-0.213-0.37-0.434-0.56-0.654-0.237-0.284-0.465-0.576-0.686-0.875-0.181-0.237-0.355-0.473-0.512-0.717-0.095-0.118-0.181-0.244-0.26-0.371-0.102-0.158-0.205-0.315-0.299-0.473-0.103-0.15-0.197-0.3-0.284-0.457-0.181-0.307-0.363-0.615-0.528-0.93-0.103-0.197-0.205-0.386-0.3-0.583-0.229-0.457-0.441-0.923-0.646-1.404-8e-3 -0.016-8e-3 -0.024-0.016-0.039-0.071-0.173-0.142-0.355-0.205-0.528-8e-3 -0.024-0.016-0.039-0.024-0.063-0.071-0.158-0.126-0.315-0.181-0.481-8e-3 -0.016-8e-3 -0.023-0.016-0.039-0.118-0.315-0.221-0.647-0.323-0.978-0.103-0.331-0.197-0.67-0.284-1.009-0.032-0.103-0.055-0.205-0.079-0.308-0.063-0.245-0.118-0.481-0.166-0.725 0-0.032-8e-3 -0.055-0.016-0.087-0.016-0.079-0.032-0.158-0.047-0.237-0.031-0.166-0.063-0.331-0.087-0.497-8e-3 -0.039-8e-3 -0.071-0.016-0.11-0.047-0.268-0.087-0.536-0.126-0.812-8e-3 -0.095-0.024-0.189-0.032-0.292-0.032-0.205-0.047-0.41-0.071-0.615-0.024-0.237-0.039-0.481-0.047-0.726-0.032-0.449-0.047-0.914-0.047-1.372v-2.365c0 12.781 10.392 23.172 23.172 23.172h551.5c12.778-1e-3 23.17-10.393 23.17-23.173z" style="fill:url(#SVGID_00000145051520484840426610000005465922875740966020_)"/>
			
		
	</g>
</svg>
