<?xml version="1.0" encoding="utf-8"?><svg xmlns="http://www.w3.org/2000/svg" xmlns:xlink="http://www.w3.org/1999/xlink"><symbol fill="none" viewBox="0 0 16 16" id="16--arrow-down" xmlns="http://www.w3.org/2000/svg"><path d="M3.5 6.5L8 11l4.5-4.5" stroke="currentColor" stroke-width="1.5" stroke-linecap="round" stroke-linejoin="round"/></symbol><symbol fill="none" viewBox="0 0 16 16" id="16--breadcrumb-arrow" xmlns="http://www.w3.org/2000/svg"><path d="M10.4 7.2L8 9.6 5.6 7.2" stroke="currentColor" stroke-linecap="round" stroke-linejoin="round"/><circle cx="8" cy="8" r="7.5" stroke="currentColor"/></symbol><symbol fill="none" viewBox="0 0 16 17" id="16--breadcrumb-separator" xmlns="http://www.w3.org/2000/svg"><path opacity=".6" d="M3.847 15.125l7.778-13.472" stroke="currentColor" stroke-linecap="round"/></symbol><symbol fill="none" viewBox="0 0 16 16" id="16--download" xmlns="http://www.w3.org/2000/svg"><path d="M3 15h10M12 8l-4 4-4-4M8 1v11" stroke="currentColor" stroke-width="1.5" stroke-linecap="round" stroke-linejoin="round"/></symbol><symbol fill="none" viewBox="0 0 16 16" id="16--error" xmlns="http://www.w3.org/2000/svg"><path fill-rule="evenodd" clip-rule="evenodd" d="M8 15.5A7.5 7.5 0 01.5 8 7.5 7.5 0 018 .5 7.5 7.5 0 0115.5 8 7.5 7.5 0 018 15.5z" fill="currentColor"/><path fill-rule="evenodd" clip-rule="evenodd" d="M8 6.955a.75.75 0 01.75.75v3.555a.75.75 0 01-1.5 0V7.705a.75.75 0 01.75-.75z" fill="#FFF"/><circle cx="8" cy="5.2" r="1" fill="#FFF"/></symbol><symbol fill="none" viewBox="0 0 16 16" id="16--facebook" xmlns="http://www.w3.org/2000/svg"><path fill-rule="evenodd" clip-rule="evenodd" d="M6.021 15.333L6 8.667H3.333V6H6V4.333C6 1.86 7.532.667 9.74.667c1.057 0 1.965.078 2.23.114v2.585l-1.53.001c-1.201 0-1.433.57-1.433 1.407V6H12.5l-1.333 2.667h-2.16v6.666H6.02z" fill="currentColor"/></symbol><symbol fill="none" viewBox="0 0 16 16" id="16--github" xmlns="http://www.w3.org/2000/svg"><path clip-rule="evenodd" d="M7.88.5C3.66.5.25 3.94.25 8.19c0 3.4 2.19 6.28 5.22 7.3.38.08.52-.17.52-.37 0-.18-.01-.79-.01-1.43-2.12.46-2.57-.92-2.57-.92-.34-.89-.85-1.12-.85-1.12-.7-.47.05-.47.05-.47.77.05 1.18.79 1.18.79.68 1.17 1.78.84 2.22.64.06-.5.27-.84.48-1.03-1.69-.18-3.48-.84-3.48-3.79 0-.84.3-1.53.78-2.06-.08-.19-.34-.98.08-2.04 0 0 .65-.2 2.1.79a7.34 7.34 0 011.91-.25c.65 0 1.3.09 1.91.25 1.45-.99 2.1-.79 2.1-.79.42 1.06.15 1.85.08 2.04.49.53.78 1.22.78 2.06 0 2.95-1.78 3.6-3.49 3.79.28.24.52.7.52 1.43 0 1.03-.01 1.86-.01 2.11 0 .2.14.45.52.37a7.695 7.695 0 005.22-7.3C15.52 3.94 12.1.5 7.89.5z" fill="currentColor" fill-rule="evenodd"/></symbol><symbol fill="none" viewBox="0 0 16 16" id="16--instagram" xmlns="http://www.w3.org/2000/svg"><path fill-rule="evenodd" clip-rule="evenodd" d="M4.701.048C5.555.009 5.827 0 8 0s2.445.01 3.299.048c1.3.06 2.442.378 3.358 1.295.917.916 1.236 2.058 1.295 3.358C15.991 5.555 16 5.827 16 8s-.01 2.445-.048 3.299c-.06 1.3-.378 2.442-1.295 3.358-.916.917-2.058 1.236-3.358 1.295-.854.039-1.126.048-3.299.048s-2.445-.01-3.299-.048c-1.3-.06-2.442-.378-3.358-1.295C.426 13.741.107 12.6.048 11.3.009 10.445 0 10.173 0 8s.01-2.445.048-3.299c.06-1.3.378-2.442 1.295-3.358C2.259.426 3.4.107 4.7.048zm6.532 1.44c-.844-.039-1.097-.047-3.233-.047s-2.39.008-3.233.047c-.91.041-1.755.224-2.405.874-.65.65-.833 1.495-.874 2.405-.039.844-.047 1.097-.047 3.233s.008 2.39.047 3.233c.041.91.224 1.755.874 2.405.65.65 1.495.833 2.405.874.844.039 1.097.047 3.233.047s2.39-.008 3.233-.047c.91-.041 1.755-.224 2.405-.874.65-.65.833-1.495.874-2.405.039-.844.047-1.097.047-3.233s-.008-2.39-.047-3.233c-.041-.91-.224-1.755-.874-2.405-.65-.65-1.495-.833-2.405-.874zM3.892 8a4.108 4.108 0 118.216 0 4.108 4.108 0 01-8.216 0zm1.441 0a2.667 2.667 0 105.334 0 2.667 2.667 0 00-5.334 0zm6.938-3.31a.96.96 0 100-1.92.96.96 0 000 1.92z" fill="currentColor"/></symbol><symbol fill="none" viewBox="0 0 16 16" id="16--issuu" xmlns="http://www.w3.org/2000/svg"><path d="M8.033 10.031a2.035 2.035 0 11.039-4.07 2.035 2.035 0 01-.039 4.07zm.057-6.053a4.02 4.02 0 10-.075 8.038 4.02 4.02 0 00.075-8.038" fill="currentColor"/><path d="M2.504 7.89a5.555 5.555 0 1111.109.106 5.555 5.555 0 01-11.11-.106zM8 0l-.038.001H.665C.299 0 0 .298 0 .664v7.336a8 8 0 108-8z" fill="currentColor"/></symbol><symbol fill="none" viewBox="0 0 16 16" id="16--link-arrow-sm-right" xmlns="http://www.w3.org/2000/svg"><path d="M6 4l4 4-4 4" stroke="currentColor" stroke-width="1.5" stroke-linecap="round" stroke-linejoin="round"/></symbol><symbol fill="none" viewBox="0 0 16 16" id="16--link-internal" xmlns="http://www.w3.org/2000/svg"><path d="M1.5 8h13M9.5 3l5 5-5 5" stroke="currentColor" stroke-width="1.5" stroke-linecap="round" stroke-linejoin="round"/></symbol><symbol fill="none" viewBox="0 0 16 16" id="16--linkedin" xmlns="http://www.w3.org/2000/svg"><path fill-rule="evenodd" clip-rule="evenodd" d="M15.333 0H.667C.267 0 0 .267 0 .667v14.666c0 .4.267.667.667.667h14.666c.4 0 .667-.267.667-.667V.667c0-.4-.267-.667-.667-.667zm-10.6 13.667H2.4V6h2.4v7.667h-.067zm-1.2-8.734c-.733 0-1.4-.6-1.4-1.4 0-.733.6-1.4 1.4-1.4.734 0 1.4.6 1.4 1.4 0 .8-.6 1.4-1.4 1.4zm10.134 8.734h-2.4V9.933c0-.866 0-2-1.2-2-1.267 0-1.4.934-1.4 1.934v3.8h-2.4V6h2.266v1.067c.334-.6 1.067-1.2 2.267-1.2 2.4 0 2.867 1.6 2.867 3.666v4.134z" fill="currentColor"/></symbol><symbol fill="none" viewBox="0 0 16 16" id="16--media-gallery" xmlns="http://www.w3.org/2000/svg"><path d="M14 11.32L7.993 14M7.993 14L2 11.32M14 8l-6.007 2.68M7.993 10.68L2 8" stroke="currentColor" stroke-width="1.5" stroke-linecap="round" stroke-linejoin="round"/><path clip-rule="evenodd" d="M2 4.683l5.991 2.683L14 4.683 8.009 2 2 4.683z" stroke="currentColor" stroke-width="1.5" stroke-linecap="round" stroke-linejoin="round"/></symbol><symbol fill="none" viewBox="0 0 16 16" id="16--media-video" xmlns="http://www.w3.org/2000/svg"><path clip-rule="evenodd" d="M6.103 3.173l7.213 3.768c.912.476.912 1.642 0 2.118l-7.213 3.768C5.174 13.312 4 12.72 4 11.767V4.233c0-.953 1.174-1.545 2.103-1.06v0z" stroke="currentColor" stroke-width="1.5" stroke-linecap="round" stroke-linejoin="round"/></symbol><symbol fill="none" viewBox="0 0 16 16" id="16--menu" xmlns="http://www.w3.org/2000/svg"><path d="M2 3.5h12M2 8.5h12M2 13.5h12" stroke="currentColor" stroke-width="1.5" stroke-linecap="round" stroke-linejoin="round"/></symbol><symbol fill="none" viewBox="0 0 16 16" id="16--rss" xmlns="http://www.w3.org/2000/svg"><path fill-rule="evenodd" clip-rule="evenodd" d="M8 16A8 8 0 118 0a8 8 0 010 16zM5 9.75a.75.75 0 101.5 0 .75.75 0 00-1.5 0zm2.39-1.64c-.425-.426-1.064-.673-1.841-.596a.5.5 0 11-.098-.995c1.05-.104 1.992.228 2.647.883.655.655.987 1.597.883 2.647a.5.5 0 01-.995-.098c.077-.777-.17-1.416-.595-1.842zM6.037 5.012c2.666-.194 4.645 1.785 4.45 4.45a.5.5 0 00.998.073c.239-3.274-2.246-5.759-5.52-5.52a.5.5 0 10.072.997z" fill="currentColor"/></symbol><symbol fill="none" viewBox="0 0 16 14" id="16--twitter" xmlns="http://www.w3.org/2000/svg"><path fill-rule="evenodd" clip-rule="evenodd" d="M16 2.067c-.6.266-1.2.466-1.867.533A3.55 3.55 0 0015.6.8c-.667.4-1.333.667-2.067.8a3.227 3.227 0 00-2.4-1.067A3.272 3.272 0 007.867 3.8c0 .267 0 .533.066.733a9.205 9.205 0 01-6.8-3.466 3.009 3.009 0 00-.466 1.666c0 1.134.6 2.134 1.466 2.734-.533 0-1.066-.134-1.466-.4v.066c0 1.6 1.133 2.934 2.6 3.2-.267.067-.534.134-.867.134-.2 0-.4 0-.6-.067a3.16 3.16 0 003.067 2.267c-1.134.866-2.534 1.4-4.067 1.4-.267 0-.533 0-.8-.067a9.332 9.332 0 005 1.467c6.067 0 9.333-5 9.333-9.334v-.4C15 3.267 15.533 2.667 16 2.067z" fill="currentColor"/></symbol><symbol viewBox="0 0 24 24" id="16--x" xmlns="http://www.w3.org/2000/svg"><path d="M18.244 2.25h3.308l-7.227 8.26 8.502 11.24H16.17l-5.214-6.817L4.99 21.75H1.68l7.73-8.835L1.254 2.25H8.08l4.713 6.231zm-1.161 17.52h1.833L7.084 4.126H5.117z"/></symbol><symbol fill="none" viewBox="0 0 16 16" id="16--youtube" xmlns="http://www.w3.org/2000/svg"><path fill-rule="evenodd" clip-rule="evenodd" d="M15.867 4.8s-.134-1.133-.667-1.6c-.6-.667-1.267-.667-1.6-.667C11.333 2.4 8 2.4 8 2.4s-3.333 0-5.6.133C2.067 2.6 1.4 2.6.8 3.2.333 3.667.133 4.8.133 4.8S0 6.067 0 7.4v1.2c0 1.267.133 2.6.133 2.6s.134 1.133.667 1.6c.6.667 1.4.6 1.733.667C3.8 13.6 8 13.6 8 13.6s3.333 0 5.6-.2c.333-.067 1-.067 1.6-.667.467-.466.667-1.6.667-1.6S16 9.867 16 8.533v-1.2c0-1.266-.133-2.533-.133-2.533zm-9.534 5.267V5.6l4.334 2.267-4.334 2.2z" fill="currentColor"/></symbol><symbol fill="none" viewBox="0 0 24 24" id="24--author" xmlns="http://www.w3.org/2000/svg"><path d="M15 5.2c1.7 1.7 1.7 4.4 0 6-1.7 1.6-4.4 1.7-6 0-1.6-1.7-1.7-4.4 0-6 1.7-1.6 4.3-1.6 6 0M4 20c0-2.5 2-4.5 4.5-4.5h2.6" stroke="currentColor" stroke-width="1.5" stroke-linecap="round" stroke-linejoin="round"/><path clip-rule="evenodd" d="M14 21h2.3l3.4-3.4c.4-.4.4-1 0-1.4l-.9-.9c-.4-.4-1-.4-1.4 0L14 18.7V21h0z" stroke="currentColor" stroke-width="1.5" stroke-linecap="round" stroke-linejoin="round"/></symbol><symbol fill="none" viewBox="0 0 24 24" id="24--close" xmlns="http://www.w3.org/2000/svg"><path d="M20.53 4.53a.75.75 0 00-1.06-1.06l1.06 1.06zM2.5 20.44a.75.75 0 001.06 1.06L2.5 20.44zM19.47 3.47L2.5 20.44l1.06 1.06L20.53 4.53l-1.06-1.06z" fill="currentColor"/><path d="M3.53 3.47a.75.75 0 00-1.06 1.06l1.06-1.06zM19.44 21.5a.75.75 0 001.06-1.06l-1.06 1.06zM2.47 4.53L19.44 21.5l1.06-1.06L3.53 3.47 2.47 4.53z" fill="currentColor"/></symbol><symbol fill="none" viewBox="0 0 24 24" id="24--error" xmlns="http://www.w3.org/2000/svg"><path fill-rule="evenodd" clip-rule="evenodd" d="M12 23.5C5.648 23.5.5 18.352.5 12S5.648.5 12 .5 23.5 5.648 23.5 12 18.352 23.5 12 23.5z" fill="red" fill-opacity=".5"/><path fill-rule="evenodd" clip-rule="evenodd" d="M12 10.63a.75.75 0 01.75.75v3.555a.75.75 0 01-1.5 0V11.38a.75.75 0 01.75-.75z" fill="#FFF"/><circle cx="12" cy="8.875" r="1" fill="#FFF"/></symbol><symbol fill="none" viewBox="0 0 24 24" id="24--menu" xmlns="http://www.w3.org/2000/svg"><path d="M3 5h18M3 12h18M3 19h18" stroke="currentColor" stroke-width="1.5" stroke-linecap="round" stroke-linejoin="round"/></symbol><symbol fill="none" viewBox="0 0 24 24" id="24--navigation-lupe" xmlns="http://www.w3.org/2000/svg"><path fill-rule="evenodd" clip-rule="evenodd" d="M11 18.5a7.5 7.5 0 100-15 7.5 7.5 0 000 15zm0 1.5a9 9 0 100-18 9 9 0 000 18z" fill="currentColor"/><path fill-rule="evenodd" clip-rule="evenodd" d="M16.47 16.47a.75.75 0 011.06 0l5.304 5.303a.75.75 0 11-1.061 1.06L16.47 17.53a.75.75 0 010-1.06zM11 6.25a.75.75 0 01.75.75v8a.75.75 0 01-1.5 0V7a.75.75 0 01.75-.75z" fill="currentColor"/><path fill-rule="evenodd" clip-rule="evenodd" d="M15.75 11a.75.75 0 01-.75.75H7a.75.75 0 010-1.5h8a.75.75 0 01.75.75z" fill="currentColor"/></symbol><symbol fill="none" viewBox="0 0 24 24" id="24--newspaper" xmlns="http://www.w3.org/2000/svg"><path d="M15 13.757a14.56 14.56 0 013-.64M6 13.118c1.054.117 2.039.321 3 .64M18 9.118a14.496 14.496 0 00-3 .64M9 9.757a14.56 14.56 0 00-3-.64" stroke="currentColor" stroke-width="1.5" stroke-linecap="round" stroke-linejoin="round"/><path clip-rule="evenodd" d="M12 6.131C9.406 4.678 7.088 4.1 4.017 4.001a.995.995 0 00-1.017 1v11.853c0 .541.433.99.974.998 3.092.046 5.42.616 8.026 2.148 2.606-1.532 4.934-2.102 8.026-2.148a.996.996 0 00.974-.999V5a.995.995 0 00-1.017-1c-3.071.1-5.389.678-7.983 2.131z" stroke="currentColor" stroke-width="1.5" stroke-linecap="round" stroke-linejoin="round"/><path d="M12 6.13V20" stroke="currentColor" stroke-width="1.5" stroke-linecap="round" stroke-linejoin="round"/></symbol><symbol fill="none" viewBox="0 0 24 25" id="24--search" xmlns="http://www.w3.org/2000/svg"><circle cx="11" cy="11.5" r="8.25" stroke="currentColor" stroke-width="1.5"/><path d="M17.53 16.97a.75.75 0 10-1.06 1.06l1.06-1.06zm4.243 6.364a.75.75 0 101.06-1.061l-1.06 1.06zM16.47 18.03l5.303 5.304 1.06-1.061-5.303-5.303-1.06 1.06z" fill="currentColor"/></symbol><symbol fill="none" viewBox="0 0 24 24" id="24--success" xmlns="http://www.w3.org/2000/svg"><path fill-rule="evenodd" clip-rule="evenodd" d="M12 23.5C5.648 23.5.5 18.352.5 12S5.648.5 12 .5 23.5 5.648 23.5 12 18.352 23.5 12 23.5z" fill="#28960C" fill-opacity=".5"/><path fill-rule="evenodd" clip-rule="evenodd" d="M7.638 11.471a.719.719 0 011.016 0l1.802 1.802L13.6 8.965a.719.719 0 011.16.847L11.123 14.8a.719.719 0 01-1.089.084l-2.395-2.396a.719.719 0 010-1.016z" fill="#FFF"/></symbol><symbol fill="none" viewBox="0 0 32 32" id="arrow-left" xmlns="http://www.w3.org/2000/svg"><path fill-rule="evenodd" clip-rule="evenodd" d="M13.374 8.293a1 1 0 010 1.414l-4.96 4.96H26a1 1 0 110 2H8.414l4.96 4.96a1 1 0 01-1.414 1.414l-6.667-6.667A1.04 1.04 0 015 15.658l.038-.187.038-.187m0 0a.997.997 0 01.217-.324l6.667-6.667a1 1 0 011.414 0m-8.298 6.991a.996.996 0 00-.076.373l.038-.186.038-.187z" fill="currentColor"/></symbol><symbol viewBox="0 0 32 32" id="arrow-right" xmlns="http://www.w3.org/2000/svg"><path fill-rule="evenodd" clip-rule="evenodd" d="M18.626 23.04a1 1 0 010-1.414l4.96-4.96H6a1 1 0 110-2h17.586l-4.96-4.959a1 1 0 011.414-1.414l6.667 6.667c.193.192.29.463.293.716l-.038.187-.038.186m0 0a.997.997 0 01-.217.325L20.04 23.04a1 1 0 01-1.414 0m8.298-6.99a.996.996 0 00.076-.374l-.038.187-.038.186z" fill="currentColor"/></symbol><symbol fill="none" viewBox="0 0 10 10" id="lightbox-close" xmlns="http://www.w3.org/2000/svg"><path fill-rule="evenodd" clip-rule="evenodd" d="M.47.47a.75.75 0 011.06 0L5 3.945 8.47.47a.75.75 0 011.06 1.06L6.06 5.007 9.517 8.47a.75.75 0 11-1.062 1.06L5 6.069l-3.455 3.46A.75.75 0 11.483 8.47L3.94 5.007.47 1.53a.75.75 0 010-1.06z" fill="currentColor"/></symbol><symbol fill="none" viewBox="0 0 80 80" id="spinner" xmlns="http://www.w3.org/2000/svg"><circle r="3" transform="matrix(-1 0 0 1 40 7)" fill="currentColor"/><circle opacity=".52" r="3" transform="matrix(-1 0 0 1 40 73)" fill="currentColor"/><circle opacity=".84" r="3" transform="scale(-1 1) rotate(60 -26.062 1.859)" fill="currentColor"/><circle opacity=".36" r="3" transform="scale(-1 1) rotate(60 -83.22 -31.14)" fill="currentColor"/><circle opacity=".76" r="3" transform="matrix(0 1 1 0 7 40)" fill="currentColor"/><circle opacity=".28" r="3" transform="matrix(0 1 1 0 73 40)" fill="currentColor"/><circle opacity=".68" r="3" transform="scale(1 -1) rotate(-60 -43.22 -38.141)" fill="currentColor"/><circle opacity=".2" r="3" transform="scale(1 -1) rotate(-60 13.938 -71.14)" fill="currentColor"/><circle opacity=".6" r="3" transform="scale(1 -1) rotate(-30 -116.22 -78.142)" fill="currentColor"/><circle opacity=".12" r="3" transform="scale(1 -1) rotate(-30 6.938 -111.142)" fill="currentColor"/><circle opacity=".92" r="3" transform="scale(-1 1) rotate(30 -33.062 -38.14)" fill="currentColor"/><circle opacity=".44" r="3" transform="scale(-1 1) rotate(30 -156.22 -71.14)" fill="currentColor"/></symbol></svg>