<svg viewBox="0 0 140.7 22.9" xmlns="http://www.w3.org/2000/svg"><path d="m86.5 16.6c-.8 4-3.9 4.2-4.5 4.2-1.8 0-2.8-1-2.8-2.7 0-.4.1-.9.1-1.4l1.9-9.6h-2.2l-2 9.8v.1c-.1.4-.2.9-.2 1.4 0 2.6 1.7 4.4 4.3 4.4 1.9 0 3.4-.6 4.5-1.8l-.3 1.6h2.2l3.1-15.5h-2.3z"/><path d="m102 6.9c-1.8 0-3.3.7-4.3 2l.3-1.8h-2.2l-3.1 15.5h2.3l1.9-9.5c.5-2.4 2.4-4.2 4.5-4.2.9 0 1.6.4 2.2 1.1l1.8-1.6c-.9-1-2-1.5-3.4-1.5z"/><path d="m64.5 9.1h7.7l-10.3 11.7-.4 1.9h11l.4-2h-8.2l10.3-11.7.4-1.9h-10.5z"/><path d="m105.7 22.6-.1.1h2.3l3.1-15.6h-2.2z"/><path d="m136.4 6.9c-1.9 0-3.3.6-4.4 1.7l1.8-8.7h-2.3l-4.5 22.7h2.3l1.9-9.5c.8-4 3.9-4.2 4.6-4.2 1.7 0 2.8 1 2.8 2.7 0 .4-.1.9-.2 1.4l-1.9 9.6h2.3l2-9.8c.1-.5.2-1 .2-1.5-.3-2.6-2-4.4-4.6-4.4z"/><path d="m121.4 6.9c-4.1 0-7 2.9-7.9 7.9-.2.8-.2 1.8-.2 2.4 0 3.4 2.1 5.6 5.5 5.6 2 0 3.7-.7 5.2-2.2l-1.3-1.6c-1.2 1.3-2.3 1.8-3.7 1.8-1.6 0-3.3-1-3.3-3.6 0-.8.1-1.5.2-2.3.2-1.3.8-3.2 2-4.4 1-1 2.1-1.5 3.4-1.5s2.2.5 3 1.7l1.7-1.4c-1.3-1.7-2.7-2.4-4.6-2.4z"/><path d="m109.6 2.8h2.3l.6-2.8h-2.3z"/><path d="m87.6 2.8h2.2l.6-2.8h-2.3z"/><path d="m81.5 2.8h2.3l.6-2.8h-2.3z"/><path d="m51.2 8.8h-5.1l1.8-8.8h-43.3l-4.6 22.7h17.3l1.1-5.7h-10.2l.6-3.1h10.2l1.1-5.1h-10.2l.6-3.1h16.2l-3.5 17h7.1l3.4-17h6l-3.4 17h7.1l1.7-8.8h5.1l-1.7 8.8h7.1l4.5-22.7h-7.1z"/></svg>
