<?xml version="1.0" encoding="UTF-8"?>
<svg width="452.55" height="472.43" version="1.1" viewBox="0 0 452.55 472.43" xmlns="http://www.w3.org/2000/svg">
 <g fill="#ffb6b6">
  <path d="m255.9 274.54c1.7846-4.1982 5.3973-6.6803 8.0689-5.5442s3.3899 5.4599 1.6041 9.6593c-0.69034 1.6873-1.7747 3.1847-3.1624 4.367l-7.7861 17.692-8.2246-3.8307 8.5489-17.035c-0.11147-1.8202 0.2147-3.6407 0.9512-5.3089z"/>
  <polygon points="193.03 309.76 205.03 291.76 217.03 296.76 214.03 312.76"/>
  <path d="m157.27 266.49c-2.2586-3.9634-6.1343-6.0106-8.6564-4.5729-2.5221 1.4378-2.7351 5.8156-0.47524 9.7801 0.88102 1.596 2.1314 2.9579 3.6467 3.9716l9.7817 16.672 7.7259-4.757-10.463-15.931c-0.09998-1.8209-0.63468-3.5913-1.5594-5.1631z"/>
 </g>
 <g class="accent" fill="#ffe9b5">
  <path d="m201.72 325.34s-9.2707 12.778-14.941 8.2119-36.998-55.894-36.998-55.894l12.433-6.6634 39.506 54.346z"/>
  <polygon points="194.03 305.76 215.03 304.76 229.03 308.76 232.03 382.76 190.03 378.76 190.03 339.73 184.03 319.76"/>
  <polygon points="227.03 308.76 245.03 301.76 251.03 280.76 264.03 285.76 254.03 315.76 227.03 326.07"/>
 </g>
 <g fill="#f2f2f2">
  <path d="m182.77 380.82c-0.8443-1.4236-4.4968 0.10068-5.1683-1.1914-0.66913-1.2874 2.7245-3.2489 4.6633-7.7298 0.34967-0.80807 2.553-5.9003 0.92188-7.4716-3.0917-2.9784-17.24 9.3126-22.191 5.2904-1.0866-0.88269-1.8457-2.6448-5.1343-5.5058-1.3083-1.1382-2.0994-1.652-2.865-1.4608-1.0864 0.27127-1.1724 1.7252-2.3373 4.584-1.747 4.2873-2.7803 4.0284-3.7982 7.449-0.75562 2.5392-0.58301 4.0155-1.4722 4.3031-1.2582 0.40701-2.4164-2.2863-4.011-2.0452-1.6272 0.24612-2.611 3.382-2.9217 5.73-0.58313 4.4061 1.035 7.3135 1.9318 10.371 0.97461 3.3224 1.553 8.3749-0.69769 15.528l-22.277 62.766c4.9181-12.879 19.158-48.185 25.142-61.305 1.7274-3.7874 3.6347-7.6291 7.551-9.1453 3.7704-1.4598 8.9487-0.58823 15.55-2.1786 0.771-0.1857 2.9105-0.73007 3.1798-1.9885 0.22266-1.0404-1.0358-1.6211-0.84247-2.5955 0.25934-1.307 2.7341-1.3231 5.7753-2.831 2.1445-1.0633 3.4805-2.3278 4.6293-3.4153 0.34637-0.32785 5.4951-5.2617 4.3712-7.1568h-6e-5z"/>
  <path d="m95.13 413.87c-0.94235 0.0036-1.248 2.2361-2.0759 2.1929-0.82492-0.04303-0.80847-2.2746-2.4483-4.5191-0.29572-0.40475-2.1593-2.9555-3.4012-2.6082-2.3538 0.65808-0.4035 11.148-3.8062 12.418-0.74673 0.27863-1.8307 0.14276-4.1837 0.93134-0.9361 0.31372-1.4166 0.55371-1.5436 0.98465-0.1803 0.61145 0.50845 1.0732 1.5754 2.4698 1.6002 2.0944 1.175 2.5269 2.5601 4.0134 1.0283 1.1035 1.8026 1.4448 1.6872 1.9641-0.16327 0.73499-1.8193 0.52631-2.1611 1.3785-0.34869 0.86966 0.90659 2.2573 1.9693 3.0872 1.9943 1.5575 3.8881 1.6022 5.6474 2.0441 1.9118 0.48026 4.5586 1.6542 7.4197 4.8227l24.378 29.044c-4.9023-6.13-18.122-23.306-22.835-30.028-1.3605-1.9406-2.6957-3.9852-2.3098-6.3448 0.37143-2.2718 2.2933-4.5618 3.4175-8.2608 0.13132-0.43201 0.48145-1.6392-0.05847-2.1344-0.44638-0.40945-1.0945 0.04068-1.517-0.33539-0.56665-0.50443 0.13953-1.7237 0.27689-3.6514 0.09686-1.3593-0.13831-2.3799-0.34055-3.2575-0.06097-0.26459-0.99695-4.2152-2.2514-4.2104v9e-5z"/>
  <path d="M113.92948,418.08643l-.56775-5.06818,.2594-.38422c1.20035-1.77667,1.81216-3.51175,1.81949-5.15872,.00122-.26184-.01102-.52371-.02325-.79044-.04895-1.05719-.11011-2.37134,.5751-3.90329,.38422-.85406,1.46344-2.83142,3.08594-2.5867,.43683,.06119,.76721,.26184,1.01804,.49677,.03671-.05872,.07465-.11746,.11502-.18109,.50534-.77087,.90546-1.10123,1.29089-1.41937,.29611-.24472,.60202-.49677,1.08167-1.0939,.21045-.26184,.37442-.49188,.5127-.68521,.41971-.58487,.96786-1.28235,1.93451-1.27011,1.03271,.04895,1.57355,.90302,1.93207,1.46832,.63995,1.00824,.92993,1.73508,1.12204,2.21716,.06976,.17621,.14929,.37442,.18967,.43561,.33282,.48944,3.03824,.0318,4.05746-.13461,2.28937-.38177,4.27039-.71213,5.08655,.73172,.5849,1.03271,.15051,2.39825-1.33008,4.1676-.4613,.55063-.95197,.96909-1.38757,1.29703,.36096,.21536,.68396,.54572,.81494,1.06454h0c.30835,1.22849-.74762,2.45944-3.13733,3.66348-.59344,.30099-1.39246,.70236-2.51205,.89569-.52737,.09055-1.00214,.11258-1.40836,.12482-.00858,.23492-.06363,.48944-.20679,.75128-.41971,.77087-1.29333,1.13794-2.60995,1.04984-1.44876-.07587-2.64175-.35239-3.69406-.59467-.91891-.21045-1.7106-.3891-2.33218-.3475-1.15262,.09299-2.04099,1.01559-3.08347,2.21228l-2.6026,3.04187h-.00003Z"/>
  <path d="M116.56318,387.9105l-4.75842,1.83472-.43744-.15347c-2.02304-.71045-3.85654-.86215-5.45151-.45148-.2536,.06525-.50378,.14349-.7587,.22299-1.01019,.31549-2.26587,.70801-3.92151,.43378-.92361-.155-3.11002-.69739-3.28485-2.32889-.05161-.43805,.05869-.80853,.22232-1.11075-.06613-.0206-.13257-.04239-.20435-.06531-.87384-.2933-1.29489-.59653-1.70041-.88867-.31183-.22437-.63324-.45633-1.33249-.76883-.30667-.13715-.57077-.2374-.79285-.32211-.67221-.2576-1.4859-.61096-1.71924-1.5491-.2146-1.01135,.47437-1.75113,.93024-2.24133,.81296-.87476,1.44244-1.33963,1.86005-1.64774,.15274-.11215,.32431-.23938,.37326-.29395,.38901-.44608-.73987-2.94693-1.15936-3.89062-.94998-2.11765-1.77203-3.95007-.5824-5.10577,.85059-.8277,2.28165-.75391,4.36868,.22946,.64963,.30655,1.17886,.67502,1.60657,1.01321,.11676-.40378,.35437-.80005,.82303-1.05829h0c1.11011-.60986,2.56863,.09933,4.33945,2.10547,.44168,.49768,1.03259,1.16876,1.50357,2.2027,.22134,.48715,.36307,.9408,.47797,1.33066,.22943-.0513,.48956-.06259,.77917,.00946,.85211,.21045,1.4288,.9624,1.67752,2.2583,.2941,1.42062,.32922,2.64474,.36179,3.72409,.02951,.94226,.0575,1.75336,.25543,2.34406,.38232,1.09134,1.50006,1.71661,2.92206,2.42148l3.60254,1.74591-.00012,.00003Z"/>
  <path d="M113.92948,372.9795l-.56775-5.06818,.2594-.38422c1.20035-1.77667,1.81216-3.51175,1.81949-5.15872,.00122-.26184-.01102-.52371-.02325-.79044-.04895-1.05719-.11011-2.37134,.5751-3.90329,.38422-.85406,1.46344-2.83142,3.08594-2.5867,.43683,.06119,.76721,.26184,1.01804,.49677,.03671-.05872,.07465-.11746,.11502-.18109,.50534-.77087,.90546-1.10123,1.29089-1.41937,.29611-.24472,.60202-.49677,1.08167-1.0939,.21045-.26184,.37442-.49188,.5127-.68521,.41971-.58487,.96786-1.28235,1.93451-1.27011,1.03271,.04895,1.57355,.90302,1.93207,1.46832,.63995,1.00824,.92993,1.73508,1.12204,2.21716,.06976,.17621,.14929,.37442,.18967,.43561,.33282,.48944,3.03824,.0318,4.05746-.13461,2.28937-.38177,4.27039-.71213,5.08655,.73172,.5849,1.03271,.15051,2.39825-1.33008,4.1676-.4613,.55063-.95197,.96909-1.38757,1.29703,.36096,.21536,.68396,.54572,.81494,1.06454h0c.30835,1.22849-.74762,2.45944-3.13733,3.66348-.59344,.30099-1.39246,.70236-2.51205,.89569-.52737,.09055-1.00214,.11258-1.40836,.12482-.00858,.23492-.06363,.48944-.20679,.75128-.41971,.77087-1.29333,1.13794-2.60995,1.04984-1.44876-.07587-2.64175-.35239-3.69406-.59467-.91891-.21045-1.7106-.3891-2.33218-.3475-1.15262,.09299-2.04099,1.01559-3.08347,2.21228l-2.6026,3.04187h-.00003Z"/>
  <path d="m119.12 471.36-1.0621-0.66565-0.25696-1.226 0.25696 1.226-1.2383 0.14194c-0.01959-0.11502-0.08688-0.37933-0.18842-0.79291-0.55429-2.2661-2.2441-9.1624-3.6537-20.023-0.9838-7.5814-1.5405-15.376-1.6556-23.17-0.11502-7.8066 0.25452-13.717 0.55063-18.467 0.22391-3.5827 0.49557-6.9941 0.7623-10.317 0.70969-8.8785 1.379-17.265 0.88098-26.55-0.11011-2.0728-0.3414-6.3872-2.862-10.978-1.4622-2.6626-3.4763-5.0266-5.9871-7.0235l1.5613-1.9626c2.7714 2.2074 4.9996 4.8259 6.6234 7.7821 2.7947 5.0902 3.0468 9.7913 3.1679 12.05 0.50656 9.4487-0.17007 17.916-0.88712 26.88-0.26431 3.3111-0.53595 6.7078-0.75864 10.276-0.29367 4.706-0.65952 10.565-0.54572 18.271 0.11258 7.7014 0.66318 15.4 1.6335 22.886 1.3925 10.724 3.0578 17.517 3.6047 19.749 0.29123 1.1918 0.35239 1.4414 0.05383 1.9137v-3e-5z"/>
  <path d="m100.07 357.49c-0.10278 0-0.20679-0.00244-0.31201-0.0098-2.134-0.11502-4.1101-1.3925-5.8745-3.7956-0.82715-1.1306-1.2505-2.4203-2.0948-4.9923-0.13092-0.39645-0.76721-2.408-1.1539-5.1758-0.2533-1.8085-0.22147-2.5647 0.13705-3.2328 0.39767-0.74396 1.0413-1.2628 1.7657-1.6127-0.0318-0.23984-0.00613-0.487 0.0979-0.73907 0.42703-1.045 1.5625-0.9079 2.1768-0.84183 0.31079 0.03915 0.69867 0.09055 1.1172 0.06851 0.65829-0.0318 1.0119-0.2276 1.5478-0.52127 0.5127-0.28143 1.1502-0.63138 2.096-0.82471 1.8648-0.3891 3.4273 0.1395 3.9424 0.31323 2.7103 0.90302 4.0464 3.0101 5.5931 5.4499 0.30835 0.48944 1.3668 2.271 2.0654 4.7133 0.50412 1.762 0.43317 2.5451 0.28143 3.1275-0.30835 1.1967-1.0364 1.8819-2.8852 3.3943-1.9308 1.5833-2.8999 2.3762-3.732 2.8583-1.937 1.1184-3.1532 1.8207-4.7684 1.8207v6e-5z"/>
 </g>
 <polygon points="217.45 467.07 224.01 467.07 227.14 441.76 217.45 441.76" fill="#ffb6b6"/>
 <path d="m239.93 466.92c0.20433 0.34413 0.31215 1.4548 0.31215 1.855 0 1.2301-0.99718 2.2273-2.2273 2.2273h-20.323c-0.83917 0-1.5195-0.68028-1.5195-1.5195v-0.84611s-1.0054-2.543 1.0645-5.6774c0 0 2.5726 2.4543 6.4166-1.3898l1.1336-2.0536 8.2056 6.0011 4.5482 0.55984c0.99506 0.12247 1.8773-0.01901 2.3891 0.84304h8e-5z" fill="#2f2e41"/>
 <polygon points="197.45 467.07 204.01 467.07 207.14 441.76 197.45 441.76" fill="#ffb6b6"/>
 <path d="m219.93 466.92c0.20433 0.34413 0.31215 1.4548 0.31215 1.855 0 1.2301-0.99718 2.2273-2.2273 2.2273h-20.323c-0.83917 0-1.5195-0.68028-1.5195-1.5195v-0.84611s-1.0054-2.543 1.0645-5.6774c0 0 2.5726 2.4543 6.4166-1.3898l1.1336-2.0536 8.2056 6.0011 4.5482 0.55984c0.99506 0.12247 1.8773-0.01901 2.3891 0.84304h8e-5z" fill="#2f2e41"/>
 <polygon points="225.03 357.75 232.03 384.86 228.53 454.47 212.03 455.58 211.03 415.5 209.03 456.75 192.03 453.22 191.03 362.47" fill="#2f2e41"/>
 <path d="m228.69 355.67c-0.73792-2.1523-1.032-4.4246-0.84167-6.6919 0.53717-6.398 0.63849-18.934-5.8831-24.598l-3.6835-3.9905c-0.07654-0.08289-0.16278-0.15399-0.24084-0.23511l6.0945-14.326-3.6816-1.5654-5.6567 13.296c-2.5088-1.5266-5.4029-2.3721-8.3964-2.3721-3.4573 0-6.7623 1.1276-9.493 3.1124l-3.45-12.639-3.8594 1.0537 4.3135 14.414c-0.15668 0.19128-0.328 0.36743-0.47656 0.56677l-2.1075 2.8283c-0.51318 0.68866-1.0794 1.3284-1.693 1.9292-1.2936 1.2668-3.8173 4.3428-3.8419 9.0788-0.00836 1.6198-0.34119 3.2215-0.83484 4.7642l-2.505 7.8281c-0.23511 0.7348-0.41968 1.4833-0.5451 2.2445-1.1043 6.7031-4.9273 38.283 21.201 37.651 24.357-0.58929 25.96-15.42 25.818-20.346-0.03082-1.0687 0.06519-2.1292 0.26447-3.1796 0.36548-1.9269 0.69409-5.3364-0.50165-8.8238z" fill="#3f3d56"/>
 <polygon points="338.72 36.017 341 71.183 312.36 77.755 314.35 49.321" fill="#ffb6b6"/>
 <polygon points="340.9 463.41 327.99 463.41 321.85 413.61 340.91 413.61" fill="#ffb6b6"/>
 <path d="m296.67 463.11c-0.40197 0.67699-0.61407 2.862-0.61407 3.6493 0 2.4199 1.9617 4.3817 4.3817 4.3817h39.981c1.6508 0 2.9892-1.3383 2.9892-2.9892v-1.6645s1.9778-5.0027-2.0941-11.169c0 0-5.0609 4.8282-12.623-2.734l-2.23-4.0399-16.142 11.806-8.9475 1.1014c-1.9575 0.24093-3.6931-0.03739-4.7 1.6585h-1.6e-4z" fill="#2f2e41"/>
 <polygon points="375.9 463.41 362.99 463.41 356.85 413.61 375.91 413.61" fill="#ffb6b6"/>
 <path d="m331.67 463.11c-0.40197 0.67699-0.61407 2.862-0.61407 3.6493 0 2.4199 1.9617 4.3817 4.3817 4.3817h39.981c1.6508 0 2.9892-1.3383 2.9892-2.9892v-1.6645s1.9778-5.0027-2.0941-11.169c0 0-5.0609 4.8282-12.623-2.734l-2.23-4.0399-16.142 11.806-8.9475 1.1014c-1.9575 0.24093-3.6931-0.03739-4.7 1.6585h-1.6e-4z" fill="#2f2e41"/>
 <path d="m384.03 226.76s11 14 9 22-16 192-16 192l-20-1-12-165-3.0866 166-18.913-1-24-206 85-7z" fill="#2f2e41"/>
 <path d="m268.4 271.39c-1.891 7.248-7.1637 12.147-11.776 10.943s-6.8175-8.0553-4.9248-15.306c0.71633-2.9066 2.1183-5.5994 4.0887-7.8531l8.4003-30.609 14.28 4.2482-9.7972 29.724c0.61807 2.93 0.5253 5.9655-0.27058 8.8523z" fill="#ffb6b6"/>
 <circle cx="315.46" cy="36.626" r="28.574" fill="#ffb6b6"/>
 <polygon points="312.03 72.755 342.03 66.755 375.03 83.755 382.03 192.76 391.03 233.76 298.03 234.76 302.03 179.76 296.03 92.755" fill="#e6e6e6"/>
 <path d="m305.03 95.755s-16-5-22 4-17 90-17 90l-11 61 20 3 33-107-3-51z" fill="#e6e6e6"/>
 <path d="m450.57 236.34c3.26 6.744 2.4228 13.893-1.8694 15.967s-10.413-1.7119-13.674-8.4588c-1.3393-2.6772-2.018-5.6363-1.9793-8.6296l-13.452-28.749 13.626-6.0251 11.815 28.981c2.3704 1.8299 4.268 4.2009 5.5339 6.9146z" fill="#ffb6b6"/>
 <path d="m362.51 84.792s14.369-8.6332 22.323-1.3026c7.9537 7.3306 37.751 83.45 37.751 83.45l25.079 56.684-18.728 7.6333-57.31-96.196-9.1154-50.268z" fill="#e6e6e6"/>
 <path d="m431.67 471.24c0 0.65997-0.53003 1.19-1.19 1.19h-429.29c-0.65997 0-1.19-0.53003-1.19-1.19 0-0.32001 0.12006-0.60004 0.32001-0.81h89.72c1.91 0 3.78-0.13 5.62-0.38h334.82c0.65997 0 1.19 0.52997 1.19 1.19z" fill="#3f3d56"/>
 <circle cx="203.9" cy="286.65" r="18.393" fill="#ffb6b6"/>
 <path d="m201.48 307.1 10.97-8.9255s-1.0382-13.376 2.9054-14.579 8.0563-6.008 8.0563-6.008-6.5271-14.744-18.016-12.507-8.8674-1.166-15.948 2.5835c-7.0802 3.7495-8.7404 8.7525-7.8792 14.068s-1.7022 18.523 6.8732 19.203 13.038 6.165 13.038 6.165z" fill="#2f2e41"/>
 <path d="m298.15 43.023c-2.0853-3.8026-1.0025-5.6178-2.8839-7.1044-3e-5 -4e-5 -0.75707-0.5982-6.4564-1.3601-0.5446-9.3256-2.0549-10.572-2.055-10.572-1.7407-1.4364-4.5103-1.2361-6.2754-0.58369-3.7333 1.3799-3.6037 5.0152-6.0827 5.5108-3.4246 0.68464 5.9119-5.1698 5.8027-11.363-0.0891-5.0517 3.5293-9.6622 4.7896-9.3023 1.2496 0.35683 4.6004-3.2821 6.2375-3.0911 1.118 0.13047 5.8582-1.4947 7.0781-1.2406 1.3323 0.27756 5.5848 2.9478 5.812 2.4335 1.5788-3.5739 1.2826-4.6242 2.457-5.5888 2.081-1.7094 5.138-0.15902 10.041 0.9339 10.088 2.2487 12.137-0.97299 17.183 1.7248 2.5491 1.3628 4.5109 4.6456 8.3304 11.156 5.3416 9.1041 8.0124 13.656 7.63 18.686-0.38997 5.1296-2.8472 4.6057-4.5444 12.11-1.8893 8.3538 0.38175 12.424-2.6559 14.944-2.3477 1.9479-21.815 2.0979-23.993 0.04973-3.728-3.5066 2.0988-10.784-1.8595-16.757-2.4297-3.6665-7.7478-5.6364-10.376-4.13-2.9721 1.7033-1.8719 7.4878-3.8965 7.8662-1.7337 0.32408-3.9186-3.6601-4.282-4.3227z" fill="#2f2e41"/>
 <path d="m159.66 275.48c3.9804-3.3626 2.9235-11.159-2.3606-17.414-2.313-2.738-5.0528-4.7265-7.7361-5.8152l-3.0842-3.5593-39.827-49.902s-22.055-49.642-28.566-55.005c-6.5106-5.363-14.171-2.5708-14.171-2.5708l-5.9766 7.3943 37.243 69.312 38.116 38.359 5.1455 5.3647c0.62515 2.8275 2.1279 5.8609 4.4411 8.5987 5.284 6.2549 12.794 8.5995 16.775 5.2369z" fill="#ffb6b6"/>
 <polygon points="84.482 153.02 94.462 167.65 108.79 188.86 83.045 197.77 60.314 158.76" fill="#e6e6e6"/>
 <path d="m94.615 103.2-7.2285 27.559-27.559-5.4214s10.843-19.878 8.132-28.914l26.655 6.7767z" fill="#ffb6b6"/>
 <polygon points="65.523 461.93 82.119 461.93 90.013 397.91 65.52 397.92" fill="#ffb6b6"/>
 <path d="m122.38 461.55c0.51673 0.87027 0.78938 3.6791 0.78938 4.6911 0 3.1108-2.5217 5.6326-5.6326 5.6326h-51.394c-2.1221 0-3.8426-1.7203-3.8426-3.8426v-2.1397s-2.5424-6.431 2.692-14.357c0 0 6.5057 6.2066 16.227-3.5146l2.8667-5.1932 20.751 15.176 11.502 1.4158c2.5164 0.30971 4.7474-0.04807 6.0418 2.1319h2e-4z" fill="#2f2e41"/>
 <path d="m111.6 276.68-22.868 155.61h-28.691l3.8151-88.828 2.0079-46.707-5.823-22.232s-2.6549-4.9418-4.8915-10.932c-2.521-6.76-4.5122-14.864-1.5561-18.707 1.0876-1.4167 3.9155-2.4653 7.7584-3.2462 2.3482-0.47966 5.0812-0.85338 8.0317-1.1434 16.967-1.6788 41.101-0.63027 41.101-0.63027l0.61352 20.247 0.34026 11.306 0.16174 5.2596z" fill="#2f2e41"/>
 <polygon points="36.29 454.32 52.709 456.73 69.831 394.55 45.597 390.99" fill="#ffb6b6"/>
 <path d="m92.598 462.22c0.38464 0.93617 0.24583 3.7548 0.09863 4.7561-0.45248 3.0777-3.3142 5.2059-6.392 4.7534l-50.848-7.4757c-2.0996-0.30868-3.5515-2.261-3.2428-4.3606l0.31124-2.117s-1.58-6.7324 4.7518-13.813c0 0 5.5337 7.0869 16.566-1.1169l3.5916-4.721 18.323 18.033 11.174 3.0738c2.4446 0.67244 4.7039 0.64298 5.6674 2.9881l2e-4 3e-5z" fill="#2f2e41"/>
 <path d="m111.96 250.72-3.1366 27.012-17.105 56.922-28.158 93.713-28.383-4.1711 25.473-133.25-2.5222-22.848s-0.82141-2.2711-1.763-5.596c-1.869-6.5778-4.213-17.29-1.6342-22.754 0.34822-0.74277 0.78536-1.3872 1.3261-1.9091 1.0143-0.98368 3.0759-1.581 5.8379-1.8979 11.545-1.3048 35.32 2.4271 45.9 4.2591l4.1652 10.516z" fill="#2f2e41"/>
 <path d="m90.097 122.63 31.173 39.305-5.5957 40.979-4.7953 41.697-56.472-8.5838s12.198-29.366 13.553-30.721 4.7597 1.9921 2.3798-2.3923-5.0905-4.3844-2.8316-6.6433-17.619-31.625-17.619-47.437 9.4874-28.462 9.4874-28.462l30.721 2.2589z" fill="#e6e6e6"/>
 <circle cx="82.824" cy="87.406" r="21" fill="#ffb6b6"/>
 <path d="m81.843 127.56s3.1423-24.864 3.6985-32.094 10.763-18.519 10.763-18.519l7.2305 5.84s6.1181 0 1.9467-8.8991-11.958-10.29-11.958-10.29-0.83429-11.68-15.295-10.29-20.857 13.071-20.857 13.071-0.83429-14.739-10.012-3.8934c-9.1772 10.846-14.461 15.295-4.7277 18.911 9.7334 3.6153 16.964 0.83429 16.964 0.83429s-9.4553 1.9467-7.7867 8.621-21.97 36.987-11.124 40.324c10.846 3.3372 35.04 11.402 37.821 6.1181 2.781-5.2838 3.3372-9.7334 3.3372-9.7334z" fill="#2f2e41"/>
 <path d="m168.41 277.56c4.0084-3.3291 3.017-11.134-2.2146-17.433-2.29-2.7573-5.013-4.7686-7.6871-5.8798l-3.0542-3.5851-39.407-50.234s-21.639-49.825-28.104-55.242c-6.4654-5.4174-14.149-2.6895-14.149-2.6895l-6.0384 7.3439 36.661 69.622 37.793 38.677 5.1003 5.4076c0.60143 2.8326 2.0787 5.8785 4.3689 8.6356 5.2314 6.299 12.722 8.7064 16.73 5.3773z" fill="#ffb6b6"/>
 <path d="m65.466 138.64s9.647 50.062 20.624 57.442l21.875-17.057s1.9143-0.08228-1.6486-4.1068c-3.5628-4.0245-2.6506-12.667-2.6506-12.667s1.6031 2.0742-1.8853-0.80524-0.24091-22.682-0.24091-22.682l-36.074-0.12345z" fill="#e6e6e6"/>
 <path d="m224.79 345.18c-0.46094 0-0.87598-0.32031-0.97656-0.78955l-1.0996-5.1079c-1.6162-7.5117-8.1064-12.998-15.783-13.34-7.1123-0.31885-13.703 3.894-16.404 10.478l-2.7588 6.7251c-0.20898 0.51172-0.79199 0.75488-1.3047 0.5459-0.51074-0.20996-0.75488-0.79395-0.54492-1.3047l2.7588-6.7251c3.0215-7.3628 10.384-12.065 18.344-11.717 8.584 0.3833 15.841 6.5176 17.648 14.917l1.0996 5.1079c0.11621 0.54004-0.22754 1.0718-0.7666 1.188-0.07129 0.01514-0.14258 0.02246-0.21191 0.02246z" fill="#ffb6b6"/>
 <path d="M225.97325,361.44434c-.0293,0-.05957-.00146-.08984-.00391l-37.00488-3.2998c-.5498-.04932-.95605-.53467-.90723-1.08496,.0498-.5498,.53027-.95361,1.08496-.90723l37.00488,3.2998c.5498,.04932,.95605,.53467,.90723,1.08496-.04688,.52002-.48242,.91113-.99512,.91113Z" fill="#ffb6b6"/>
</svg>
