<?xml version="1.0" encoding="UTF-8" standalone="no"?>
<svg
   width="316"
   height="316"
   viewBox="0 0 316 316"
   version="1.1"
   xml:space="preserve"
   style="clip-rule:evenodd;fill-rule:evenodd"
   id="svg4"
   xmlns="http://www.w3.org/2000/svg"
   xmlns:svg="http://www.w3.org/2000/svg"
   xmlns:serif="http://www.serif.com/"><defs
   id="defs4" />
    <g
   transform="matrix(0.95489206,0,0,0.95489206,-82.06667,-76.967468)"
   id="g4">
        <g
   id="Layer-1"
   serif:id="Layer 1">
            <path
   d="m 146,89.5 c 10.9,-0.1 21.8,-0.6 32.6,-0.1 17.2,1.5 34.3,7.3 47.9,18.2 11,8.7 19,20.5 25.5,32.9 -19.1,5.9 -40.2,5.9 -58.9,-1.6 -10.7,-4.3 -20.7,-10.9 -28.5,-19.5 -7.7,-8.9 -14.1,-19 -18.6,-29.9 z"
   style="fill:#a5d233;fill-rule:nonzero;stroke:#f5e708;stroke-width:0.4px"
   id="path1" />
            <path
   d="m 160.1,96 c 12.5,5.7 24.9,11.9 37.5,17.4 15.2,7.3 30.3,14.8 45.5,22.2 -15.7,-6 -31.5,-11.8 -46.7,-19.1 -12.2,-6.6 -24.5,-13.1 -36.3,-20.4 z"
   style="fill-rule:nonzero;stroke:#000000;stroke-width:0.4px"
   id="path2" />
            <path
   d="m 275.6,110.6 c 2.7,-0.8 4.5,2.6 6.1,4.3 -11.5,12.4 -18.8,28.4 -21.2,45.1 -0.067,1.333 -0.067,2.667 0,4 22.6,1 44.5,11.1 60.5,27 32.3,30.9 43.4,80.5 30.9,122.9 -7.9,28.2 -27,52.9 -52.3,67.6 -10.2,5.8 -20.2,11.9 -30.3,17.8 -6.8,4.1 -15.8,5 -23,1.4 -10.6,-5.2 -20.2,-12 -30.6,-17.4 -23.6,-12.7 -42.5,-33.8 -52.4,-58.7 -9.7,-23.4 -11.4,-49.8 -6.1,-74.5 4.9,-22.8 16.1,-44.6 33.2,-60.7 16.4,-16 38.8,-26 61.8,-26 2.4,-19.4 10.1,-38.4 23.4,-52.8 z"
   style="fill:#ffc845;fill-rule:nonzero;stroke:#f5e708;stroke-width:0.4px"
   id="path3" />
            <path
   d="m 231.9,387.6 c 16.1,-0.3 32.3,-0.5 48.4,0 -5.3,1.6 -10.9,1.8 -16.4,2 -10.7,0.3 -21.5,0.2 -32,-2.1 z"
   style="fill-rule:nonzero;stroke:#000000;stroke-width:0.4px"
   id="path4" />
        </g>
    </g>
</svg>
